<svg xmlns="http://www.w3.org/2000/svg" xmlns:xlink="http://www.w3.org/1999/xlink" viewBox="0 0 186.37 175.55"><defs><style>.cls-1,.cls-7,.cls-8{fill:none;}.cls-2{fill:#c2c7cc;}.cls-3{fill:url(#New_Pattern_Swatch_2);}.cls-4{fill:#969a9e;}.cls-5{fill:#fff;}.cls-6{fill:#dae0e5;}.cls-7,.cls-8{stroke:#373a3a;stroke-linecap:round;stroke-linejoin:round;stroke-width:3px;}.cls-8{stroke-dasharray:4 10;}</style><pattern id="New_Pattern_Swatch_2" data-name="New Pattern Swatch 2" width="16" height="19" patternTransform="translate(-415.38 40.41) scale(0.4)" patternUnits="userSpaceOnUse" viewBox="0 0 16 19"><rect class="cls-1" width="16" height="19"/><polygon class="cls-2" points="16 22.18 10.5 19 16 15.82 21.5 19 16 22.18"/><polygon class="cls-2" points="16 22.18 10.5 19 16 15.82 21.5 19 16 22.18"/><polygon class="cls-2" points="0 22.18 -5.5 19 0 15.82 5.5 19 0 22.18"/><polygon class="cls-2" points="0 22.18 -5.5 19 0 15.82 5.5 19 0 22.18"/><polygon class="cls-2" points="16 22.18 10.5 19 16 15.82 21.5 19 16 22.18"/><polygon class="cls-2" points="16 3.18 10.5 0 16 -3.17 21.5 0 16 3.18"/><polygon class="cls-2" points="16 22.18 10.5 19 16 15.82 21.5 19 16 22.18"/><polygon class="cls-2" points="0 22.18 -5.5 19 0 15.82 5.5 19 0 22.18"/><polygon class="cls-2" points="8 12.68 2.5 9.5 8 6.33 13.5 9.5 8 12.68"/><polygon class="cls-2" points="16 3.18 10.5 0 16 -3.17 21.5 0 16 3.18"/><polygon class="cls-2" points="0 3.18 -5.5 0 0 -3.17 5.5 0 0 3.18"/><polygon class="cls-2" points="0 22.18 -5.5 19 0 15.82 5.5 19 0 22.18"/><polygon class="cls-2" points="0 3.18 -5.5 0 0 -3.17 5.5 0 0 3.18"/><polygon class="cls-2" points="16 3.18 10.5 0 16 -3.17 21.5 0 16 3.18"/><polygon class="cls-2" points="16 3.18 10.5 0 16 -3.17 21.5 0 16 3.18"/><polygon class="cls-2" points="0 3.18 -5.5 0 0 -3.17 5.5 0 0 3.18"/><polygon class="cls-2" points="0 3.18 -5.5 0 0 -3.17 5.5 0 0 3.18"/></pattern></defs><g id="Layer_2" data-name="Layer 2"><g id="icons"><g id="abstract_axis" data-name="abstract axis"><polygon class="cls-3" points="45.89 126.94 24.48 137.99 93.69 175.55 135.56 171.98 186.37 137.99 115.15 111.25 45.89 126.94"/><g id="abstract_axis-2" data-name="abstract axis"><polygon class="cls-4" points="79.7 134.84 79.7 90.84 138.87 56.68 138.87 125 79.7 159.16 79.7 134.84"/><polygon class="cls-5" points="138.87 56.68 79.7 90.84 20.54 56.68 79.7 22.52 138.87 56.68"/><polygon class="cls-6" points="79.7 134.84 79.7 159.16 20.54 125 20.54 56.68 79.7 90.84 79.7 134.84"/><line class="cls-7" x1="100.76" y1="147" x2="129.54" y2="163.62"/><line class="cls-8" x1="28" y1="105" x2="93.69" y2="142.92"/><polyline class="cls-7" points="8.8 1.5 8.8 93.91 20.54 100.68"/><polyline class="cls-7" points="1.5 7.02 8.8 1.5 16.1 15.44"/><polyline class="cls-7" points="122.54 149.84 129.83 163.79 122.54 169.31"/><polygon class="cls-7" points="20.54 56.68 79.7 22.52 138.87 56.68 79.7 90.84 20.54 56.68"/><line class="cls-7" x1="79.71" y1="90.84" x2="79.71" y2="159.15"/><polyline class="cls-7" points="20.54 56.68 20.54 125 79.7 159.16 138.87 125 138.87 56.68"/></g></g></g></g></svg>