<svg xmlns="http://www.w3.org/2000/svg" xmlns:xlink="http://www.w3.org/1999/xlink" viewBox="0 0 150.93 183.57"><defs><style>.cls-1,.cls-6{fill:none;}.cls-2{fill:#c2c7cc;}.cls-3{fill:url(#New_Pattern_Swatch_2);}.cls-4{fill:#fff;}.cls-5{fill:#969a9e;}.cls-6{stroke:#373a3a;stroke-linecap:round;stroke-linejoin:round;stroke-width:3px;}</style><pattern id="New_Pattern_Swatch_2" data-name="New Pattern Swatch 2" width="16" height="19" patternTransform="translate(-415.38 40.41) scale(0.4)" patternUnits="userSpaceOnUse" viewBox="0 0 16 19"><rect class="cls-1" width="16" height="19"/><polygon class="cls-2" points="16 22.18 10.5 19 16 15.82 21.5 19 16 22.18"/><polygon class="cls-2" points="16 22.18 10.5 19 16 15.82 21.5 19 16 22.18"/><polygon class="cls-2" points="0 22.18 -5.5 19 0 15.82 5.5 19 0 22.18"/><polygon class="cls-2" points="0 22.18 -5.5 19 0 15.82 5.5 19 0 22.18"/><polygon class="cls-2" points="16 22.18 10.5 19 16 15.82 21.5 19 16 22.18"/><polygon class="cls-2" points="16 3.18 10.5 0 16 -3.17 21.5 0 16 3.18"/><polygon class="cls-2" points="16 22.18 10.5 19 16 15.82 21.5 19 16 22.18"/><polygon class="cls-2" points="0 22.18 -5.5 19 0 15.82 5.5 19 0 22.18"/><polygon class="cls-2" points="8 12.68 2.5 9.5 8 6.33 13.5 9.5 8 12.68"/><polygon class="cls-2" points="16 3.18 10.5 0 16 -3.17 21.5 0 16 3.18"/><polygon class="cls-2" points="0 3.18 -5.5 0 0 -3.17 5.5 0 0 3.18"/><polygon class="cls-2" points="0 22.18 -5.5 19 0 15.82 5.5 19 0 22.18"/><polygon class="cls-2" points="0 3.18 -5.5 0 0 -3.17 5.5 0 0 3.18"/><polygon class="cls-2" points="16 3.18 10.5 0 16 -3.17 21.5 0 16 3.18"/><polygon class="cls-2" points="16 3.18 10.5 0 16 -3.17 21.5 0 16 3.18"/><polygon class="cls-2" points="0 3.18 -5.5 0 0 -3.17 5.5 0 0 3.18"/><polygon class="cls-2" points="0 3.18 -5.5 0 0 -3.17 5.5 0 0 3.18"/></pattern></defs><g id="Layer_2" data-name="Layer 2"><g id="icons"><g id="apple"><path class="cls-3" d="M55,116.43c-5.82,2.42-20,12.81-20,23.83s12.09,19.82,18.91,28c4.08,3.43,7.78,7.37,12.52,9.86,9.39,5,21.24,5.74,31.6,5.35,10.68-.4,21.3-2.88,30.61-8.47,17.64-10.58,31.6-36.29,14.49-54.25-14.54-15.26-38.32-16.87-57.51-13.72A114.49,114.49,0,0,0,55,116.43Z"/><g id="apple-2" data-name="apple"><path class="cls-4" d="M121.48,54.88C145.14,91.93,107.8,135.17,99,144c0,0,0,0,0,0-8,8-15.95,9.75-32.19,9.75-13.62,0-22.54-2.16-32.9-12.52h0C-41.89,65.45,35.8,19.78,60.68,33.62a20.8,20.8,0,0,0,3.74,1.77c.15,1.88.21,3.74.2,5.53v0A97.33,97.33,0,0,0,62.7,51.87c8.47,4.14,15.26,5.64,24-1.73A58.11,58.11,0,0,0,99.12,34.35,60,60,0,0,1,121.48,54.88Z"/><path class="cls-5" d="M62.7,51.87A97.33,97.33,0,0,1,64.62,41v0a45.36,45.36,0,0,1,1.61-5.18,30.73,30.73,0,0,1,9.22-13.2c8.71-7.36,21.85-11.23,30.32-7.1a54.56,54.56,0,0,1-6.65,18.91A58.11,58.11,0,0,1,86.68,50.14C78,57.51,71.17,56,62.7,51.87Z"/><path class="cls-4" d="M66.22,35.74h0a45.36,45.36,0,0,0-1.61,5.18c0-1.79-.05-3.65-.2-5.53A7.36,7.36,0,0,0,66.22,35.74Z"/><path class="cls-6" d="M66.22,35.74a8,8,0,0,1-1.8-.35,22.26,22.26,0,0,1-3.74-1.77C35.8,19.78-41.89,65.45,33.85,141.24h0c10.36,10.36,19.28,12.52,32.9,12.52C83,153.77,91,152,99,144c0,0,0,0,0,0,8.82-8.84,46.16-52.08,22.5-89.13A60,60,0,0,0,99.12,34.35"/><path class="cls-6" d="M64.62,40.92a47.45,47.45,0,0,1,1.61-5.18,30.88,30.88,0,0,1,9.22-13.2c8.71-7.36,21.85-11.23,30.32-7.1a54.56,54.56,0,0,1-6.65,18.91A58.11,58.11,0,0,1,86.68,50.14C78,57.51,71.17,56,62.7,51.87A97.33,97.33,0,0,1,64.62,41Z"/><path class="cls-6" d="M64.62,41v0c0-1.79-.05-3.64-.2-5.53C63.21,19.62,57,1.5,57,1.5"/><path class="cls-6" d="M62.7,51.87c17.79-20.24,30-27.15,30-27.15"/><path class="cls-6" d="M49,54.81c-4.89-4.09-4.19-9.74,2.12-13.38A19.49,19.49,0,0,1,54.13,40"/></g></g></g></g></svg>