<svg xmlns="http://www.w3.org/2000/svg" xmlns:xlink="http://www.w3.org/1999/xlink" viewBox="0 0 147.04 168.58"><defs><style>.cls-1,.cls-8{fill:none;}.cls-2{fill:#c2c7cc;}.cls-3{fill:url(#New_Pattern_Swatch_2);}.cls-4{fill:#5f646b;}.cls-5{fill:#fff;}.cls-6{fill:#dae0e5;}.cls-7{fill:#969a9e;}.cls-8{stroke:#373a3a;stroke-linecap:round;stroke-linejoin:round;stroke-width:3px;}</style><pattern id="New_Pattern_Swatch_2" data-name="New Pattern Swatch 2" width="16" height="19" patternTransform="translate(-415.38 40.41) scale(0.4)" patternUnits="userSpaceOnUse" viewBox="0 0 16 19"><rect class="cls-1" width="16" height="19"/><polygon class="cls-2" points="16 22.18 10.5 19 16 15.82 21.5 19 16 22.18"/><polygon class="cls-2" points="16 22.18 10.5 19 16 15.82 21.5 19 16 22.18"/><polygon class="cls-2" points="0 22.18 -5.5 19 0 15.82 5.5 19 0 22.18"/><polygon class="cls-2" points="0 22.18 -5.5 19 0 15.82 5.5 19 0 22.18"/><polygon class="cls-2" points="16 22.18 10.5 19 16 15.82 21.5 19 16 22.18"/><polygon class="cls-2" points="16 3.18 10.5 0 16 -3.17 21.5 0 16 3.18"/><polygon class="cls-2" points="16 22.18 10.5 19 16 15.82 21.5 19 16 22.18"/><polygon class="cls-2" points="0 22.18 -5.5 19 0 15.82 5.5 19 0 22.18"/><polygon class="cls-2" points="8 12.68 2.5 9.5 8 6.33 13.5 9.5 8 12.68"/><polygon class="cls-2" points="16 3.18 10.5 0 16 -3.17 21.5 0 16 3.18"/><polygon class="cls-2" points="0 3.18 -5.5 0 0 -3.17 5.5 0 0 3.18"/><polygon class="cls-2" points="0 22.18 -5.5 19 0 15.82 5.5 19 0 22.18"/><polygon class="cls-2" points="0 3.18 -5.5 0 0 -3.17 5.5 0 0 3.18"/><polygon class="cls-2" points="16 3.18 10.5 0 16 -3.17 21.5 0 16 3.18"/><polygon class="cls-2" points="16 3.18 10.5 0 16 -3.17 21.5 0 16 3.18"/><polygon class="cls-2" points="0 3.18 -5.5 0 0 -3.17 5.5 0 0 3.18"/><polygon class="cls-2" points="0 3.18 -5.5 0 0 -3.17 5.5 0 0 3.18"/></pattern></defs><g id="Layer_2" data-name="Layer 2"><g id="icons"><g id="blackboard"><path class="cls-3" d="M147,162.7,62.17,114.59l-33.4,5.88,20.42,11.79c-4.17-.53-8.78-1.37-12.08,1.37a1.16,1.16,0,0,0-.17,1.38c2,4.45,8.19,5.48,12.84,6.38-3.18,2.26-6.3,4.58-9.35,6.84-4.78,3.55-14.59,9.74-13.26,16.42a3,3,0,0,0,2.14,2.14c3.62.68,5.24-1,7.78-3.27,3-2.67,6-5.28,9-7.94a90.94,90.94,0,0,1,13-9.46c4,3.69,8.6,6.76,12.75,10.32,3.75,3.22,7.09,7.65,12,9.12a2.77,2.77,0,0,0,3.37-1.91,15.06,15.06,0,0,0-2-10.6l28.44,15.53Z"/><g id="blackboard-2" data-name="blackboard"><polygon class="cls-4" points="106.13 52.25 106.13 130.32 98.89 134.5 98.89 56.43 106.13 52.25"/><polygon class="cls-2" points="106.13 52.25 98.89 56.43 10.98 5.68 18.22 1.5 106.13 52.25"/><path class="cls-5" d="M29.85,58.08l12.59,7.27L36.15,47.13Zm69-1.65V134.5L11,83.73V5.68ZM63.54,79.31c0-5-2.44-8.17-5.11-9.71l-2.21-1.29c1.92,1.12,3.67.84,3.67-2.74a7.75,7.75,0,0,0-3.67-7l-5.72-3.3V78.54l7.93,4.59C61.1,84.67,63.54,84.28,63.54,79.31Z"/><polygon class="cls-6" points="98.89 134.5 89.41 139.97 1.5 89.22 10.98 83.73 98.89 134.5"/><polygon class="cls-5" points="76.33 132.42 58.97 133.26 58.97 122.4 76.33 132.42"/><path class="cls-5" d="M58.43,69.6c2.67,1.54,5.11,4.74,5.11,9.71s-2.44,5.36-5.11,3.82L50.5,78.54V65Z"/><path class="cls-5" d="M56.22,58.58a7.75,7.75,0,0,1,3.67,7c0,3.58-1.75,3.86-3.67,2.74L50.5,65V55.28Z"/><path class="cls-7" d="M59,133.26v1.92a2,2,0,0,1-1.07,1.57l-.11.08a6.38,6.38,0,0,1-5.71,0,2,2,0,0,1-1.18-1.65V117.74L59,122.4Z"/><polygon class="cls-5" points="42.44 65.35 29.85 58.08 36.15 47.13 42.44 65.35"/><polyline class="cls-8" points="26.16 64.5 36.15 47.13 46.12 76.02"/><line class="cls-8" x1="29.85" y1="58.08" x2="42.44" y2="65.35"/><line class="cls-8" x1="50.5" y1="55.28" x2="50.5" y2="78.54"/><path class="cls-8" d="M50.5,55.28l5.72,3.3a7.75,7.75,0,0,1,3.67,7c0,3.58-1.75,3.86-3.67,2.74L50.5,65"/><path class="cls-8" d="M56.22,68.31l2.21,1.29c2.67,1.54,5.11,4.74,5.11,9.71s-2.44,5.36-5.11,3.82L50.5,78.54"/><path class="cls-8" d="M81.6,73.3l-3.09-1.78c-5.54-3.21-10-.61-10,5.8a22.28,22.28,0,0,0,10,17.4l3.09,1.79"/><polyline class="cls-8" points="10.98 5.68 18.22 1.5 106.13 52.25 106.13 130.32 98.89 134.5"/><polygon class="cls-8" points="98.89 134.5 10.98 83.73 10.98 5.68 98.89 56.43 98.89 134.5"/><polyline class="cls-8" points="10.98 83.73 1.5 89.22 89.41 139.97 98.89 134.5"/><line class="cls-8" x1="98.89" y1="56.43" x2="106.13" y2="52.25"/><path class="cls-8" d="M59,122.4v12.78a2,2,0,0,1-1.07,1.57l-.11.08a6.38,6.38,0,0,1-5.71,0,2,2,0,0,1-1.18-1.65V117.74"/><line class="cls-8" x1="57.9" y1="136.75" x2="84.03" y2="165.64"/><line class="cls-8" x1="25.83" y1="165.64" x2="51.96" y2="136.75"/><line class="cls-8" x1="50.9" y1="133.26" x2="25.83" y2="132.04"/><line class="cls-8" x1="58.97" y1="133.26" x2="76.33" y2="132.42"/></g></g></g></g></svg>