<svg xmlns="http://www.w3.org/2000/svg" xmlns:xlink="http://www.w3.org/1999/xlink" viewBox="0 0 176 179.91"><defs><style>.cls-1,.cls-7{fill:none;}.cls-2{fill:#c2c7cc;}.cls-3{fill:url(#New_Pattern_Swatch_2);}.cls-4{fill:#5f646b;}.cls-5{fill:#dae0e5;}.cls-6{fill:#fff;}.cls-7{stroke:#373a3a;stroke-linecap:round;stroke-linejoin:round;stroke-width:3px;}</style><pattern id="New_Pattern_Swatch_2" data-name="New Pattern Swatch 2" width="16" height="19" patternTransform="translate(-415.38 40.41) scale(0.4)" patternUnits="userSpaceOnUse" viewBox="0 0 16 19"><rect class="cls-1" width="16" height="19"/><polygon class="cls-2" points="16 22.18 10.5 19 16 15.82 21.5 19 16 22.18"/><polygon class="cls-2" points="16 22.18 10.5 19 16 15.82 21.5 19 16 22.18"/><polygon class="cls-2" points="0 22.18 -5.5 19 0 15.82 5.5 19 0 22.18"/><polygon class="cls-2" points="0 22.18 -5.5 19 0 15.82 5.5 19 0 22.18"/><polygon class="cls-2" points="16 22.18 10.5 19 16 15.82 21.5 19 16 22.18"/><polygon class="cls-2" points="16 3.18 10.5 0 16 -3.17 21.5 0 16 3.18"/><polygon class="cls-2" points="16 22.18 10.5 19 16 15.82 21.5 19 16 22.18"/><polygon class="cls-2" points="0 22.18 -5.5 19 0 15.82 5.5 19 0 22.18"/><polygon class="cls-2" points="8 12.68 2.5 9.5 8 6.33 13.5 9.5 8 12.68"/><polygon class="cls-2" points="16 3.18 10.5 0 16 -3.17 21.5 0 16 3.18"/><polygon class="cls-2" points="0 3.18 -5.5 0 0 -3.17 5.5 0 0 3.18"/><polygon class="cls-2" points="0 22.18 -5.5 19 0 15.82 5.5 19 0 22.18"/><polygon class="cls-2" points="0 3.18 -5.5 0 0 -3.17 5.5 0 0 3.18"/><polygon class="cls-2" points="16 3.18 10.5 0 16 -3.17 21.5 0 16 3.18"/><polygon class="cls-2" points="16 3.18 10.5 0 16 -3.17 21.5 0 16 3.18"/><polygon class="cls-2" points="0 3.18 -5.5 0 0 -3.17 5.5 0 0 3.18"/><polygon class="cls-2" points="0 3.18 -5.5 0 0 -3.17 5.5 0 0 3.18"/></pattern></defs><g id="Layer_2" data-name="Layer 2"><g id="icons"><g id="book_in_row" data-name="book in row"><path class="cls-3" d="M170.93,142.87c1.57-1.62,5.07-4.28,5.07-6.89,0-4.51-46.53-30.79-53-37.27-8,0-13.53,5.64-18,11.57-3.49,4.62-7.06,9.34-11.72,12.86s-9.84,5.91-14.81,8.66c-8.8,4.87-21.85,12.79-23.72,23.79-3.05.66-4.69,4.06-3.25,7.25a27.92,27.92,0,0,0,9.19,10.93A7.48,7.48,0,0,0,68.53,178a28.35,28.35,0,0,0,16.9,1.17,23.93,23.93,0,0,0,9.25-4.79,34.26,34.26,0,0,1,3-2.7c.25-.15.27-.24.19-.29,2.7-.15,5.59,1.23,8.42,1a16.44,16.44,0,0,0,11.2-5.71c1.72-1.85,3-3.87,5.37-5,2.12-.95,4.24-.58,6.49-.75a14.67,14.67,0,0,0,10.17-4.53c2-2.18,2.75-5.3,5.3-6.89a7.93,7.93,0,0,1,2.35-1c.53-.07,1-.16,1.57-.26,3.9-.32,8.22,1.26,12.09.53A17.07,17.07,0,0,0,170.93,142.87Z"/><g id="book_in_row-2" data-name="book in row"><path class="cls-4" d="M136.46,39.13v95.72l-10.43-6c.94-.05,1.84-.05,2.73,0V43.12L76.54,13c-6.93-4-17.43-4.44-23.43-1A8.89,8.89,0,0,0,50,14.74h0a7.52,7.52,0,0,1-1.7-4.53c0-2.35,1.38-4.59,4.23-6.23C58.9.31,70,.77,77.34,5Z"/><path class="cls-5" d="M128.76,43.12v85.7c-.89,0-1.79,0-2.73,0a27.85,27.85,0,0,0-13,3.74h-.18V52.11l-3.05-1.76C114.3,45.28,121.89,42.8,128.76,43.12Z"/><path class="cls-6" d="M128.76,43.12c-6.87-.32-14.46,2.16-18.91,7.23-12-6.93-56.62-32.67-56.9-32.82A12.89,12.89,0,0,1,50,14.74h0A8.89,8.89,0,0,1,53.11,12c6-3.47,16.5-3,23.43,1Z"/><path class="cls-4" d="M112.9,132.57v15.27l-10.43-6a22.64,22.64,0,0,1,2.73,0V56.1L53,26c-6.93-4-17.43-4.45-23.44-1a9.11,9.11,0,0,0-3.08,2.76l-.11.08a7.65,7.65,0,0,1-1.66-4.24v-.4c0-2.34,1.46-4.57,4.3-6.21,4.89-2.83,12.62-3.21,19.26-1.29A26.14,26.14,0,0,1,53,17.53l.84.46L112.9,52.11Z"/><path class="cls-5" d="M105.2,56.1v85.7a24.91,24.91,0,0,0-2.73,0,28.4,28.4,0,0,0-12.77,3.63V65.57l-3.56-2.06h0C90.58,58.31,98.27,55.77,105.2,56.1Z"/><path class="cls-6" d="M105.2,56.1c-6.93-.33-14.62,2.21-19,7.4h0L30.46,31.38l-.08-.07a14.11,14.11,0,0,1-4-3.5l.11-.08A9.11,9.11,0,0,1,29.54,25c6-3.47,16.51-3,23.44,1Z"/><path class="cls-4" d="M89.7,145.44v15.84l-10.42-6c.93-.05,1.84-.05,2.72,0V69.56L29.79,39.4c-6.94-4-17.44-4.44-23.45-1a9,9,0,0,0-3.07,2.73A7.27,7.27,0,0,1,1.5,36.63c0-2.33,1.4-4.56,4.28-6.21,4.82-2.79,12.35-3.2,18.91-1.38a24.16,24.16,0,0,1,5.69,2.27l.08.07.69.39c5.09,2.86,58.55,33.8,58.55,33.8Z"/><path class="cls-5" d="M79.28,155.27a28.11,28.11,0,0,0-12.6,3.52V78.86l-3.59-2.07c4.45-5.07,12.06-7.57,18.91-7.23v85.7C81.12,155.22,80.21,155.22,79.28,155.27Z"/><path class="cls-6" d="M82,69.56c-6.85-.34-14.46,2.16-18.91,7.23L7.56,44.73a15,15,0,0,1-4.29-3.54v0a9,9,0,0,1,3.07-2.73c6-3.48,16.51-3,23.45,1Z"/><path class="cls-6" d="M66.68,158.79v15.78L7.56,140.44c-4-2.32-6.06-5.28-6.06-8.1V36.63a7.27,7.27,0,0,0,1.77,4.54v0a15,15,0,0,0,4.29,3.54L66.68,78.86Zm-22-56.42c2.48,0,4.2-2.29,4.2-6.12,0-5.14-3.11-11.12-7-13.34L20.31,70.41a5.68,5.68,0,0,0-2.78-.83c-2.47,0-4.2,2.29-4.2,6.11,0,5.14,3.13,11.12,7,13.35L42,101.52A5.59,5.59,0,0,0,44.73,102.37Z"/><path class="cls-6" d="M50,14.74A12.89,12.89,0,0,0,53,17.53a26.14,26.14,0,0,0-4.7-1.86V10.21h.07A7.52,7.52,0,0,0,50,14.74Z"/><path class="cls-2" d="M48.93,96.25c0,3.83-1.72,6.12-4.2,6.12a5.59,5.59,0,0,1-2.77-.85L20.31,89c-3.85-2.23-7-8.21-7-13.35,0-3.82,1.73-6.11,4.2-6.11a5.68,5.68,0,0,1,2.78.83L42,82.91C45.82,85.13,48.93,91.11,48.93,96.25Z"/><path class="cls-6" d="M26.35,27.81a14.11,14.11,0,0,0,4,3.5A24.16,24.16,0,0,0,24.69,29V23.57A7.65,7.65,0,0,0,26.35,27.81Z"/><path class="cls-6" d="M24.69,23.17v.4A2.67,2.67,0,0,1,24.69,23.17Z"/><path class="cls-7" d="M3.27,41.19a15,15,0,0,0,4.29,3.54L66.68,78.86v95.71L7.56,140.44c-4-2.32-6.06-5.28-6.06-8.1V36.63"/><path class="cls-7" d="M30.38,31.31A24.77,24.77,0,0,0,24.69,29c-6.57-1.79-14.09-1.41-18.91,1.38C2.9,32.07,1.5,34.3,1.5,36.63a7.27,7.27,0,0,0,1.77,4.54"/><polyline class="cls-7" points="79.27 155.26 79.28 155.27 89.7 161.28 89.7 65.57 31.15 31.77"/><path class="cls-7" d="M3.27,41.19v0a9,9,0,0,1,3.07-2.73c6-3.48,16.51-3,23.45,1L82,69.56c-6.85-.34-14.46,2.16-18.91,7.23"/><path class="cls-7" d="M82,69.56v85.7c-.88,0-1.79,0-2.72,0a28.11,28.11,0,0,0-12.6,3.52"/><path class="cls-7" d="M42,101.52,20.31,89c-3.85-2.23-7-8.21-7-13.35,0-3.82,1.73-6.11,4.2-6.11a5.68,5.68,0,0,1,2.78.83L42,82.91c3.86,2.22,7,8.2,7,13.34,0,3.83-1.72,6.12-4.2,6.12A5.59,5.59,0,0,1,42,101.52Z"/><path class="cls-7" d="M102.47,141.81l10.43,6V52.11S53.23,17.68,53,17.53a26.14,26.14,0,0,0-4.7-1.86C41.61,13.75,33.88,14.13,29,17c-2.84,1.64-4.26,3.87-4.3,6.21a2.67,2.67,0,0,0,0,.4,7.84,7.84,0,0,0,1.66,4.24,14.11,14.11,0,0,0,4,3.5l.08.07.69.39"/><line class="cls-7" x1="24.69" y1="29.02" x2="24.69" y2="23.17"/><path class="cls-7" d="M26.46,27.73A9.11,9.11,0,0,1,29.54,25c6-3.47,16.51-3,23.44,1L105.2,56.1c-6.93-.33-14.62,2.21-19,7.4"/><path class="cls-7" d="M105.2,56.1v85.7a24.91,24.91,0,0,0-2.73,0,28.4,28.4,0,0,0-12.77,3.63"/><path class="cls-7" d="M126,128.83l10.43,6V39.13L77.34,5C70,.77,58.9.31,52.55,4c-2.85,1.64-4.23,3.88-4.23,6.23A7.54,7.54,0,0,0,50,14.74,13.33,13.33,0,0,0,53,17.53"/><line class="cls-7" x1="48.25" y1="15.67" x2="48.25" y2="10.2"/><path class="cls-7" d="M50,14.74A8.89,8.89,0,0,1,53.11,12c6-3.47,16.5-3,23.43,1l52.22,30.15c-6.87-.32-14.46,2.16-18.91,7.23"/><path class="cls-7" d="M128.76,43.12v85.7c-.89,0-1.79,0-2.73,0a27.85,27.85,0,0,0-13,3.74"/></g></g></g></g></svg>