<svg xmlns="http://www.w3.org/2000/svg" xmlns:xlink="http://www.w3.org/1999/xlink" viewBox="0 0 181.94 175.04"><defs><style>.cls-1,.cls-7{fill:none;}.cls-2{fill:#c2c7cc;}.cls-3{fill:url(#New_Pattern_Swatch_2);}.cls-4{fill:#373a3a;}.cls-5{fill:#fff;}.cls-6{fill:#5f646b;}.cls-7{stroke:#373a3a;stroke-linecap:round;stroke-linejoin:round;stroke-width:3px;}</style><pattern id="New_Pattern_Swatch_2" data-name="New Pattern Swatch 2" width="16" height="19" patternTransform="translate(-415.38 40.41) scale(0.4)" patternUnits="userSpaceOnUse" viewBox="0 0 16 19"><rect class="cls-1" width="16" height="19"/><polygon class="cls-2" points="16 22.18 10.5 19 16 15.82 21.5 19 16 22.18"/><polygon class="cls-2" points="16 22.18 10.5 19 16 15.82 21.5 19 16 22.18"/><polygon class="cls-2" points="0 22.18 -5.5 19 0 15.82 5.5 19 0 22.18"/><polygon class="cls-2" points="0 22.18 -5.5 19 0 15.82 5.5 19 0 22.18"/><polygon class="cls-2" points="16 22.18 10.5 19 16 15.82 21.5 19 16 22.18"/><polygon class="cls-2" points="16 3.18 10.5 0 16 -3.17 21.5 0 16 3.18"/><polygon class="cls-2" points="16 22.18 10.5 19 16 15.82 21.5 19 16 22.18"/><polygon class="cls-2" points="0 22.18 -5.5 19 0 15.82 5.5 19 0 22.18"/><polygon class="cls-2" points="8 12.68 2.5 9.5 8 6.33 13.5 9.5 8 12.68"/><polygon class="cls-2" points="16 3.18 10.5 0 16 -3.17 21.5 0 16 3.18"/><polygon class="cls-2" points="0 3.18 -5.5 0 0 -3.17 5.5 0 0 3.18"/><polygon class="cls-2" points="0 22.18 -5.5 19 0 15.82 5.5 19 0 22.18"/><polygon class="cls-2" points="0 3.18 -5.5 0 0 -3.17 5.5 0 0 3.18"/><polygon class="cls-2" points="16 3.18 10.5 0 16 -3.17 21.5 0 16 3.18"/><polygon class="cls-2" points="16 3.18 10.5 0 16 -3.17 21.5 0 16 3.18"/><polygon class="cls-2" points="0 3.18 -5.5 0 0 -3.17 5.5 0 0 3.18"/><polygon class="cls-2" points="0 3.18 -5.5 0 0 -3.17 5.5 0 0 3.18"/></pattern></defs><g id="Layer_2" data-name="Layer 2"><g id="icons"><g id="books_in_row" data-name="books in row"><path class="cls-3" d="M177.72,139.23c-6.07-6.79-16.19-10.79-24.68-13.38-6.85-2.08-11.9,3.88-11.82,9.68a11.81,11.81,0,0,0-2.36-.43c-3.43-.51-7.52.31-9.9,2.91-5.81-1.26-10.34,4.87-10,10.22-2.48-1-5.32-1.82-7.46-.83a8.36,8.36,0,0,0-5-2.58,11.58,11.58,0,0,0-6.74-6.12,14.33,14.33,0,0,0-6.52-.65c-2-4.14-7-6.91-11.65-3.77a50.6,50.6,0,0,0-11.13,9.92,11,11,0,0,0-1.33,2.05c-3.32,3.3-5.88,6.08-6.11,11.06a7.15,7.15,0,0,0,3,6.18,20.56,20.56,0,0,0-4.92,1.83c-2.65,1.41-2.8,5.85,0,7.21,8.55,4.19,20,2,29.22,1.33,9.86-.75,19.67-1.78,29.49-2.86a8.84,8.84,0,0,0,5.65-2.62,29.85,29.85,0,0,0,10.67,1.13A14.71,14.71,0,0,0,144,166.4l.71.16c5.08.89,10.39.44,15.52.23,4.59-.18,9.3-.56,13.37-2.91C182.73,158.62,184.75,147.11,177.72,139.23Z"/><g id="books_in_row-2" data-name="books in row"><path class="cls-2" d="M156.48,44.31a5.34,5.34,0,0,0,2-3.91V56.85c0,1.86-1.22,3.71-3.68,5.13a19.33,19.33,0,0,1-12,1.88v10.4a19.46,19.46,0,0,0,12-1.88c2.46-1.43,3.68-3.29,3.68-5.14v70.52c0,1.85-1.22,3.71-3.68,5.13-4.91,2.83-12.86,2.83-17.76,0l-8.22-4.74V53.29c.16-2-1.06-4-3.67-5.48L78.55,20.92V11.76L137,45.53c4.9,2.83,12.86,2.83,17.76,0A10.32,10.32,0,0,0,156.48,44.31Z"/><path class="cls-4" d="M158.47,56.85V67.24c0,1.85-1.22,3.71-3.68,5.14a19.46,19.46,0,0,1-12,1.88V63.86a19.33,19.33,0,0,0,12-1.88C157.25,60.56,158.47,58.71,158.47,56.85Z"/><path class="cls-4" d="M158.47,40.4a5.33,5.33,0,0,1-2,3.91L98.62,10.9a9.49,9.49,0,0,1-2.32,6.49V1.5l58.49,33.77C157.24,36.68,158.47,38.54,158.47,40.4Z"/><path class="cls-5" d="M98.62,10.9l57.86,33.41a10.32,10.32,0,0,1-1.69,1.21c-4.9,2.84-12.86,2.84-17.76,0L93.22,20.23a13.94,13.94,0,0,0,3.08-2.84A9.49,9.49,0,0,0,98.62,10.9Z"/><path class="cls-4" d="M128.81,53.29a5.45,5.45,0,0,1-2,3.56L66.34,21.93A9.47,9.47,0,0,1,64,28.42V12.53l61.12,35.28C127.75,49.31,129,51.31,128.81,53.29Z"/><path class="cls-5" d="M128.81,138.15v8.12c0,1.85-1.22,3.71-3.67,5.12-4.9,2.83-12.86,2.83-17.76,0L80.46,135.86c9-20.08,19.08-42.94,22.6-50.72a3.39,3.39,0,0,0,.28-1.2,3.46,3.46,0,0,0-1.7-3.13L50.43,51.33l-2.15,4.49-2-1.15V22.78l61.11,35.28c4.9,2.84,12.84,2.81,17.76,0a9.76,9.76,0,0,0,1.69-1.21,5.49,5.49,0,0,0,2-3.56V75c0,1.86-1.22,3.72-3.67,5.13a19.42,19.42,0,0,1-12,1.89V112.6a19.35,19.35,0,0,0,12-1.89c2.45-1.41,3.67-3.27,3.67-5.12Z"/><path class="cls-6" d="M128.81,75v30.55c0,1.85-1.22,3.71-3.67,5.12a19.35,19.35,0,0,1-12,1.89V82.06a19.42,19.42,0,0,0,12-1.89C127.59,78.76,128.81,76.9,128.81,75Z"/><path class="cls-5" d="M66.34,21.93l60.49,34.92a9.76,9.76,0,0,1-1.69,1.21c-4.92,2.81-12.86,2.84-17.76,0L60.94,31.25A13.91,13.91,0,0,0,64,28.42,9.47,9.47,0,0,0,66.34,21.93Z"/><path class="cls-4" d="M101.64,80.81a3.42,3.42,0,0,1,1.7,3.13c-1.12,1.21-3.07,1.58-7.23-.63h0l0-.06L48.28,55.82l2.15-4.49Z"/><path class="cls-6" d="M103.34,83.94a3.19,3.19,0,0,1-.28,1.2c-3.52,7.78-13.63,30.64-22.6,50.72-8,18-15.15,33.88-15.58,34.58-1,1.65-2.88,2.55-7.71,0L96.07,83.3h0C100.27,85.52,102.22,85.15,103.34,83.94Z"/><polygon class="cls-5" points="96.11 83.24 57.17 170.44 1.5 138.53 40.45 51.33 96.11 83.24"/><path class="cls-4" d="M24,151.44l10.28,5.9a28.7,28.7,0,0,1-7.35,6l-11.56,6.69-1.15-5.36-9.21-.62L17,157.19A28.79,28.79,0,0,0,24,151.44Z"/><path class="cls-7" d="M80.46,135.86l26.92,15.53c4.9,2.83,12.86,2.83,17.76,0,2.45-1.41,3.67-3.27,3.67-5.12V52.94"/><path class="cls-7" d="M60.94,31.25A14.14,14.14,0,0,0,64,28.42a9.47,9.47,0,0,0,2.32-6.49l60.49,34.92"/><path class="cls-7" d="M96.3,17.39V1.5l58.49,33.77c2.45,1.41,3.68,3.27,3.68,5.13a5.34,5.34,0,0,1-2,3.91,10.32,10.32,0,0,1-1.69,1.21c-4.9,2.84-12.86,2.84-17.76,0L78.55,11.76v9.15"/><path class="cls-7" d="M128.81,138.15l8.22,4.74c4.9,2.83,12.85,2.83,17.76,0,2.46-1.42,3.68-3.28,3.68-5.13V40.4"/><path class="cls-7" d="M93.22,20.23a13.94,13.94,0,0,0,3.08-2.84,9.53,9.53,0,0,0,2.32-6.49l57.86,33.41h0"/><path class="cls-7" d="M128.81,75c0,1.86-1.22,3.72-3.67,5.13a19.42,19.42,0,0,1-12,1.89V112.6a19.35,19.35,0,0,0,12-1.89c2.45-1.41,3.67-3.27,3.67-5.12"/><path class="cls-7" d="M158.47,56.85c0,1.86-1.22,3.71-3.68,5.13a19.33,19.33,0,0,1-12,1.88v10.4a19.46,19.46,0,0,0,12-1.88c2.46-1.43,3.68-3.29,3.68-5.14"/><polygon class="cls-7" points="57.17 170.44 1.5 138.53 40.45 51.33 96.11 83.24 57.17 170.44"/><path class="cls-7" d="M57.17,170.44c4.83,2.55,6.68,1.65,7.71,0,.43-.7,7.53-16.53,15.58-34.58,9-20.09,19.08-42.94,22.6-50.72a3.39,3.39,0,0,0,.28-1.2,3.46,3.46,0,0,0-1.7-3.13L50.43,51.33l-2.15,4.49"/><path class="cls-7" d="M46.27,54.67V22.78l61.11,35.28c4.9,2.84,12.84,2.81,17.76,0a9.76,9.76,0,0,0,1.69-1.21,5.49,5.49,0,0,0,2-3.56c.16-2-1.06-4-3.67-5.48L64,12.53V28.42"/><path class="cls-7" d="M96.11,83.31c4.16,2.21,6.11,1.84,7.23.63"/><path class="cls-7" d="M24,151.44A28.79,28.79,0,0,1,17,157.19L5.05,164.08l9.21.62,1.15,5.36L27,163.37a28.7,28.7,0,0,0,7.35-6"/></g></g></g></g></svg>