<svg xmlns="http://www.w3.org/2000/svg" xmlns:xlink="http://www.w3.org/1999/xlink" viewBox="0 0 152.72 187.68"><defs><style>.cls-1,.cls-8{fill:none;}.cls-2{fill:#c2c7cc;}.cls-3{fill:url(#New_Pattern_Swatch_2);}.cls-4{fill:#5f646b;}.cls-5{fill:#dae0e5;}.cls-6{fill:#fff;}.cls-7{fill:#969a9e;}.cls-8{stroke:#373a3a;stroke-linecap:round;stroke-linejoin:round;stroke-width:3px;}</style><pattern id="New_Pattern_Swatch_2" data-name="New Pattern Swatch 2" width="16" height="19" patternTransform="translate(-415.38 40.41) scale(0.4)" patternUnits="userSpaceOnUse" viewBox="0 0 16 19"><rect class="cls-1" width="16" height="19"/><polygon class="cls-2" points="16 22.18 10.5 19 16 15.82 21.5 19 16 22.18"/><polygon class="cls-2" points="16 22.18 10.5 19 16 15.82 21.5 19 16 22.18"/><polygon class="cls-2" points="0 22.18 -5.5 19 0 15.82 5.5 19 0 22.18"/><polygon class="cls-2" points="0 22.18 -5.5 19 0 15.82 5.5 19 0 22.18"/><polygon class="cls-2" points="16 22.18 10.5 19 16 15.82 21.5 19 16 22.18"/><polygon class="cls-2" points="16 3.18 10.5 0 16 -3.17 21.5 0 16 3.18"/><polygon class="cls-2" points="16 22.18 10.5 19 16 15.82 21.5 19 16 22.18"/><polygon class="cls-2" points="0 22.18 -5.5 19 0 15.82 5.5 19 0 22.18"/><polygon class="cls-2" points="8 12.68 2.5 9.5 8 6.33 13.5 9.5 8 12.68"/><polygon class="cls-2" points="16 3.18 10.5 0 16 -3.17 21.5 0 16 3.18"/><polygon class="cls-2" points="0 3.18 -5.5 0 0 -3.17 5.5 0 0 3.18"/><polygon class="cls-2" points="0 22.18 -5.5 19 0 15.82 5.5 19 0 22.18"/><polygon class="cls-2" points="0 3.18 -5.5 0 0 -3.17 5.5 0 0 3.18"/><polygon class="cls-2" points="16 3.18 10.5 0 16 -3.17 21.5 0 16 3.18"/><polygon class="cls-2" points="16 3.18 10.5 0 16 -3.17 21.5 0 16 3.18"/><polygon class="cls-2" points="0 3.18 -5.5 0 0 -3.17 5.5 0 0 3.18"/><polygon class="cls-2" points="0 3.18 -5.5 0 0 -3.17 5.5 0 0 3.18"/></pattern></defs><g id="Layer_2" data-name="Layer 2"><g id="icons"><g id="book"><path class="cls-3" d="M37,154.83c41.61,13.46-5.33,20.42,75.29,30.15,3.91.47,9.61,2.7,14.1,2.7,7.45,0,20.58-10.38,26.3-15.12-1.22-7.45-4.73-4.15-54.38-37q-14.49-7.26-29.49-13.5Q54.14,115.95,39,110.88c-8.62-2.87-19.44-6.64-27,.76a14.16,14.16,0,0,0-4.33,11.41c-1.26,1.59-1.64,3.83-.18,6.52C13.57,140.83,24.45,151.52,37,154.83Z"/><g id="book-2" data-name="book"><path class="cls-4" d="M125.11,68.45V171.32l-6.24-3.6-.06-.12.06,0V71.05L67.81,41.57c2.81-1.67,2.8-4.35-.07-6a11.54,11.54,0,0,0-10.37,0L10.88,8.69,9.13,9.91V1.5L58.74,30.13c10.57-3.07,22.79,3.08,16.76,9.68Z"/><polygon class="cls-5" points="118.87 71.05 118.87 167.57 118.81 167.6 107.6 172.98 107.6 76.46 118.87 71.05"/><path class="cls-6" d="M118.87,71.05,107.6,76.46c-41-9.21-51.06-31.78-51.06-31.78s-39.09-5.8-55-29.48l9.38-6.51L57.37,35.53a11.54,11.54,0,0,1,10.37,0c2.87,1.64,2.88,4.32.07,6Z"/><path class="cls-6" d="M107.6,76.46V173a114.78,114.78,0,0,1-18-5.57,85.89,85.89,0,0,1-14-7.14c-14.65-9.3-19-19.07-19-19.07V44.68S66.58,67.25,107.6,76.46Z"/><path class="cls-7" d="M89.55,167.41V186l-7.07-8.08H75.54V160.27A85.89,85.89,0,0,0,89.55,167.41Z"/><path class="cls-6" d="M56.54,44.68V141.2s-39.09-5.8-55-29.47V15.2C17.45,38.88,56.54,44.68,56.54,44.68Z"/><path class="cls-8" d="M9.13,9.91V1.5L58.74,30.13c10.57-3.07,22.79,3.08,16.76,9.68l49.61,28.64V171.32l-6.24-3.6"/><polyline class="cls-8" points="89.55 167.41 89.55 186.02 82.48 177.94 75.54 177.94 75.54 160.27"/><path class="cls-8" d="M11.49,46.69c8.92,7.23,19.87,11.88,28.74,14.74"/><path class="cls-8" d="M11.49,59.22C20.41,66.45,31.36,71.1,40.23,74"/><path class="cls-8" d="M11.49,71.75C20.41,79,31.36,83.63,40.23,86.49"/><path class="cls-8" d="M11.49,84.28C20.41,91.51,31.36,96.16,40.23,99"/><path class="cls-8" d="M11.49,96.81c8.92,7.23,19.87,11.88,28.74,14.74"/><path class="cls-8" d="M66.28,77c5.15,5,13.54,11.11,26.7,15.65"/><path class="cls-8" d="M66.28,89.42c5.15,5,13.54,11.12,26.7,15.65"/><path class="cls-8" d="M66.28,101.81c5.15,5,13.54,11.12,26.7,15.65"/><path class="cls-8" d="M66.28,114.2c5.15,5,13.54,11.11,26.7,15.66"/><path class="cls-8" d="M66.28,126.6c5.15,5,13.54,11.1,26.7,15.65"/><line class="cls-8" x1="107.6" y1="172.98" x2="107.6" y2="76.46"/><line class="cls-8" x1="56.54" y1="44.68" x2="56.54" y2="141.2"/><path class="cls-8" d="M1.5,15.2v96.53c16,23.67,55,29.47,55,29.47s4.35,9.77,19,19.07a86.69,86.69,0,0,0,14,7.14,114.78,114.78,0,0,0,18,5.57l11.21-5.38.06,0V71.05L67.81,41.57c2.81-1.67,2.8-4.35-.07-6a11.54,11.54,0,0,0-10.37,0L10.88,8.69,1.5,15.2c16,23.68,55,29.48,55,29.48s10,22.57,51.06,31.78l11.27-5.41"/></g></g></g></g></svg>