<svg xmlns="http://www.w3.org/2000/svg" xmlns:xlink="http://www.w3.org/1999/xlink" viewBox="0 0 201.3 136.98"><defs><style>.cls-1,.cls-8{fill:none;}.cls-2{fill:#c2c7cc;}.cls-3{fill:url(#New_Pattern_Swatch_2);}.cls-4{fill:#fff;}.cls-5{fill:#373a3a;}.cls-6{fill:#dae0e5;}.cls-7{fill:#5f646b;}.cls-8{stroke:#373a3a;stroke-linecap:round;stroke-linejoin:round;stroke-width:3px;}</style><pattern id="New_Pattern_Swatch_2" data-name="New Pattern Swatch 2" width="16" height="19" patternTransform="translate(-415.38 40.41) scale(0.4)" patternUnits="userSpaceOnUse" viewBox="0 0 16 19"><rect class="cls-1" width="16" height="19"/><polygon class="cls-2" points="16 22.18 10.5 19 16 15.82 21.5 19 16 22.18"/><polygon class="cls-2" points="16 22.18 10.5 19 16 15.82 21.5 19 16 22.18"/><polygon class="cls-2" points="0 22.18 -5.5 19 0 15.82 5.5 19 0 22.18"/><polygon class="cls-2" points="0 22.18 -5.5 19 0 15.82 5.5 19 0 22.18"/><polygon class="cls-2" points="16 22.18 10.5 19 16 15.82 21.5 19 16 22.18"/><polygon class="cls-2" points="16 3.18 10.5 0 16 -3.17 21.5 0 16 3.18"/><polygon class="cls-2" points="16 22.18 10.5 19 16 15.82 21.5 19 16 22.18"/><polygon class="cls-2" points="0 22.18 -5.5 19 0 15.82 5.5 19 0 22.18"/><polygon class="cls-2" points="8 12.68 2.5 9.5 8 6.33 13.5 9.5 8 12.68"/><polygon class="cls-2" points="16 3.18 10.5 0 16 -3.17 21.5 0 16 3.18"/><polygon class="cls-2" points="0 3.18 -5.5 0 0 -3.17 5.5 0 0 3.18"/><polygon class="cls-2" points="0 22.18 -5.5 19 0 15.82 5.5 19 0 22.18"/><polygon class="cls-2" points="0 3.18 -5.5 0 0 -3.17 5.5 0 0 3.18"/><polygon class="cls-2" points="16 3.18 10.5 0 16 -3.17 21.5 0 16 3.18"/><polygon class="cls-2" points="16 3.18 10.5 0 16 -3.17 21.5 0 16 3.18"/><polygon class="cls-2" points="0 3.18 -5.5 0 0 -3.17 5.5 0 0 3.18"/><polygon class="cls-2" points="0 3.18 -5.5 0 0 -3.17 5.5 0 0 3.18"/></pattern></defs><g id="Layer_2" data-name="Layer 2"><g id="icons"><g id="book"><path class="cls-3" d="M198.47,63.31c-4.21-5.6-11.75-8.73-17.65-12.2-7.87-4.64-19.4,5.19-13.34,13.34.44.61,1.48,2.22,2.63,3.74-1,.75-2,1.57-2.57,1.9-6.26,3.82-14.62,6.8-19.62,12.2A9.84,9.84,0,0,0,146.21,92c-4.76,2.38-9.55,4.68-14.35,7-9.4,4.46-18.84,8.87-28,13.8-4.55,2.44-8.92,5.17-13.49,7.56-4.77,2.5-10.32,8.49-5.2,13.76,5.78,5.95,14.16,1.27,20.24-1.77s12-6.33,18.1-9.29c12.41-6,25.07-11.48,37.36-17.75,12.13-6.19,23.89-13.26,34.36-22C201.39,78.1,203.56,70.06,198.47,63.31Z"/><g id="book-2" data-name="book"><path class="cls-2" d="M183,66.51c0,4.17-1.38,7.09-3.55,8.34L145.62,94.39c2.2-1.27,3.58-4.19,3.58-8.35,0-7.59-4.62-16.41-10.32-19.7l33.83-19.52C178.4,50.11,183,58.93,183,66.51Z"/><polygon class="cls-4" points="172.71 46.82 80 100.34 1.5 55.02 94.21 1.5 172.71 46.82"/><path class="cls-5" d="M149.2,86c0,4.16-1.38,7.08-3.58,8.35l-7.51,4.33c2.19-1.25,3.57-4.19,3.57-8.34,0-7.6-4.62-16.41-10.31-19.7l7.51-4.34C144.58,69.63,149.2,78.45,149.2,86Z"/><path class="cls-2" d="M141.68,90.38c0,4.15-1.38,7.09-3.57,8.34l-15,8.68c2.19-1.26,3.57-4.19,3.57-8.34,0-7.6-4.62-16.41-10.32-19.7l15-8.68C137.06,74,141.68,82.78,141.68,90.38Z"/><path class="cls-5" d="M126.65,99.06c0,4.15-1.38,7.08-3.57,8.34l-7.52,4.34c2.2-1.26,3.57-4.18,3.57-8.35,0-7.59-4.61-16.4-10.31-19.69l7.51-4.34C122,82.65,126.65,91.46,126.65,99.06Z"/><path class="cls-2" d="M119.13,103.39c0,4.17-1.37,7.09-3.57,8.35L86.9,128.29a7.25,7.25,0,0,0,3-4.48,14.31,14.31,0,0,0,.46-3.77c0-7.6-4.62-16.41-10.32-19.69L108.82,83.7C114.52,87,119.13,95.8,119.13,103.39Z"/><path class="cls-6" d="M90.32,120a14.31,14.31,0,0,1-.46,3.77,10.77,10.77,0,0,1-1.59-.75L9.77,77.74V59.79L80,100.35C85.7,103.63,90.32,112.44,90.32,120Z"/><path class="cls-7" d="M88.27,123.06a10.77,10.77,0,0,0,1.59.75,7.25,7.25,0,0,1-3,4.48l-.15.09c-1.8,1-4.17,1-6.75-.55L1.5,82.51l8.27-4.77Z"/><path class="cls-8" d="M9.77,59.79V77.74l78.5,45.32a10.77,10.77,0,0,0,1.59.75"/><path class="cls-8" d="M86.9,128.29a7.25,7.25,0,0,0,3-4.48,14.36,14.36,0,0,0,.46-3.77c0-7.6-4.62-16.41-10.32-19.69L1.5,55,94.21,1.5l78.5,45.32C178.4,50.11,183,58.93,183,66.51c0,4.17-1.38,7.09-3.55,8.34Z"/><line class="cls-8" x1="86.9" y1="128.29" x2="86.75" y2="128.38"/><path class="cls-8" d="M9.77,77.74,1.5,82.51,80,127.83c2.58,1.5,5,1.59,6.75.55"/><path class="cls-8" d="M115.56,111.74c2.2-1.26,3.57-4.18,3.57-8.35,0-7.59-4.61-16.4-10.31-19.69"/><path class="cls-8" d="M123.08,107.4c2.19-1.26,3.57-4.19,3.57-8.34,0-7.6-4.62-16.41-10.32-19.7"/><path class="cls-8" d="M138.11,98.72c2.19-1.25,3.57-4.19,3.57-8.34,0-7.6-4.62-16.41-10.31-19.7"/><path class="cls-8" d="M145.62,94.39c2.2-1.27,3.58-4.19,3.58-8.35,0-7.59-4.62-16.41-10.32-19.7"/><line class="cls-8" x1="80" y1="100.35" x2="172.71" y2="46.82"/></g></g></g></g></svg>