<svg xmlns="http://www.w3.org/2000/svg" xmlns:xlink="http://www.w3.org/1999/xlink" viewBox="0 0 187.82 181"><defs><style>.cls-1,.cls-8{fill:none;}.cls-2{fill:#c2c7cc;}.cls-3{fill:url(#New_Pattern_Swatch_2);}.cls-4{fill:#969a9e;}.cls-5{fill:#fff;}.cls-6{fill:#5f646b;}.cls-7{fill:#373a3a;}.cls-8{stroke:#373a3a;stroke-linecap:round;stroke-linejoin:round;stroke-width:3px;}</style><pattern id="New_Pattern_Swatch_2" data-name="New Pattern Swatch 2" width="16" height="19" patternTransform="translate(-415.38 40.41) scale(0.4)" patternUnits="userSpaceOnUse" viewBox="0 0 16 19"><rect class="cls-1" width="16" height="19"/><polygon class="cls-2" points="16 22.18 10.5 19 16 15.82 21.5 19 16 22.18"/><polygon class="cls-2" points="16 22.18 10.5 19 16 15.82 21.5 19 16 22.18"/><polygon class="cls-2" points="0 22.18 -5.5 19 0 15.82 5.5 19 0 22.18"/><polygon class="cls-2" points="0 22.18 -5.5 19 0 15.82 5.5 19 0 22.18"/><polygon class="cls-2" points="16 22.18 10.5 19 16 15.82 21.5 19 16 22.18"/><polygon class="cls-2" points="16 3.18 10.5 0 16 -3.17 21.5 0 16 3.18"/><polygon class="cls-2" points="16 22.18 10.5 19 16 15.82 21.5 19 16 22.18"/><polygon class="cls-2" points="0 22.18 -5.5 19 0 15.82 5.5 19 0 22.18"/><polygon class="cls-2" points="8 12.68 2.5 9.5 8 6.33 13.5 9.5 8 12.68"/><polygon class="cls-2" points="16 3.18 10.5 0 16 -3.17 21.5 0 16 3.18"/><polygon class="cls-2" points="0 3.18 -5.5 0 0 -3.17 5.5 0 0 3.18"/><polygon class="cls-2" points="0 22.18 -5.5 19 0 15.82 5.5 19 0 22.18"/><polygon class="cls-2" points="0 3.18 -5.5 0 0 -3.17 5.5 0 0 3.18"/><polygon class="cls-2" points="16 3.18 10.5 0 16 -3.17 21.5 0 16 3.18"/><polygon class="cls-2" points="16 3.18 10.5 0 16 -3.17 21.5 0 16 3.18"/><polygon class="cls-2" points="0 3.18 -5.5 0 0 -3.17 5.5 0 0 3.18"/><polygon class="cls-2" points="0 3.18 -5.5 0 0 -3.17 5.5 0 0 3.18"/></pattern></defs><g id="Layer_2" data-name="Layer 2"><g id="icons"><g id="box_with_document" data-name="box with document"><polygon class="cls-3" points="112.34 119.11 187.82 143.04 122.05 181 66.78 171.72 112.34 119.11"/><g id="box_with_document-2" data-name="box with document"><polygon class="cls-4" points="133 76.77 133 133.42 67.25 171.37 67.25 114.72 133 76.77"/><polygon class="cls-5" points="133 76.77 67.25 114.72 1.5 76.77 15.12 68.91 15.12 76.33 67.24 106.41 119.91 76.64 119.91 69.21 133 76.77"/><polygon class="cls-2" points="119.91 69.21 119.91 76.64 96.37 89.72 96.37 74.92 119.91 61.33 119.91 69.21"/><polygon class="cls-2" points="119.91 61.33 96.37 74.92 96.37 58.13 78.75 47.95 78.75 37.57 119.91 61.33"/><polygon class="cls-2" points="96.37 78.05 96.37 89.72 78.75 99.77 78.75 85.09 96.37 74.93 96.37 78.05"/><polygon class="cls-6" points="96.37 74.92 96.37 74.93 78.75 85.09 78.75 64.74 96.37 74.92"/><polygon class="cls-5" points="96.37 64.11 96.37 74.92 78.75 64.74 78.75 47.95 96.37 58.13 96.37 64.11"/><polygon class="cls-2" points="78.75 85.09 78.75 99.77 67.24 106.41 67.24 91.74 78.75 85.09"/><polygon class="cls-5" points="78.75 71.82 78.75 85.09 67.24 78.46 67.24 58.15 26.62 34.7 26.62 1.5 78.75 31.58 78.75 71.82"/><polygon class="cls-6" points="78.75 85.09 67.24 91.74 67.24 78.46 78.75 85.09"/><polygon class="cls-5" points="67.25 114.72 67.25 171.37 1.5 133.42 1.5 76.77 67.25 114.72"/><path class="cls-5" d="M67.24,78.46v28L15.12,76.33V28.06L67.24,58.15Zm-25.7-2.38a8.9,8.9,0,0,0,1.17-4.74c0-6.31-4.42-14-9.88-17.12S23,53.63,23,59.93,27.38,73.88,32.83,77C36.59,79.21,39.86,78.68,41.54,76.08Z"/><path class="cls-7" d="M42.71,71.34a8.9,8.9,0,0,1-1.17,4.74L32.83,65.64V54.22C38.29,57.38,42.71,65,42.71,71.34Z"/><path class="cls-5" d="M32.83,65.64l8.71,10.44c-1.68,2.6-4.95,3.13-8.71,1C27.38,73.88,23,66.23,23,59.93s4.43-8.86,9.88-5.71Z"/><polyline class="cls-8" points="119.91 69.21 133 76.77 67.25 114.72 1.5 76.77 15.12 68.91"/><line class="cls-8" x1="67.25" y1="114.72" x2="67.25" y2="171.37"/><polyline class="cls-8" points="1.5 76.77 1.5 133.42 67.25 171.37 133 133.42 133 76.77"/><polygon class="cls-8" points="26.62 34.7 67.24 58.15 67.24 106.41 15.12 76.33 15.12 28.06 26.62 34.7"/><path class="cls-8" d="M41.54,76.08a8.81,8.81,0,0,0,1.17-4.74c0-6.31-4.42-14-9.88-17.12S23,53.63,23,59.93,27.38,73.88,32.83,77C36.59,79.21,39.87,78.69,41.54,76.08Z"/><polyline class="cls-8" points="32.84 54.22 32.84 65.64 41.54 76.08"/><line class="cls-8" x1="49.93" y1="65.85" x2="58.84" y2="70.99"/><line class="cls-8" x1="49.93" y1="71.45" x2="58.84" y2="76.59"/><line class="cls-8" x1="49.93" y1="77.06" x2="58.84" y2="82.2"/><line class="cls-8" x1="49.93" y1="82.66" x2="58.84" y2="87.81"/><line class="cls-8" x1="78.75" y1="85.09" x2="67.21" y2="78.44"/><polyline class="cls-8" points="26.62 34.7 26.62 1.5 78.75 31.58 78.75 99.77"/><line class="cls-8" x1="96.37" y1="74.93" x2="96.37" y2="89.72"/><polyline class="cls-8" points="78.75 47.95 96.37 58.13 96.37 74.92"/><polyline class="cls-8" points="67.24 91.74 96.37 74.93 96.37 74.92 119.91 61.33 78.75 37.57"/><polyline class="cls-8" points="119.91 61.33 119.91 76.64 67.24 106.41"/><line class="cls-8" x1="96.37" y1="74.92" x2="78.75" y2="64.74"/></g></g></g></g></svg>