<svg xmlns="http://www.w3.org/2000/svg" xmlns:xlink="http://www.w3.org/1999/xlink" viewBox="0 0 138.44 192.46"><defs><style>.cls-1,.cls-7{fill:none;}.cls-2{fill:#c2c7cc;}.cls-3{fill:url(#New_Pattern_Swatch_2);}.cls-4{fill:#fff;}.cls-5{fill:#969a9e;}.cls-6{fill:#373a3a;}.cls-7{stroke:#373a3a;stroke-linecap:round;stroke-linejoin:round;stroke-width:3px;}</style><pattern id="New_Pattern_Swatch_2" data-name="New Pattern Swatch 2" width="16" height="19" patternTransform="translate(-415.38 40.41) scale(0.4)" patternUnits="userSpaceOnUse" viewBox="0 0 16 19"><rect class="cls-1" width="16" height="19"/><polygon class="cls-2" points="16 22.18 10.5 19 16 15.82 21.5 19 16 22.18"/><polygon class="cls-2" points="16 22.18 10.5 19 16 15.82 21.5 19 16 22.18"/><polygon class="cls-2" points="0 22.18 -5.5 19 0 15.82 5.5 19 0 22.18"/><polygon class="cls-2" points="0 22.18 -5.5 19 0 15.82 5.5 19 0 22.18"/><polygon class="cls-2" points="16 22.18 10.5 19 16 15.82 21.5 19 16 22.18"/><polygon class="cls-2" points="16 3.18 10.5 0 16 -3.17 21.5 0 16 3.18"/><polygon class="cls-2" points="16 22.18 10.5 19 16 15.82 21.5 19 16 22.18"/><polygon class="cls-2" points="0 22.18 -5.5 19 0 15.82 5.5 19 0 22.18"/><polygon class="cls-2" points="8 12.68 2.5 9.5 8 6.33 13.5 9.5 8 12.68"/><polygon class="cls-2" points="16 3.18 10.5 0 16 -3.17 21.5 0 16 3.18"/><polygon class="cls-2" points="0 3.18 -5.5 0 0 -3.17 5.5 0 0 3.18"/><polygon class="cls-2" points="0 22.18 -5.5 19 0 15.82 5.5 19 0 22.18"/><polygon class="cls-2" points="0 3.18 -5.5 0 0 -3.17 5.5 0 0 3.18"/><polygon class="cls-2" points="16 3.18 10.5 0 16 -3.17 21.5 0 16 3.18"/><polygon class="cls-2" points="16 3.18 10.5 0 16 -3.17 21.5 0 16 3.18"/><polygon class="cls-2" points="0 3.18 -5.5 0 0 -3.17 5.5 0 0 3.18"/><polygon class="cls-2" points="0 3.18 -5.5 0 0 -3.17 5.5 0 0 3.18"/></pattern></defs><g id="Layer_2" data-name="Layer 2"><g id="icons"><g id="bulb"><path class="cls-3" d="M133.49,149.47c-10.06-12.17-28.41-13.51-43-14.22-13.84-.68-28.2,1.06-37.24,10.65-2.29-6-9.28-5.28-12.28-1-2.16,2.29-3.9,4.77-3.9,7.9,0,5.31,5.91,8.14,8,13.28,1.44,3.52,4,26.27,33.25,26.27a55.71,55.71,0,0,0,6.42-.39,56.83,56.83,0,0,0,7.94.53c15.59,0,38.17-5.71,43.42-21.27C140.29,164.09,138.52,155.56,133.49,149.47Z"/><g id="bulb-2" data-name="bulb"><path class="cls-4" d="M110.63,56.07A54.39,54.39,0,0,1,93.81,95.46a64.85,64.85,0,0,0-15.63,22.65l-.31-.13a14.75,14.75,0,0,1-5.53,5.09c-9,5.21-23.65,5.21-32.68,0A14.87,14.87,0,0,1,34.15,118l-.21.09A64.53,64.53,0,0,0,18.32,95.46a54.56,54.56,0,1,1,92.31-39.39Z"/><path class="cls-5" d="M77.87,118l.31.13c-.44,1.07-.83,2.16-1.19,3.27a70,70,0,0,0-2.13,8.26h0c-.06.36-.13.71-.19,1.07A12.77,12.77,0,0,1,70,135c-7.69,4.42-20.12,4.42-27.8,0a12.81,12.81,0,0,1-4.69-4.32c-.06-.36-.13-.72-.19-1.07h0a70,70,0,0,0-2.14-8.26c-.35-1.12-.75-2.22-1.2-3.29l.21-.09a14.87,14.87,0,0,0,5.51,5.07c9,5.21,23.66,5.21,32.68,0A14.75,14.75,0,0,0,77.87,118Z"/><path class="cls-5" d="M74.65,130.71a70.37,70.37,0,0,0-1.06,10.6c0,2-1.29,4-3.86,5.69a12.8,12.8,0,0,1-1.27.73,23.45,23.45,0,0,1-5.8,2,32.45,32.45,0,0,1-6.59.66h0a27.73,27.73,0,0,1-12.39-2.66,12.88,12.88,0,0,1-1.68-1c-2.3-1.61-3.45-3.5-3.45-5.41a69.1,69.1,0,0,0-1.06-10.6A12.81,12.81,0,0,0,42.17,135c7.68,4.42,20.11,4.42,27.8,0A12.77,12.77,0,0,0,74.65,130.71Z"/><path class="cls-6" d="M68.46,147.73a12.8,12.8,0,0,0,1.27-.73A13.88,13.88,0,0,1,42,146.72a12.88,12.88,0,0,0,1.68,1,27.73,27.73,0,0,0,12.39,2.66h0a32.45,32.45,0,0,0,6.59-.66A23.45,23.45,0,0,0,68.46,147.73Z"/><path class="cls-7" d="M78.18,118.11A65.21,65.21,0,0,1,93.81,95.46a54.57,54.57,0,1,0-75.49,0,65.51,65.51,0,0,1,15.62,22.63c.44,1.07.85,2.17,1.2,3.29a70,70,0,0,1,2.14,8.26h0c.06.35.13.71.19,1.07a77.68,77.68,0,0,1,1.06,10.6c0,1.91,1.15,3.8,3.45,5.41a12.88,12.88,0,0,0,1.68,1,27.73,27.73,0,0,0,12.39,2.66h0a32.45,32.45,0,0,0,6.59-.66,23.45,23.45,0,0,0,5.8-2,12.8,12.8,0,0,0,1.27-.73c2.57-1.66,3.86-3.67,3.86-5.69a77.68,77.68,0,0,1,1.06-10.6c.06-.36.13-.71.19-1.07h0A70,70,0,0,1,77,121.38C77.35,120.27,77.75,119.18,78.18,118.11Z"/><path class="cls-7" d="M34.06,44.31c3.69,2.12,3.69,9.64,7.37,11.76s3.68-5.38,7.36-3.26,3.68,9.65,7.36,11.77,3.7-5.39,7.38-3.26S67.21,71,70.9,73.09"/><path class="cls-7" d="M74.66,130.69a0,0,0,0,0,0,0A12.77,12.77,0,0,1,70,135c-7.69,4.42-20.12,4.42-27.8,0a12.81,12.81,0,0,1-4.69-4.32"/><path class="cls-7" d="M77.87,118a14.75,14.75,0,0,1-5.53,5.09c-9,5.21-23.65,5.21-32.68,0A14.87,14.87,0,0,1,34.15,118"/><path class="cls-7" d="M69.73,147A13.88,13.88,0,0,1,42,146.72"/></g></g></g></g></svg>