<svg xmlns="http://www.w3.org/2000/svg" xmlns:xlink="http://www.w3.org/1999/xlink" viewBox="0 0 144.15 174.85"><defs><style>.cls-1,.cls-8{fill:none;}.cls-2{fill:#c2c7cc;}.cls-3{fill:url(#New_Pattern_Swatch_2);}.cls-4{fill:#969a9e;}.cls-5{fill:#fff;}.cls-6{fill:#373a3a;}.cls-7{fill:#dae0e5;}.cls-8{stroke:#373a3a;stroke-linecap:round;stroke-linejoin:round;stroke-width:3px;}</style><pattern id="New_Pattern_Swatch_2" data-name="New Pattern Swatch 2" width="16" height="19" patternTransform="translate(-415.38 40.41) scale(0.4)" patternUnits="userSpaceOnUse" viewBox="0 0 16 19"><rect class="cls-1" width="16" height="19"/><polygon class="cls-2" points="16 22.18 10.5 19 16 15.82 21.5 19 16 22.18"/><polygon class="cls-2" points="16 22.18 10.5 19 16 15.82 21.5 19 16 22.18"/><polygon class="cls-2" points="0 22.18 -5.5 19 0 15.82 5.5 19 0 22.18"/><polygon class="cls-2" points="0 22.18 -5.5 19 0 15.82 5.5 19 0 22.18"/><polygon class="cls-2" points="16 22.18 10.5 19 16 15.82 21.5 19 16 22.18"/><polygon class="cls-2" points="16 3.18 10.5 0 16 -3.17 21.5 0 16 3.18"/><polygon class="cls-2" points="16 22.18 10.5 19 16 15.82 21.5 19 16 22.18"/><polygon class="cls-2" points="0 22.18 -5.5 19 0 15.82 5.5 19 0 22.18"/><polygon class="cls-2" points="8 12.68 2.5 9.5 8 6.33 13.5 9.5 8 12.68"/><polygon class="cls-2" points="16 3.18 10.5 0 16 -3.17 21.5 0 16 3.18"/><polygon class="cls-2" points="0 3.18 -5.5 0 0 -3.17 5.5 0 0 3.18"/><polygon class="cls-2" points="0 22.18 -5.5 19 0 15.82 5.5 19 0 22.18"/><polygon class="cls-2" points="0 3.18 -5.5 0 0 -3.17 5.5 0 0 3.18"/><polygon class="cls-2" points="16 3.18 10.5 0 16 -3.17 21.5 0 16 3.18"/><polygon class="cls-2" points="16 3.18 10.5 0 16 -3.17 21.5 0 16 3.18"/><polygon class="cls-2" points="0 3.18 -5.5 0 0 -3.17 5.5 0 0 3.18"/><polygon class="cls-2" points="0 3.18 -5.5 0 0 -3.17 5.5 0 0 3.18"/></pattern></defs><g id="Layer_2" data-name="Layer 2"><g id="icons"><g id="calculator"><path class="cls-3" d="M73.87,169.74,127,174.85s17.73-3.45,17.18-10.2S50,134.28,50,134.28Z"/><g id="calculator-2" data-name="calculator"><path class="cls-4" d="M87.21,49V159.55c0,1.62-.53,2.75-1.38,3.24l-9.55,5.52h0a3.55,3.55,0,0,0,1.38-3.23V54.5c0-3-1.79-6.37-4-7.65L5.5,7.5a2.55,2.55,0,0,0-2.62-.21h0l9.55-5.51A2.55,2.55,0,0,1,15.05,2L83.22,41.33C85.42,42.61,87.21,46,87.21,49Z"/><path class="cls-5" d="M76.28,168.3a2.54,2.54,0,0,1-2.62-.2L5.5,128.74c-2.22-1.28-4-4.7-4-7.64V10.52A3.54,3.54,0,0,1,2.88,7.29,2.55,2.55,0,0,1,5.5,7.5L73.66,46.85c2.21,1.28,4,4.69,4,7.65V165.07A3.55,3.55,0,0,1,76.28,168.3Z"/><path class="cls-6" d="M66.71,61.62v14.9c0,1.61-1,2.35-2.18,1.65L12.9,48.36a5.21,5.21,0,0,1-2.19-4.18V29.29c0-1.6,1-2.34,2.19-1.65L64.53,57.45A5.23,5.23,0,0,1,66.71,61.62Z"/><path class="cls-7" d="M53.21,82.73c6.33,3.66,11.47,12.54,11.47,19.85s-5.14,10.27-11.47,6.62S41.76,96.66,41.76,89.35,46.88,79.08,53.21,82.73Zm3.27,20.67c.84.49,1.53.09,1.53-.89a3.38,3.38,0,0,0-1.53-2.66c-.85-.5-1.54-.1-1.54.88A3.41,3.41,0,0,0,56.48,103.4ZM50,92.09c.85.48,1.53.09,1.53-.89A3.38,3.38,0,0,0,50,88.54c-.85-.49-1.54-.09-1.54.89A3.41,3.41,0,0,0,50,92.09Z"/><path class="cls-7" d="M53.21,116.18c6.33,3.66,11.47,12.55,11.47,19.85s-5.14,10.28-11.47,6.63-11.45-12.54-11.45-19.85S46.88,112.54,53.21,116.18Z"/><path class="cls-7" d="M24.21,66c6.33,3.65,11.46,12.54,11.46,19.85S30.54,96.1,24.21,92.45,12.74,79.91,12.74,72.61,17.88,62.33,24.21,66Z"/><path class="cls-7" d="M24.21,99.45C30.54,103.1,35.67,112,35.67,119.3s-5.13,10.26-11.46,6.61-11.47-12.54-11.47-19.85S17.88,95.79,24.21,99.45Z"/><path class="cls-8" d="M76.28,168.3a2.54,2.54,0,0,1-2.62-.2L5.5,128.74c-2.22-1.28-4-4.7-4-7.64V10.52A3.54,3.54,0,0,1,2.88,7.29,2.55,2.55,0,0,1,5.5,7.5L73.66,46.85c2.21,1.28,4,4.69,4,7.65V165.07A3.55,3.55,0,0,1,76.28,168.3Z"/><path class="cls-8" d="M64.53,78.17,12.9,48.36a5.21,5.21,0,0,1-2.19-4.18V29.29c0-1.6,1-2.34,2.19-1.65L64.53,57.45a5.23,5.23,0,0,1,2.18,4.17v14.9C66.71,78.13,65.73,78.87,64.53,78.17Z"/><path class="cls-8" d="M35.67,85.84c0-7.31-5.13-16.2-11.46-19.85s-11.47-.69-11.47,6.62,5.14,16.2,11.47,19.84S35.67,93.15,35.67,85.84Z"/><path class="cls-8" d="M64.68,102.58c0-7.31-5.14-16.19-11.47-19.85S41.76,82,41.76,89.35s5.12,16.19,11.45,19.85S64.68,109.89,64.68,102.58Z"/><path class="cls-8" d="M35.67,119.3c0-7.31-5.13-16.2-11.46-19.85s-11.47-.7-11.47,6.61,5.14,16.19,11.47,19.85S35.67,126.61,35.67,119.3Z"/><path class="cls-8" d="M64.68,136c0-7.3-5.14-16.19-11.47-19.85s-11.45-.68-11.45,6.63S46.88,139,53.21,142.66,64.68,143.34,64.68,136Z"/><line class="cls-8" x1="24.31" y1="72.24" x2="24.31" y2="85.13"/><line class="cls-8" x1="18.73" y1="75.45" x2="29.9" y2="81.91"/><line class="cls-8" x1="18.73" y1="109.51" x2="29.9" y2="115.96"/><line class="cls-8" x1="49.56" y1="124.07" x2="56.86" y2="128.29"/><line class="cls-8" x1="49.56" y1="130.73" x2="56.86" y2="134.95"/><line class="cls-8" x1="49.95" y1="97.49" x2="56.16" y2="93.9"/><path class="cls-8" d="M51.48,91.2A3.38,3.38,0,0,0,50,88.54c-.85-.49-1.54-.09-1.54.89A3.41,3.41,0,0,0,50,92.09C50.8,92.57,51.48,92.18,51.48,91.2Z"/><path class="cls-8" d="M58,102.51a3.38,3.38,0,0,0-1.53-2.66c-.85-.5-1.54-.1-1.54.88a3.41,3.41,0,0,0,1.54,2.67C57.32,103.89,58,103.49,58,102.51Z"/><path class="cls-8" d="M2.88,7.28l9.55-5.51A2.55,2.55,0,0,1,15.05,2L83.22,41.33c2.2,1.28,4,4.7,4,7.65V159.55c0,1.62-.53,2.75-1.38,3.24l-9.55,5.52"/></g></g></g></g></svg>