<svg xmlns="http://www.w3.org/2000/svg" xmlns:xlink="http://www.w3.org/1999/xlink" viewBox="0 0 175.3 152.78"><defs><style>.cls-1,.cls-9{fill:none;}.cls-2{fill:#c2c7cc;}.cls-3{fill:url(#New_Pattern_Swatch_2);}.cls-4{fill:#5f646b;}.cls-5{fill:#969a9e;}.cls-6{fill:#fff;}.cls-7{fill:#373a3a;}.cls-8{fill:#dae0e5;}.cls-9{stroke:#373a3a;stroke-linecap:round;stroke-linejoin:round;stroke-width:3px;}</style><pattern id="New_Pattern_Swatch_2" data-name="New Pattern Swatch 2" width="16" height="19" patternTransform="translate(-415.38 40.41) scale(0.4)" patternUnits="userSpaceOnUse" viewBox="0 0 16 19"><rect class="cls-1" width="16" height="19"/><polygon class="cls-2" points="16 22.18 10.5 19 16 15.82 21.5 19 16 22.18"/><polygon class="cls-2" points="16 22.18 10.5 19 16 15.82 21.5 19 16 22.18"/><polygon class="cls-2" points="0 22.18 -5.5 19 0 15.82 5.5 19 0 22.18"/><polygon class="cls-2" points="0 22.18 -5.5 19 0 15.82 5.5 19 0 22.18"/><polygon class="cls-2" points="16 22.18 10.5 19 16 15.82 21.5 19 16 22.18"/><polygon class="cls-2" points="16 3.18 10.5 0 16 -3.17 21.5 0 16 3.18"/><polygon class="cls-2" points="16 22.18 10.5 19 16 15.82 21.5 19 16 22.18"/><polygon class="cls-2" points="0 22.18 -5.5 19 0 15.82 5.5 19 0 22.18"/><polygon class="cls-2" points="8 12.68 2.5 9.5 8 6.33 13.5 9.5 8 12.68"/><polygon class="cls-2" points="16 3.18 10.5 0 16 -3.17 21.5 0 16 3.18"/><polygon class="cls-2" points="0 3.18 -5.5 0 0 -3.17 5.5 0 0 3.18"/><polygon class="cls-2" points="0 22.18 -5.5 19 0 15.82 5.5 19 0 22.18"/><polygon class="cls-2" points="0 3.18 -5.5 0 0 -3.17 5.5 0 0 3.18"/><polygon class="cls-2" points="16 3.18 10.5 0 16 -3.17 21.5 0 16 3.18"/><polygon class="cls-2" points="16 3.18 10.5 0 16 -3.17 21.5 0 16 3.18"/><polygon class="cls-2" points="0 3.18 -5.5 0 0 -3.17 5.5 0 0 3.18"/><polygon class="cls-2" points="0 3.18 -5.5 0 0 -3.17 5.5 0 0 3.18"/></pattern></defs><g id="Layer_2" data-name="Layer 2"><g id="icons"><g id="certificate"><path class="cls-3" d="M80.94,124.88c7.9,8,19.58,27.9,52,27.9,28.14,0,42.4-16.44,42.4-30.25,0-9.41-14.22-17-22.79-17-11.57,0-7.79,8.5-24.17,8.5-7,0-15.13-1.67-19.83-4.56-4.74-3.65-9.36-7.3-14.25-10.41,5.68-4.41,4.58-16.4-3.53-17.56-5.85-.84-11.81-.92-17.61-2-2.44-.46-5.26-1.77-7.67-1.87a2.46,2.46,0,0,1-.61-.09A9.81,9.81,0,0,1,64.51,80a11.22,11.22,0,0,0,.27-2.51c-1.34-.38-.35-1.61,0-.55-.32-5.08-4.28-9.73-9.85-9.56A42.22,42.22,0,0,0,24.82,81.1c-2.56,3.84-5,9.4-5,14.36,0,4,1.53,7.55,5.69,9.59,6.33,3.55,14.1,4.56,21.2,5.25,2.8.28,5.58.4,8.35.51,1,.22,2,.43,2.93.67,5.26,1.33,10.5,2.87,15,5.92A36.43,36.43,0,0,1,80.94,124.88ZM48.3,89.44c-.72,0-1.43-.06-2.14-.1q.78-.33,1.59-.6C47.93,89,48.11,89.21,48.3,89.44Z"/><g id="certificate-2" data-name="certificate"><path class="cls-4" d="M154.09,66c8.79,3.46,10.71,17.14,3.69,29.29a34.12,34.12,0,0,1-10.66,11.54c-4.34,2.77-9,3.79-12.91,2L115,97.66c4.41-11.85,13-23.11,22.82-28.78C144.54,65,150,64.39,154.09,66Z"/><path class="cls-5" d="M147.12,106.82l8.36,4.83C141,131.29,125.86,136,117.74,129.49c-3.74-3-6-8.28-6-15.56a47.54,47.54,0,0,1,3.18-16.27h0l19.26,11.13C138.15,110.61,142.78,109.59,147.12,106.82Z"/><path class="cls-6" d="M154.09,66h0c-4.05-1.6-9.55-1-16.32,2.89-9.84,5.67-18.41,16.93-22.82,28.78h0a47.54,47.54,0,0,0-3.18,16.27c0,7.28,2.24,12.59,6,15.56l-50.41-40-.57-.33c1.08-4-.31-9.89-3.63-14.86,1.46-11.46,9.42-24.18,19-29.73,5-2.9,9.1-3.33,12.11-2.15Z"/><path class="cls-7" d="M84.88,37.1l9.39,5.35c-3-1.18-7.09-.75-12.11,2.15-9.61,5.55-17.57,18.27-19,29.73q-.63-.93-1.32-1.8c-3.27-4.08-7.12-6.24-10.23-6.16,1.83-11.15,9.57-23.19,18.85-28.54C76.91,34.09,81.84,34.45,84.88,37.1Z"/><path class="cls-6" d="M47,4.25,84.88,37.1c-3-2.65-8-3-14.45.73-9.28,5.35-17,17.39-18.85,28.54a5.18,5.18,0,0,0-4.3,2.27c-1.88,2.68-1.83,7.15-.21,11.68h0l-36-12.52c-5.85-2-9.58-8.14-9.58-17.54,0-16.58,11.64-36.74,26-45C36.24.18,42.89.67,47,4.25Z"/><path class="cls-8" d="M63.13,74.33c3.3,5,4.7,10.82,3.63,14.86a7.37,7.37,0,0,1-1.06,2.36c-2.88,4.11-9.29,2.52-14.27-3.59-.09-.11-.17-.2-.25-.31a25.49,25.49,0,0,1-4.11-7.33c-1.62-4.53-1.67-9,.21-11.68a5.18,5.18,0,0,1,4.3-2.27c3.11-.08,7,2.08,10.23,6.16Q62.5,73.4,63.13,74.33Z"/><polyline class="cls-9" points="117.74 129.49 67.33 89.52 66.76 89.19"/><path class="cls-9" d="M51.58,66.37c1.83-11.15,9.57-23.19,18.85-28.54,6.48-3.74,11.41-3.38,14.45-.73"/><path class="cls-9" d="M63.13,74.33c1.46-11.46,9.42-24.18,19-29.73,5-2.9,9.1-3.33,12.11-2.15"/><path class="cls-9" d="M114.94,97.66a47.54,47.54,0,0,0-3.18,16.27c0,7.28,2.24,12.59,6,15.56,8.11,6.46,23.3,1.8,37.74-17.84l-8.36-4.83"/><path class="cls-9" d="M115,97.66l19.26,11.13c3.94,1.82,8.57.8,12.91-2a34.12,34.12,0,0,0,10.66-11.54c7-12.15,5.09-25.82-3.69-29.29-4.05-1.6-9.55-1-16.32,2.89C127.93,74.55,119.36,85.81,115,97.66Z"/><line class="cls-9" x1="114.95" y1="97.66" x2="114.94" y2="97.66"/><path class="cls-9" d="M47.06,80.32l-36-12.52c-5.85-2-9.58-8.14-9.58-17.54,0-16.58,11.64-36.74,26-45C36.24.18,42.89.67,47,4.25L84.88,37.1l9.39,5.35L154.09,66"/><path class="cls-9" d="M66.76,89.19a7.37,7.37,0,0,1-1.06,2.36c-2.88,4.11-9.29,2.52-14.27-3.59-.09-.11-.17-.2-.25-.31a25.49,25.49,0,0,1-4.11-7.33c-1.62-4.53-1.67-9,.21-11.68a5.2,5.2,0,0,1,4.3-2.27c3.11-.07,7,2.08,10.23,6.16q.69.87,1.32,1.8C66.43,79.31,67.83,85.15,66.76,89.19Z"/><path class="cls-9" d="M51.43,88a15.41,15.41,0,0,0-.32,3.34c0,11.36,7.31,14.48,7.31,27.88,0,7.65-2.5,10.37-4.61,13.6"/><path class="cls-9" d="M63,93.55a21.5,21.5,0,0,1,2.19,10c0,1.37,0,4.09,0,4.09,0,14.24-.65,27.08,11.74,33.58"/></g></g></g></g></svg>