<svg xmlns="http://www.w3.org/2000/svg" xmlns:xlink="http://www.w3.org/1999/xlink" viewBox="0 0 170.8 152.82"><defs><style>.cls-1,.cls-9{fill:none;}.cls-2{fill:#c2c7cc;}.cls-3{fill:url(#New_Pattern_Swatch_2);}.cls-4{fill:#969a9e;}.cls-5{fill:#dae0e5;}.cls-6{fill:#373a3a;}.cls-7{fill:#fff;}.cls-8{fill:#5f646b;}.cls-9{stroke:#373a3a;stroke-linecap:round;stroke-linejoin:round;stroke-width:3px;}</style><pattern id="New_Pattern_Swatch_2" data-name="New Pattern Swatch 2" width="16" height="19" patternTransform="translate(-415.38 40.41) scale(0.4)" patternUnits="userSpaceOnUse" viewBox="0 0 16 19"><rect class="cls-1" width="16" height="19"/><polygon class="cls-2" points="16 22.18 10.5 19 16 15.82 21.5 19 16 22.18"/><polygon class="cls-2" points="16 22.18 10.5 19 16 15.82 21.5 19 16 22.18"/><polygon class="cls-2" points="0 22.18 -5.5 19 0 15.82 5.5 19 0 22.18"/><polygon class="cls-2" points="0 22.18 -5.5 19 0 15.82 5.5 19 0 22.18"/><polygon class="cls-2" points="16 22.18 10.5 19 16 15.82 21.5 19 16 22.18"/><polygon class="cls-2" points="16 3.18 10.5 0 16 -3.17 21.5 0 16 3.18"/><polygon class="cls-2" points="16 22.18 10.5 19 16 15.82 21.5 19 16 22.18"/><polygon class="cls-2" points="0 22.18 -5.5 19 0 15.82 5.5 19 0 22.18"/><polygon class="cls-2" points="8 12.68 2.5 9.5 8 6.33 13.5 9.5 8 12.68"/><polygon class="cls-2" points="16 3.18 10.5 0 16 -3.17 21.5 0 16 3.18"/><polygon class="cls-2" points="0 3.18 -5.5 0 0 -3.17 5.5 0 0 3.18"/><polygon class="cls-2" points="0 22.18 -5.5 19 0 15.82 5.5 19 0 22.18"/><polygon class="cls-2" points="0 3.18 -5.5 0 0 -3.17 5.5 0 0 3.18"/><polygon class="cls-2" points="16 3.18 10.5 0 16 -3.17 21.5 0 16 3.18"/><polygon class="cls-2" points="16 3.18 10.5 0 16 -3.17 21.5 0 16 3.18"/><polygon class="cls-2" points="0 3.18 -5.5 0 0 -3.17 5.5 0 0 3.18"/><polygon class="cls-2" points="0 3.18 -5.5 0 0 -3.17 5.5 0 0 3.18"/></pattern></defs><g id="Layer_2" data-name="Layer 2"><g id="icons"><g id="cogwheel"><path class="cls-3" d="M170.62,120.66c-1.2-6.42-6.86-8.86-11.93-11.84v0a9.38,9.38,0,0,0-.14-4.28A10.06,10.06,0,0,0,152,97.8a12.11,12.11,0,0,0-9.2,1.37A20,20,0,0,0,133,92.58a15.1,15.1,0,0,0-10.09.48,18,18,0,0,0-10.49-3.3,15.93,15.93,0,0,0-10.29,4.37Q97.23,92.51,92.36,91c-8.88-2.79-18.76-6.83-28.17-4.36S48.29,98.07,50.3,107.67c1.83,8.76,9.15,13.68,17.11,16.25a13.11,13.11,0,0,0,.32,6.33c-3.11.08-6.21.18-9.32.12-8.06-.17-9.93,12.32-1.92,14.19a112.62,112.62,0,0,0,15.35,2.93c.62.06,4.34.62,6.13.6a11.84,11.84,0,0,0,2.69,2.41c4,2.72,8.9,2.89,13.45,1.32a54.3,54.3,0,0,0,6.27-2.82c.91-.45,2.49-1.56,3.84-2.26a13.54,13.54,0,0,0,4.07,2.14,15.89,15.89,0,0,0,10.16-.74,16.92,16.92,0,0,0,4.62-2.78,20.43,20.43,0,0,0,4.81,1.31c4.73.74,9.55-.1,14.14-1.3l.36-.09c5.73,1.13,11.78.91,17-1.78a13.82,13.82,0,0,0,7.22-9,8.42,8.42,0,0,0,.08-3.55,14.33,14.33,0,0,0,1.28-1.1A10.45,10.45,0,0,0,170.62,120.66Zm-96.78-15.1a42.44,42.44,0,0,1,6,1.49C77.78,106.64,75.79,106.15,73.84,105.56Z"/><g id="cogwheel-2" data-name="cogwheel"><polygon class="cls-4" points="120.32 95.64 127.79 105.29 103.72 118.94 96.26 109.29 95.55 96.6 102.34 94.08 119.69 84.24 120.32 95.64"/><polygon class="cls-4" points="127.79 105.29 124.99 116.41 100.94 130.06 103.72 118.94 127.79 105.29"/><polygon class="cls-5" points="122.18 65.8 126.4 80.43 102.34 94.08 98.11 79.45 122.18 65.8"/><polygon class="cls-4" points="122.18 65.8 98.11 79.45 89.36 75.14 82.54 61.75 84.75 53.21 108.8 39.57 106.59 48.1 113.41 61.49 122.18 65.8"/><polygon class="cls-6" points="111.97 123.92 113.87 130.39 89.81 144.03 87.91 137.58 87.91 137.56 87.89 137.5 86.5 132.74 92.17 125.61 100.94 130.06 111.94 123.81 111.96 123.85 111.98 123.92 111.97 123.92"/><polygon class="cls-5" points="99.17 27.01 108.8 39.57 84.75 53.21 75.13 40.66 99.17 27.01"/><path class="cls-7" d="M50.18,49.26c-8-3.76-15.51-3.15-20.1,2.62a15.52,15.52,0,0,0-1.8,2.86,21.11,21.11,0,0,0-1.92,6.2C24.61,71.83,29,86.86,38.41,99.1c5.79,7.54,12.44,12.7,18.68,15.06a21.93,21.93,0,0,0,6.34,1.46,13.24,13.24,0,0,0,11.71-5,20.38,20.38,0,0,0,4-11C80.07,89,75.62,75,66.8,63.44,61.65,56.72,55.81,51.89,50.18,49.26Zm46.08,60,7.46,9.65-2.78,11.12-8.77-4.45-5.67,7.12,1.39,4.77,0,.05v0l1.9,6.45-8.73,3.37-7.42-9.73-9.88-1.14-2.09,8.63-11.35-5.69-3.21-11.28-10.33-9-6.7,2.67-9.63-12.55,2.22-8.53L15.86,87.41,7.11,83.09,2.89,68.46l6.77-2.52L9,53.25,1.5,43.6,4.29,32.49,13.05,37l5.67-7.13L15.41,18.51l8.73-3.36,7.1,9.32h0l.3.39L41.43,26l2.1-8.64,11.35,5.69,3.2,11.28,10.34,9,6.71-2.67,9.62,12.55-2.21,8.54,6.82,13.39,8.75,4.31,4.23,14.63L95.55,96.6Z"/><polygon class="cls-4" points="99.17 27.01 75.13 40.66 68.42 43.33 58.08 34.35 54.88 23.07 78.95 9.41 82.15 20.71 92.47 29.68 99.17 27.01"/><polygon class="cls-5" points="55.24 10.74 67.6 3.74 78.95 9.41 54.88 23.07 43.53 17.38 55.24 10.74"/><path class="cls-8" d="M79.1,99.64a20.38,20.38,0,0,1-4,11,13.24,13.24,0,0,1-11.71,5,21.93,21.93,0,0,1-6.34-1.46c-6.24-2.36-12.89-7.52-18.68-15.06-9.37-12.24-13.8-27.27-12-38.16a21.11,21.11,0,0,1,1.92-6.2,15.52,15.52,0,0,1,1.8-2.86c4.59-5.77,12.14-6.38,20.1-2.62-1,10.68,3.46,24.67,12.3,36.19C67.64,92.17,73.47,97,79.1,99.64Z"/><polygon class="cls-4" points="48.2 1.5 55.24 10.74 43.53 17.38 41.43 26.02 31.55 24.87 31.25 24.48 31.24 24.47 24.14 15.15 15.41 18.51 39.48 4.86 48.2 1.5"/><polygon class="cls-4" points="17.19 24.58 18.72 29.82 13.05 36.95 4.29 32.49 17.19 24.58"/><polygon class="cls-9" points="4.29 32.49 13.05 36.95 18.72 29.82 15.41 18.51 24.14 15.15 31.24 24.47 31.25 24.48 31.55 24.87 41.43 26.02 43.53 17.38 54.88 23.07 58.08 34.35 68.42 43.33 75.13 40.66 84.75 53.21 82.54 61.75 89.36 75.14 98.11 79.45 102.34 94.08 95.55 96.6 96.26 109.29 103.72 118.94 100.94 130.06 92.17 125.61 86.5 132.74 87.89 137.5 87.91 137.56 87.91 137.58 89.81 144.03 81.08 147.4 73.66 137.67 63.78 136.53 61.69 145.16 50.34 139.47 47.13 128.19 36.8 119.21 30.1 121.88 20.47 109.33 22.69 100.8 15.87 87.42 7.11 83.09 2.89 68.46 9.66 65.94 8.96 53.25 1.5 43.6 4.29 32.49"/><path class="cls-9" d="M50.18,49.26c-8-3.75-15.51-3.15-20.1,2.62a15.52,15.52,0,0,0-1.8,2.86,21.11,21.11,0,0,0-1.92,6.2C24.61,71.83,29,86.86,38.41,99.1c5.79,7.54,12.44,12.7,18.68,15.06a21.93,21.93,0,0,0,6.34,1.46,13.24,13.24,0,0,0,11.71-5,20.41,20.41,0,0,0,4-11C80.07,89,75.62,75,66.8,63.44,61.65,56.72,55.8,51.9,50.18,49.26Z"/><path class="cls-9" d="M50.18,49.25h0c-1,10.68,3.46,24.67,12.3,36.19,5.16,6.72,11,11.54,16.62,14.19h0"/><polyline class="cls-9" points="111.94 123.81 111.96 123.85 111.98 123.92 111.97 123.92 113.87 130.39 89.81 144.03"/><polyline class="cls-9" points="55.3 10.82 48.2 1.5 39.48 4.86 15.41 18.51"/><polyline class="cls-9" points="102.34 94.08 126.4 80.43 122.18 65.8 113.41 61.49 106.59 48.1 108.8 39.57 99.17 27.01 92.47 29.68 82.15 20.71 78.95 9.41 67.6 3.74 43.53 17.38"/><line class="cls-9" x1="78.95" y1="9.41" x2="54.88" y2="23.07"/><line class="cls-9" x1="99.17" y1="27.01" x2="75.13" y2="40.66"/><line class="cls-9" x1="108.8" y1="39.57" x2="84.75" y2="53.21"/><line class="cls-9" x1="122.18" y1="65.8" x2="98.11" y2="79.45"/><line class="cls-9" x1="127.79" y1="105.29" x2="103.72" y2="118.94"/><polyline class="cls-9" points="119.69 84.24 120.32 95.64 127.79 105.29 124.99 116.41 100.94 130.06"/><line class="cls-9" x1="4.29" y1="32.49" x2="17.19" y2="24.58"/></g></g></g></g></svg>