<svg xmlns="http://www.w3.org/2000/svg" xmlns:xlink="http://www.w3.org/1999/xlink" viewBox="0 0 213.82 128.97"><defs><style>.cls-1,.cls-8{fill:none;}.cls-2{fill:#c2c7cc;}.cls-3{fill:url(#New_Pattern_Swatch_2);}.cls-4{fill:#fff;}.cls-5{fill:#373a3a;}.cls-6{fill:#5f646b;}.cls-7{fill:#969a9e;}.cls-8{stroke:#373a3a;stroke-linecap:round;stroke-linejoin:round;stroke-width:3px;}</style><pattern id="New_Pattern_Swatch_2" data-name="New Pattern Swatch 2" width="16" height="19" patternTransform="translate(-415.38 40.41) scale(0.4)" patternUnits="userSpaceOnUse" viewBox="0 0 16 19"><rect class="cls-1" width="16" height="19"/><polygon class="cls-2" points="16 22.18 10.5 19 16 15.82 21.5 19 16 22.18"/><polygon class="cls-2" points="16 22.18 10.5 19 16 15.82 21.5 19 16 22.18"/><polygon class="cls-2" points="0 22.18 -5.5 19 0 15.82 5.5 19 0 22.18"/><polygon class="cls-2" points="0 22.18 -5.5 19 0 15.82 5.5 19 0 22.18"/><polygon class="cls-2" points="16 22.18 10.5 19 16 15.82 21.5 19 16 22.18"/><polygon class="cls-2" points="16 3.18 10.5 0 16 -3.17 21.5 0 16 3.18"/><polygon class="cls-2" points="16 22.18 10.5 19 16 15.82 21.5 19 16 22.18"/><polygon class="cls-2" points="0 22.18 -5.5 19 0 15.82 5.5 19 0 22.18"/><polygon class="cls-2" points="8 12.68 2.5 9.5 8 6.33 13.5 9.5 8 12.68"/><polygon class="cls-2" points="16 3.18 10.5 0 16 -3.17 21.5 0 16 3.18"/><polygon class="cls-2" points="0 3.18 -5.5 0 0 -3.17 5.5 0 0 3.18"/><polygon class="cls-2" points="0 22.18 -5.5 19 0 15.82 5.5 19 0 22.18"/><polygon class="cls-2" points="0 3.18 -5.5 0 0 -3.17 5.5 0 0 3.18"/><polygon class="cls-2" points="16 3.18 10.5 0 16 -3.17 21.5 0 16 3.18"/><polygon class="cls-2" points="16 3.18 10.5 0 16 -3.17 21.5 0 16 3.18"/><polygon class="cls-2" points="0 3.18 -5.5 0 0 -3.17 5.5 0 0 3.18"/><polygon class="cls-2" points="0 3.18 -5.5 0 0 -3.17 5.5 0 0 3.18"/></pattern></defs><g id="Layer_2" data-name="Layer 2"><g id="icons"><g id="copybook"><path class="cls-3" d="M195.54,89.22c4.69-1.73,18.28-6.64,18.28-11.61,0-2.29-9.46-10.27-14.6-10.27-7.6,0-13.38,8.66-19.47,12.63q-11.12,5.61-22,11.67Q146.4,98,135.35,104.74c-3.69,2.26-13.06,8.25-14.1,8.92.84,1,.41.85-1.29-.51-2-1-4-2.45-5.91-3.66C98,99.54,49.92,70.3,42,65.57S26.08,55,16.63,54.48c-2.52-.15-3.95,2.85-2.8,4.88,5,8.73,14.86,13.59,23,18.9,8.33,5.43,59.11,37.93,76.36,48.44,9.59,5.84,16.89-.86,25.07-6q11.81-7.33,23.93-14.15Q178.59,97.39,195.54,89.22Z"/><g id="copybook-2" data-name="copybook"><path class="cls-4" d="M205.57,69.92,120,119.32c-21-12.1-47.29-42.55-60.48-36.3l84.35-48.71C156.63,25.45,184,57.44,205.57,69.92ZM146.22,49.54c.5-1-.6-2.15-2.43-2.44s-3.73.35-4.22,1.42.6,2.15,2.44,2.43S145.73,50.61,146.22,49.54ZM132,57.75c.49-1.07-.6-2.16-2.44-2.44s-3.72.35-4.22,1.4.6,2.15,2.44,2.44S131.52,58.81,132,57.75Zm-15.59,9c.48-1.06-.6-2.16-2.44-2.43s-3.73.33-4.23,1.4.6,2.15,2.44,2.44S115.93,67.81,116.43,66.75Zm-15.66,9c.48-1.06-.6-2.15-2.44-2.43s-3.73.34-4.23,1.4.6,2.15,2.44,2.43S100.27,76.86,100.77,75.79Z"/><path class="cls-5" d="M143.79,47.1c1.83.29,2.93,1.39,2.43,2.44S143.84,51.24,142,51s-2.94-1.38-2.44-2.43S142,46.82,143.79,47.1Z"/><path class="cls-4" d="M143.89,34.31,59.52,83a8.19,8.19,0,0,0-1.18.68L1.5,50.89,87.06,1.5Zm-41.8,7.39,11-6.34L81,16.85,70,23.19Z"/><path class="cls-5" d="M129.58,55.31c1.84.28,2.93,1.37,2.44,2.44s-2.39,1.68-4.22,1.4-2.93-1.37-2.44-2.44S127.75,55,129.58,55.31Z"/><path class="cls-6" d="M120,119.32,58.34,83.71l1.2-.69C72.73,76.77,99.06,107.22,120,119.32Z"/><path class="cls-5" d="M114,64.32c1.84.27,2.92,1.37,2.44,2.43s-2.38,1.69-4.23,1.41-2.92-1.37-2.44-2.44S112.15,64,114,64.32Z"/><polygon class="cls-7" points="113.08 35.35 102.09 41.7 70.03 23.2 81.02 16.85 113.08 35.35"/><path class="cls-5" d="M98.33,73.36c1.84.28,2.92,1.37,2.44,2.43s-2.39,1.69-4.23,1.4-2.92-1.37-2.44-2.43S96.49,73.07,98.33,73.36Z"/><path class="cls-4" d="M59.52,83l-1.18.68A8.19,8.19,0,0,1,59.52,83Z"/><line class="cls-8" x1="1.5" y1="50.89" x2="58.34" y2="83.71"/><path class="cls-8" d="M59.54,83c13.19-6.25,39.52,24.2,60.48,36.3"/><path class="cls-8" d="M58.34,83.71A8.19,8.19,0,0,1,59.52,83"/><polyline class="cls-8" points="1.5 50.89 87.06 1.5 143.89 34.31"/><path class="cls-8" d="M58.34,83.71,120,119.32l85.55-49.4C184,57.44,156.63,25.45,143.89,34.31Z"/><path class="cls-8" d="M151.32,53.53c6.54,4,14.1,10.8,21.41,16.41"/><path class="cls-8" d="M136.41,62.14c6.52,4,14.1,10.8,21.41,16.4"/><path class="cls-8" d="M121.49,70.75c6.53,4,14.1,10.8,21.4,16.41"/><polygon class="cls-8" points="102.09 41.7 70.03 23.2 81.02 16.85 113.08 35.35 102.09 41.7"/><line class="cls-8" x1="59.09" y1="35.04" x2="82.39" y2="48.49"/><line class="cls-8" x1="50.03" y1="40.27" x2="73.32" y2="53.72"/><line class="cls-8" x1="40.96" y1="45.5" x2="64.26" y2="58.96"/><path class="cls-8" d="M146.22,49.54c-.49,1.07-2.38,1.7-4.21,1.41s-2.94-1.38-2.44-2.43,2.38-1.7,4.22-1.42S146.72,48.49,146.22,49.54Z"/><path class="cls-8" d="M132,57.75c-.5,1.06-2.39,1.68-4.22,1.4s-2.93-1.37-2.44-2.44,2.39-1.68,4.22-1.4S132.51,56.68,132,57.75Z"/><path class="cls-8" d="M116.43,66.75c-.5,1.06-2.38,1.69-4.23,1.41s-2.92-1.37-2.44-2.44,2.39-1.69,4.23-1.4S116.91,65.69,116.43,66.75Z"/><path class="cls-8" d="M105.83,79.8c6.53,4,14.1,10.8,21.4,16.4"/><path class="cls-8" d="M100.77,75.79c-.5,1.07-2.39,1.69-4.23,1.4s-2.92-1.37-2.44-2.43,2.39-1.69,4.23-1.4S101.25,74.73,100.77,75.79Z"/></g></g></g></g></svg>