<svg xmlns="http://www.w3.org/2000/svg" xmlns:xlink="http://www.w3.org/1999/xlink" viewBox="0 0 180.64 204.33"><defs><style>.cls-1,.cls-7{fill:none;}.cls-2{fill:#c2c7cc;}.cls-3{fill:url(#New_Pattern_Swatch_2);}.cls-4{fill:#969a9e;}.cls-5{fill:#fff;}.cls-6{fill:#373a3a;}.cls-7{stroke:#373a3a;stroke-linecap:round;stroke-linejoin:round;stroke-width:3px;}</style><pattern id="New_Pattern_Swatch_2" data-name="New Pattern Swatch 2" width="16" height="19" patternTransform="translate(-415.38 40.41) scale(0.4)" patternUnits="userSpaceOnUse" viewBox="0 0 16 19"><rect class="cls-1" width="16" height="19"/><polygon class="cls-2" points="16 22.18 10.5 19 16 15.82 21.5 19 16 22.18"/><polygon class="cls-2" points="16 22.18 10.5 19 16 15.82 21.5 19 16 22.18"/><polygon class="cls-2" points="0 22.18 -5.5 19 0 15.82 5.5 19 0 22.18"/><polygon class="cls-2" points="0 22.18 -5.5 19 0 15.82 5.5 19 0 22.18"/><polygon class="cls-2" points="16 22.18 10.5 19 16 15.82 21.5 19 16 22.18"/><polygon class="cls-2" points="16 3.18 10.5 0 16 -3.17 21.5 0 16 3.18"/><polygon class="cls-2" points="16 22.18 10.5 19 16 15.82 21.5 19 16 22.18"/><polygon class="cls-2" points="0 22.18 -5.5 19 0 15.82 5.5 19 0 22.18"/><polygon class="cls-2" points="8 12.68 2.5 9.5 8 6.33 13.5 9.5 8 12.68"/><polygon class="cls-2" points="16 3.18 10.5 0 16 -3.17 21.5 0 16 3.18"/><polygon class="cls-2" points="0 3.18 -5.5 0 0 -3.17 5.5 0 0 3.18"/><polygon class="cls-2" points="0 22.18 -5.5 19 0 15.82 5.5 19 0 22.18"/><polygon class="cls-2" points="0 3.18 -5.5 0 0 -3.17 5.5 0 0 3.18"/><polygon class="cls-2" points="16 3.18 10.5 0 16 -3.17 21.5 0 16 3.18"/><polygon class="cls-2" points="16 3.18 10.5 0 16 -3.17 21.5 0 16 3.18"/><polygon class="cls-2" points="0 3.18 -5.5 0 0 -3.17 5.5 0 0 3.18"/><polygon class="cls-2" points="0 3.18 -5.5 0 0 -3.17 5.5 0 0 3.18"/></pattern></defs><g id="Layer_2" data-name="Layer 2"><g id="icons"><g id="diploma"><path class="cls-3" d="M98.38,199.22c7-2.78,14.57-11,19.68-11a62.22,62.22,0,0,1,24,6.69c5.19-1.19,22.93-17.75,38.61-23.4-.7-2.48-84.76-41.71-85.71-41.71-3,0-6.5,4.3-8.57,6.11-4.45,3.91-9.33,7.24-13.9,11l-2.83-.82c-6.93-2.06-12.24,4-12.31,9.9q-5.87-2.42-11.74-4.76a10.42,10.42,0,0,0,5.19-4.33,2.3,2.3,0,0,0-.35-2.69c-3.31-4.16-9.61-4.12-14.48-4.2-6.28-.11-12.6.41-18.87.68-6.61.29-10.85,10.53-3.71,13.69l1.84.8c.12.12.22.24.35.35,12.56,10.22,27,17.76,41.49,25Q77.37,190.65,98.38,199.22Z"/><g id="diploma-2" data-name="diploma"><polygon class="cls-4" points="110.67 49.66 110.67 169.21 84.91 154.32 84.91 64.53 27.25 31.24 27.25 1.5 110.67 49.66"/><path class="cls-5" d="M16.14,53.5l6.85,4-3.42-9.93ZM84.9,154.32v29.76L65.11,172.64a13.43,13.43,0,0,0,2.27-8.13c0-10.12-7.11-22.43-15.88-27.49s-15.87-1-15.87,9.16a29.37,29.37,0,0,0,2.26,10.75l-36.39-21V16.37L84.9,64.53Z"/><path class="cls-5" d="M61.7,175.29c-2.75,1.08-6.32.63-10.2-1.61A31.58,31.58,0,0,1,41.29,163.5a39,39,0,0,1-3.4-6.57,29.37,29.37,0,0,1-2.26-10.75c0-10.12,7.1-14.23,15.87-9.16s15.88,17.37,15.88,27.49a13.43,13.43,0,0,1-2.27,8.13A7.78,7.78,0,0,1,61.7,175.29Zm-4.08-16.41a13.53,13.53,0,0,0-6.12-10.6c-3.38-1.95-6.11-.37-6.11,3.53a13.5,13.5,0,0,0,6.11,10.6C54.88,164.36,57.62,162.78,57.62,158.88Z"/><path class="cls-4" d="M61.7,175.29v27.54L51.38,190l-10.09,1V163.5A31.58,31.58,0,0,0,51.5,173.68C55.38,175.92,59,176.37,61.7,175.29Z"/><path class="cls-6" d="M51.5,148.28a13.53,13.53,0,0,1,6.12,10.6c0,3.9-2.74,5.48-6.12,3.53a13.5,13.5,0,0,1-6.11-10.6C45.39,147.91,48.12,146.33,51.5,148.28Z"/><polygon class="cls-5" points="22.99 57.46 16.14 53.5 19.57 47.53 22.99 57.46"/><line class="cls-7" x1="31.39" y1="56.2" x2="67.71" y2="77.17"/><line class="cls-7" x1="31.39" y1="67.85" x2="52.49" y2="80.03"/><line class="cls-7" x1="57.85" y1="83.12" x2="67.71" y2="88.82"/><line class="cls-7" x1="15.9" y1="70.56" x2="67.71" y2="100.47"/><line class="cls-7" x1="15.9" y1="82.2" x2="28" y2="89.2"/><line class="cls-7" x1="34.62" y1="93.02" x2="67.71" y2="112.13"/><line class="cls-7" x1="15.9" y1="93.86" x2="67.71" y2="123.78"/><line class="cls-7" x1="15.9" y1="105.51" x2="41.77" y2="120.45"/><line class="cls-7" x1="48.74" y1="124.48" x2="67.71" y2="135.43"/><line class="cls-7" x1="15.9" y1="117.17" x2="32.08" y2="126.5"/><line class="cls-7" x1="23" y1="57.46" x2="25.01" y2="63.27"/><polyline class="cls-7" points="14.13 57 19.57 47.53 22.99 57.46"/><polyline class="cls-7" points="16.14 53.5 22.99 57.46 23 57.46"/><polyline class="cls-7" points="84.91 154.32 110.67 169.21 110.67 49.66 27.25 1.5 27.25 31.24"/><polyline class="cls-7" points="65.11 172.64 84.91 184.08 84.91 64.53 1.5 16.37 1.5 135.92 37.89 156.93"/><path class="cls-7" d="M37.89,156.93a29.33,29.33,0,0,1-2.26-10.75c0-10.12,7.1-14.23,15.87-9.16s15.88,17.37,15.88,27.49a13.43,13.43,0,0,1-2.27,8.13,7.78,7.78,0,0,1-3.41,2.65c-2.75,1.09-6.32.63-10.2-1.61A31.48,31.48,0,0,1,41.29,163.5,39,39,0,0,1,37.89,156.93Z"/><path class="cls-7" d="M57.62,158.88c0,3.9-2.74,5.48-6.12,3.53a13.5,13.5,0,0,1-6.11-10.6c0-3.9,2.73-5.48,6.11-3.53A13.53,13.53,0,0,1,57.62,158.88Z"/><polyline class="cls-7" points="61.7 175.28 61.7 202.83 51.38 190.03 41.29 191.04 41.29 163.5"/></g></g></g></g></svg>