<svg xmlns="http://www.w3.org/2000/svg" xmlns:xlink="http://www.w3.org/1999/xlink" viewBox="0 0 194.06 124.11"><defs><style>.cls-1,.cls-7{fill:none;}.cls-2{fill:#c2c7cc;}.cls-3{fill:url(#New_Pattern_Swatch_2);}.cls-4{fill:#969a9e;}.cls-5{fill:#dae0e5;}.cls-6{fill:#fff;}.cls-7{stroke:#373a3a;stroke-linecap:round;stroke-linejoin:round;stroke-width:3px;}</style><pattern id="New_Pattern_Swatch_2" data-name="New Pattern Swatch 2" width="16" height="19" patternTransform="translate(-415.38 40.41) scale(0.4)" patternUnits="userSpaceOnUse" viewBox="0 0 16 19"><rect class="cls-1" width="16" height="19"/><polygon class="cls-2" points="16 22.18 10.5 19 16 15.82 21.5 19 16 22.18"/><polygon class="cls-2" points="16 22.18 10.5 19 16 15.82 21.5 19 16 22.18"/><polygon class="cls-2" points="0 22.18 -5.5 19 0 15.82 5.5 19 0 22.18"/><polygon class="cls-2" points="0 22.18 -5.5 19 0 15.82 5.5 19 0 22.18"/><polygon class="cls-2" points="16 22.18 10.5 19 16 15.82 21.5 19 16 22.18"/><polygon class="cls-2" points="16 3.18 10.5 0 16 -3.17 21.5 0 16 3.18"/><polygon class="cls-2" points="16 22.18 10.5 19 16 15.82 21.5 19 16 22.18"/><polygon class="cls-2" points="0 22.18 -5.5 19 0 15.82 5.5 19 0 22.18"/><polygon class="cls-2" points="8 12.68 2.5 9.5 8 6.33 13.5 9.5 8 12.68"/><polygon class="cls-2" points="16 3.18 10.5 0 16 -3.17 21.5 0 16 3.18"/><polygon class="cls-2" points="0 3.18 -5.5 0 0 -3.17 5.5 0 0 3.18"/><polygon class="cls-2" points="0 22.18 -5.5 19 0 15.82 5.5 19 0 22.18"/><polygon class="cls-2" points="0 3.18 -5.5 0 0 -3.17 5.5 0 0 3.18"/><polygon class="cls-2" points="16 3.18 10.5 0 16 -3.17 21.5 0 16 3.18"/><polygon class="cls-2" points="16 3.18 10.5 0 16 -3.17 21.5 0 16 3.18"/><polygon class="cls-2" points="0 3.18 -5.5 0 0 -3.17 5.5 0 0 3.18"/><polygon class="cls-2" points="0 3.18 -5.5 0 0 -3.17 5.5 0 0 3.18"/></pattern></defs><g id="Layer_2" data-name="Layer 2"><g id="icons"><g id="documents_stack" data-name="documents stack"><path class="cls-3" d="M193,62.78A37.68,37.68,0,0,0,176.5,50.05c-4-1.66-9.16,1.81-10.05,5.7-.59,2.6-2.83,3.93-5,5.24-3.67,2.21-7.54,4.11-11.31,6.14L127.28,79.4c-15.82,8.49-31.86,16.66-47.46,25.54l.17.13a7.86,7.86,0,0,0-4.25,8.38c0,.16.06.31.09.46a5.17,5.17,0,0,0,2.44,7.77C86.61,125.07,96.91,125,105,121c7.56-3.79,14.94-8.08,22.3-12.33,6,.56,12.16,2,18,2,6.55,0,9.3-5.68,12.18-10.59l7.74-13.15c8.31-4.74,16.64-9.43,25.06-14C193.55,71.16,195.33,65.9,193,62.78Z"/><g id="documents_stack-2" data-name="documents stack"><polygon class="cls-4" points="171.44 45.27 171.44 64.83 125.3 91.47 125.08 91.08 139.39 63.78 171.44 45.27"/><polygon class="cls-5" points="171.44 45.27 139.39 63.78 154.28 35.37 171.44 45.27"/><path class="cls-6" d="M62.8,22.61l9.1,1.6-1.79-6.08Zm98.66-.95L125.08,91.09l-17.13-3L102.76,98,13.66,82.42,9.93,80.26,50.79,2.32,117.1,13.9h0Z"/><polygon class="cls-4" points="125.08 91.08 125.3 91.47 77.32 119.17 77.32 99.61 85.4 94.94 102.76 97.98 125.08 91.08"/><polygon class="cls-6" points="125.08 91.08 102.76 97.98 107.95 88.09 125.08 91.08"/><polygon class="cls-5" points="117.1 13.9 84.1 8.14 95.61 1.5 117.1 13.9"/><polygon class="cls-5" points="85.4 94.94 77.32 99.61 62.24 90.91 85.4 94.94"/><polygon class="cls-6" points="77.32 99.61 77.32 119.17 13.66 82.42 62.24 90.91 77.32 99.61"/><polygon class="cls-6" points="70.11 18.13 71.9 24.21 62.8 22.61 70.11 18.13"/><polygon class="cls-5" points="31.95 38.24 17.8 65.25 1.5 55.84 31.95 38.24"/><polygon class="cls-6" points="17.8 65.25 9.93 80.26 1.5 75.39 1.5 55.84 17.8 65.25"/><polygon class="cls-6" points="9.93 80.26 13.66 82.42 9.21 81.64 9.93 80.26"/><line class="cls-7" x1="85.98" y1="22.52" x2="134.18" y2="30.95"/><line class="cls-7" x1="82.36" y1="29.41" x2="110.36" y2="34.3"/><line class="cls-7" x1="117.48" y1="35.55" x2="130.57" y2="37.83"/><line class="cls-7" x1="58.2" y1="32.7" x2="126.97" y2="44.71"/><line class="cls-7" x1="54.59" y1="39.58" x2="70.67" y2="42.39"/><line class="cls-7" x1="79.44" y1="43.93" x2="123.36" y2="51.6"/><line class="cls-7" x1="50.99" y1="46.47" x2="119.75" y2="58.48"/><line class="cls-7" x1="47.38" y1="53.36" x2="81.71" y2="59.35"/><line class="cls-7" x1="90.96" y1="60.97" x2="116.13" y2="65.37"/><line class="cls-7" x1="43.77" y1="60.25" x2="112.53" y2="72.26"/><line class="cls-7" x1="40.15" y1="67.12" x2="63.82" y2="71.26"/><line class="cls-7" x1="74.49" y1="73.12" x2="108.92" y2="79.14"/><polyline class="cls-7" points="58.51 25.24 70.11 18.13 72.94 27.76"/><line class="cls-7" x1="62.8" y1="22.61" x2="71.9" y2="24.21"/><polygon class="cls-7" points="117.1 13.9 50.78 2.32 9.21 81.64 102.76 97.98 125.08 91.08 161.46 21.66 117.11 13.91 117.1 13.9"/><polyline class="cls-7" points="102.76 97.98 107.95 88.09 125.08 91.08"/><polyline class="cls-7" points="31.95 38.24 1.5 55.84 17.8 65.25"/><polyline class="cls-7" points="62.24 90.91 77.32 99.61 85.4 94.94"/><polyline class="cls-7" points="139.39 63.78 171.44 45.27 154.28 35.37"/><polyline class="cls-7" points="117.11 13.91 117.1 13.9 95.61 1.5 84.1 8.14"/><line class="cls-7" x1="77.32" y1="119.17" x2="77.32" y2="99.61"/><polyline class="cls-7" points="1.5 55.84 1.5 75.39 77.32 119.17 171.44 64.83 171.44 45.27"/></g></g></g></g></svg>