<svg xmlns="http://www.w3.org/2000/svg" xmlns:xlink="http://www.w3.org/1999/xlink" viewBox="0 0 195.73 116.88"><defs><style>.cls-1,.cls-5{fill:none;}.cls-2{fill:#c2c7cc;}.cls-3{fill:url(#New_Pattern_Swatch_2);}.cls-4{fill:#fff;}.cls-5{stroke:#373a3a;stroke-linecap:round;stroke-linejoin:round;stroke-width:3px;}</style><pattern id="New_Pattern_Swatch_2" data-name="New Pattern Swatch 2" width="16" height="19" patternTransform="translate(-415.38 40.41) scale(0.4)" patternUnits="userSpaceOnUse" viewBox="0 0 16 19"><rect class="cls-1" width="16" height="19"/><polygon class="cls-2" points="16 22.18 10.5 19 16 15.82 21.5 19 16 22.18"/><polygon class="cls-2" points="16 22.18 10.5 19 16 15.82 21.5 19 16 22.18"/><polygon class="cls-2" points="0 22.18 -5.5 19 0 15.82 5.5 19 0 22.18"/><polygon class="cls-2" points="0 22.18 -5.5 19 0 15.82 5.5 19 0 22.18"/><polygon class="cls-2" points="16 22.18 10.5 19 16 15.82 21.5 19 16 22.18"/><polygon class="cls-2" points="16 3.18 10.5 0 16 -3.17 21.5 0 16 3.18"/><polygon class="cls-2" points="16 22.18 10.5 19 16 15.82 21.5 19 16 22.18"/><polygon class="cls-2" points="0 22.18 -5.5 19 0 15.82 5.5 19 0 22.18"/><polygon class="cls-2" points="8 12.68 2.5 9.5 8 6.33 13.5 9.5 8 12.68"/><polygon class="cls-2" points="16 3.18 10.5 0 16 -3.17 21.5 0 16 3.18"/><polygon class="cls-2" points="0 3.18 -5.5 0 0 -3.17 5.5 0 0 3.18"/><polygon class="cls-2" points="0 22.18 -5.5 19 0 15.82 5.5 19 0 22.18"/><polygon class="cls-2" points="0 3.18 -5.5 0 0 -3.17 5.5 0 0 3.18"/><polygon class="cls-2" points="16 3.18 10.5 0 16 -3.17 21.5 0 16 3.18"/><polygon class="cls-2" points="16 3.18 10.5 0 16 -3.17 21.5 0 16 3.18"/><polygon class="cls-2" points="0 3.18 -5.5 0 0 -3.17 5.5 0 0 3.18"/><polygon class="cls-2" points="0 3.18 -5.5 0 0 -3.17 5.5 0 0 3.18"/></pattern></defs><g id="Layer_2" data-name="Layer 2"><g id="icons"><g id="document"><polygon class="cls-3" points="195.73 63.64 103.52 116.88 77.25 116.88 5.51 75.47 110.85 14.64 195.73 63.64"/><g id="document-2" data-name="document"><path class="cls-4" d="M100.62,23.47l7,4,3.51-6.06Zm91.1,27L99.51,103.74,86.37,96.16l-13.13,7.58L1.5,62.32,106.84,1.5Z"/><polygon class="cls-4" points="111.11 21.44 107.6 27.5 100.62 23.47 111.11 21.44"/><polygon class="cls-2" points="99.51 103.74 73.24 103.74 86.37 96.16 99.51 103.74"/><line class="cls-5" x1="121.91" y1="29.95" x2="158.88" y2="51.28"/><line class="cls-5" x1="112.77" y1="35.22" x2="134.24" y2="47.62"/><line class="cls-5" x1="139.7" y1="50.76" x2="149.74" y2="56.57"/><line class="cls-5" x1="87.86" y1="31.4" x2="140.59" y2="61.85"/><line class="cls-5" x1="78.71" y1="36.68" x2="91.04" y2="43.79"/><line class="cls-5" x1="97.77" y1="47.68" x2="131.45" y2="67.12"/><line class="cls-5" x1="69.57" y1="41.96" x2="122.29" y2="72.41"/><line class="cls-5" x1="60.43" y1="47.24" x2="86.75" y2="62.44"/><line class="cls-5" x1="93.84" y1="66.53" x2="113.15" y2="77.68"/><line class="cls-5" x1="51.28" y1="52.52" x2="104.01" y2="82.96"/><line class="cls-5" x1="42.14" y1="57.8" x2="60.28" y2="68.27"/><line class="cls-5" x1="68.46" y1="73" x2="94.86" y2="88.25"/><polyline class="cls-5" points="94.47 24.66 111.11 21.44 105.55 31.05"/><line class="cls-5" x1="100.62" y1="23.47" x2="107.6" y2="27.5"/><polygon class="cls-5" points="99.51 103.74 191.72 50.5 106.84 1.5 1.5 62.32 73.24 103.74 99.51 103.74"/><polyline class="cls-5" points="73.24 103.74 86.37 96.16 99.51 103.74"/></g></g></g></g></svg>