<svg xmlns="http://www.w3.org/2000/svg" xmlns:xlink="http://www.w3.org/1999/xlink" viewBox="0 0 157.29 176.86"><defs><style>.cls-1,.cls-5{fill:none;}.cls-2{fill:#c2c7cc;}.cls-3{fill:url(#New_Pattern_Swatch_2);}.cls-4{fill:#fff;}.cls-5{stroke:#373a3a;stroke-linecap:round;stroke-linejoin:round;stroke-width:3px;}</style><pattern id="New_Pattern_Swatch_2" data-name="New Pattern Swatch 2" width="16" height="19" patternTransform="translate(-415.38 40.41) scale(0.4)" patternUnits="userSpaceOnUse" viewBox="0 0 16 19"><rect class="cls-1" width="16" height="19"/><polygon class="cls-2" points="16 22.18 10.5 19 16 15.82 21.5 19 16 22.18"/><polygon class="cls-2" points="16 22.18 10.5 19 16 15.82 21.5 19 16 22.18"/><polygon class="cls-2" points="0 22.18 -5.5 19 0 15.82 5.5 19 0 22.18"/><polygon class="cls-2" points="0 22.18 -5.5 19 0 15.82 5.5 19 0 22.18"/><polygon class="cls-2" points="16 22.18 10.5 19 16 15.82 21.5 19 16 22.18"/><polygon class="cls-2" points="16 3.18 10.5 0 16 -3.17 21.5 0 16 3.18"/><polygon class="cls-2" points="16 22.18 10.5 19 16 15.82 21.5 19 16 22.18"/><polygon class="cls-2" points="0 22.18 -5.5 19 0 15.82 5.5 19 0 22.18"/><polygon class="cls-2" points="8 12.68 2.5 9.5 8 6.33 13.5 9.5 8 12.68"/><polygon class="cls-2" points="16 3.18 10.5 0 16 -3.17 21.5 0 16 3.18"/><polygon class="cls-2" points="0 3.18 -5.5 0 0 -3.17 5.5 0 0 3.18"/><polygon class="cls-2" points="0 22.18 -5.5 19 0 15.82 5.5 19 0 22.18"/><polygon class="cls-2" points="0 3.18 -5.5 0 0 -3.17 5.5 0 0 3.18"/><polygon class="cls-2" points="16 3.18 10.5 0 16 -3.17 21.5 0 16 3.18"/><polygon class="cls-2" points="16 3.18 10.5 0 16 -3.17 21.5 0 16 3.18"/><polygon class="cls-2" points="0 3.18 -5.5 0 0 -3.17 5.5 0 0 3.18"/><polygon class="cls-2" points="0 3.18 -5.5 0 0 -3.17 5.5 0 0 3.18"/></pattern></defs><g id="Layer_2" data-name="Layer 2"><g id="icons"><g id="document"><path class="cls-3" d="M66.24,115a5.67,5.67,0,0,1-2.58,2.36v39.47l12.89,15,80.74,5Z"/><g id="document-2" data-name="document"><path class="cls-4" d="M18.13,37.82,25.43,42,21.78,31.47Zm72.09,14.9V164l-13.73-7.93v15.85l-75-43.3V1.5Z"/><polygon class="cls-2" points="90.22 164.02 76.49 171.94 76.49 156.09 90.22 164.02"/><polygon class="cls-4" points="21.78 31.47 25.43 42.04 18.13 37.82 21.78 31.47"/><line class="cls-5" x1="35.12" y1="41.55" x2="73.76" y2="63.85"/><line class="cls-5" x1="35.12" y1="52.59" x2="57.57" y2="65.54"/><line class="cls-5" x1="63.26" y1="68.83" x2="73.76" y2="74.9"/><line class="cls-5" x1="18.64" y1="54.11" x2="73.76" y2="85.93"/><line class="cls-5" x1="18.64" y1="65.14" x2="31.53" y2="72.59"/><line class="cls-5" x1="38.56" y1="76.65" x2="73.76" y2="96.96"/><line class="cls-5" x1="18.64" y1="76.18" x2="73.76" y2="108"/><line class="cls-5" x1="18.64" y1="87.21" x2="46.17" y2="103.11"/><line class="cls-5" x1="53.57" y1="107.38" x2="73.76" y2="119.03"/><line class="cls-5" x1="18.64" y1="98.26" x2="73.76" y2="130.08"/><line class="cls-5" x1="18.64" y1="109.29" x2="37.61" y2="120.24"/><line class="cls-5" x1="46.17" y1="125.18" x2="73.76" y2="141.11"/><polyline class="cls-5" points="16 41.55 21.78 31.47 27.57 48.22"/><line class="cls-5" x1="18.13" y1="37.82" x2="25.43" y2="42.04"/><polygon class="cls-5" points="90.22 164.02 90.22 52.72 1.5 1.5 1.5 128.64 76.49 171.94 90.22 164.02"/><polyline class="cls-5" points="76.49 171.94 76.49 156.09 90.22 164.02"/></g></g></g></g></svg>