<svg xmlns="http://www.w3.org/2000/svg" xmlns:xlink="http://www.w3.org/1999/xlink" viewBox="0 0 142.32 170.32"><defs><style>.cls-1,.cls-5{fill:none;}.cls-2{fill:#c2c7cc;}.cls-3{fill:url(#New_Pattern_Swatch_2);}.cls-4{fill:#fff;}.cls-5{stroke:#373a3a;stroke-linecap:round;stroke-linejoin:round;stroke-width:3px;}</style><pattern id="New_Pattern_Swatch_2" data-name="New Pattern Swatch 2" width="16" height="19" patternTransform="translate(-415.38 40.41) scale(0.4)" patternUnits="userSpaceOnUse" viewBox="0 0 16 19"><rect class="cls-1" width="16" height="19"/><polygon class="cls-2" points="16 22.18 10.5 19 16 15.82 21.5 19 16 22.18"/><polygon class="cls-2" points="16 22.18 10.5 19 16 15.82 21.5 19 16 22.18"/><polygon class="cls-2" points="0 22.18 -5.5 19 0 15.82 5.5 19 0 22.18"/><polygon class="cls-2" points="0 22.18 -5.5 19 0 15.82 5.5 19 0 22.18"/><polygon class="cls-2" points="16 22.18 10.5 19 16 15.82 21.5 19 16 22.18"/><polygon class="cls-2" points="16 3.18 10.5 0 16 -3.17 21.5 0 16 3.18"/><polygon class="cls-2" points="16 22.18 10.5 19 16 15.82 21.5 19 16 22.18"/><polygon class="cls-2" points="0 22.18 -5.5 19 0 15.82 5.5 19 0 22.18"/><polygon class="cls-2" points="8 12.68 2.5 9.5 8 6.33 13.5 9.5 8 12.68"/><polygon class="cls-2" points="16 3.18 10.5 0 16 -3.17 21.5 0 16 3.18"/><polygon class="cls-2" points="0 3.18 -5.5 0 0 -3.17 5.5 0 0 3.18"/><polygon class="cls-2" points="0 22.18 -5.5 19 0 15.82 5.5 19 0 22.18"/><polygon class="cls-2" points="0 3.18 -5.5 0 0 -3.17 5.5 0 0 3.18"/><polygon class="cls-2" points="16 3.18 10.5 0 16 -3.17 21.5 0 16 3.18"/><polygon class="cls-2" points="16 3.18 10.5 0 16 -3.17 21.5 0 16 3.18"/><polygon class="cls-2" points="0 3.18 -5.5 0 0 -3.17 5.5 0 0 3.18"/><polygon class="cls-2" points="0 3.18 -5.5 0 0 -3.17 5.5 0 0 3.18"/></pattern></defs><g id="Layer_2" data-name="Layer 2"><g id="icons"><g id="flask"><path class="cls-3" d="M52.2,169.63a93.89,93.89,0,0,0,11.55.69c17.67,0,19.7-5.08,37.15-5.08,8.59,0,14,4.73,20.84,4.73,3.6,0,20.58-8.73,20.58-14.08,0-3.09-16.94-5.22-16.94-10,0-1.28,1-2.28,1-3.68,0-11.57-34.51-24.1-42.21-28.19-1.3-.69-3-2.29-4.5-2.31l-1.59-.52c-4.66-1.47-9.87,1.74-11.13,6.32-.08.31-.15.62-.2.92a11.85,11.85,0,0,0-2.49,2.18Q48.14,131.57,33,144a8.23,8.23,0,0,0-2.09,2.47c-.9-.35-1.81-.69-2.74-1-3.7-1.24-7.11,3.36-5.07,6.6C30,162.93,40.46,168.18,52.2,169.63Z"/><g id="flask-2" data-name="flask"><path class="cls-2" d="M1.61,132C3,116.34,26.46,101,35.4,80.65a5.92,5.92,0,0,0-.51,2c0,.12,0,.24,0,.37,0,2.17,1.5,4.35,4.38,6a21.69,21.69,0,0,0,10.58,2.52A21.65,21.65,0,0,0,60.41,89c2.88-1.67,4.34-3.85,4.37-6a2.26,2.26,0,0,0,0-.37,5.67,5.67,0,0,0-.5-2h0c9,20.51,32.89,35.95,33.82,51.72v0q0,.51,0,1a9.25,9.25,0,0,1,0,1.18c-.25,7-4.84,14.09-14.16,19.47s-21.81,8.17-34.17,8.17-24.74-2.73-34.18-8.17-14-12.42-14.16-19.47a7.71,7.71,0,0,1,.05-1.18C1.55,132.94,1.57,132.45,1.61,132Z"/><path class="cls-2" d="M63.55,4.78c5.92,3.42,7.22,8.47,3.9,12.62h0a14.07,14.07,0,0,1-3.89,3.21,23.91,23.91,0,0,1-6.4,2.46,32.12,32.12,0,0,1-7.31.81,32.69,32.69,0,0,1-7.31-.81,23.65,23.65,0,0,1-6.41-2.46,14.36,14.36,0,0,1-3.89-3.19v0c-3.34-4.14-2-9.2,3.89-12.62A28,28,0,0,1,49.84,1.5a32.12,32.12,0,0,1,7.31.81A23.6,23.6,0,0,1,63.55,4.78ZM60.81,15.13c2.08-2.16,1.25-4.77-2.43-6.53a16.88,16.88,0,0,0-4-1.28C46,5.69,37.72,8.85,37.72,12.68a3.58,3.58,0,0,0,1.15,2.45C43.44,19.7,56.55,19.42,60.81,15.13Z"/><path class="cls-4" d="M67.44,17.4h0C59.36,28.63,58,55,61.57,72.3a42.2,42.2,0,0,0,2.71,8.35h0a9.08,9.08,0,0,0-3.86-3.86,21.65,21.65,0,0,0-10.57-2.52,21.62,21.62,0,0,0-10.57,2.52,9.05,9.05,0,0,0-3.87,3.86,41.53,41.53,0,0,0,2.7-8.35C41.63,55,40.31,28.64,32.23,17.42a14.36,14.36,0,0,0,3.89,3.19,23.65,23.65,0,0,0,6.41,2.46,32.69,32.69,0,0,0,7.31.81,32.12,32.12,0,0,0,7.31-.81,23.91,23.91,0,0,0,6.4-2.46A14.07,14.07,0,0,0,67.44,17.4Z"/><path class="cls-4" d="M64.77,82.62a2.26,2.26,0,0,1,0,.37c0,2.17-1.49,4.35-4.37,6a21.65,21.65,0,0,1-10.57,2.52A21.69,21.69,0,0,1,39.26,89c-2.88-1.67-4.35-3.85-4.38-6,0-.13,0-.25,0-.37a5.69,5.69,0,0,1,.51-2,9.05,9.05,0,0,1,3.87-3.86,21.62,21.62,0,0,1,10.57-2.52,21.65,21.65,0,0,1,10.57,2.52,9,9,0,0,1,3.86,3.86A5.67,5.67,0,0,1,64.77,82.62Z"/><path class="cls-4" d="M58.38,8.6c3.68,1.76,4.51,4.37,2.43,6.53-4.26,4.29-17.37,4.57-21.94,0a3.58,3.58,0,0,1-1.15-2.45c0-3.83,8.29-7,16.68-5.36A16.88,16.88,0,0,1,58.38,8.6Z"/><path class="cls-5" d="M67.44,17.4a14.07,14.07,0,0,1-3.89,3.21,23.91,23.91,0,0,1-6.4,2.46,32.12,32.12,0,0,1-7.31.81,32.69,32.69,0,0,1-7.31-.81,23.65,23.65,0,0,1-6.41-2.46,14.36,14.36,0,0,1-3.89-3.19v0c-3.34-4.14-2-9.2,3.89-12.62A28,28,0,0,1,49.84,1.5a32.12,32.12,0,0,1,7.31.81,23.6,23.6,0,0,1,6.4,2.47c5.92,3.42,7.22,8.47,3.9,12.62Z"/><path class="cls-5" d="M60.81,15.13c-4.26,4.29-17.37,4.57-21.94,0a3.58,3.58,0,0,1-1.15-2.45c0-3.83,8.29-7,16.68-5.36a16.88,16.88,0,0,1,4,1.28C62.06,10.36,62.89,13,60.81,15.13Z"/><path class="cls-5" d="M98.1,132.39q0,.51,0,1a9.25,9.25,0,0,1,0,1.18c-.25,7-4.84,14.09-14.16,19.47s-21.81,8.17-34.17,8.17-24.74-2.73-34.18-8.17-14-12.42-14.16-19.47a7.71,7.71,0,0,1,.05-1.18c0-.47,0-1,.06-1.43C3,116.34,26.46,101,35.4,80.65"/><path class="cls-5" d="M64.28,80.65c9,20.51,32.89,35.95,33.82,51.72"/><path class="cls-5" d="M64.27,80.65a5.67,5.67,0,0,1,.5,2,2.26,2.26,0,0,1,0,.37c0,2.17-1.49,4.35-4.37,6a21.65,21.65,0,0,1-10.57,2.52A21.69,21.69,0,0,1,39.26,89c-2.88-1.67-4.35-3.85-4.38-6,0-.13,0-.25,0-.37a5.92,5.92,0,0,1,.51-2"/><path class="cls-5" d="M67.44,17.4h0C59.36,28.63,58,55,61.57,72.3a42.2,42.2,0,0,0,2.71,8.35h0a9.08,9.08,0,0,0-3.86-3.86,21.65,21.65,0,0,0-10.57-2.52,21.62,21.62,0,0,0-10.57,2.52,9.05,9.05,0,0,0-3.87,3.86,41.53,41.53,0,0,0,2.7-8.35C41.63,55,40.31,28.64,32.23,17.42"/><path class="cls-5" d="M1.59,132.1s0-.08,0-.12c.94-6.34,5.6-12.51,14-17.36a54,54,0,0,1,10.25-4.52"/><path class="cls-5" d="M37.25,107.39c16.15-2.51,34.12-.09,46.8,7.23,8.57,4.93,13.25,11.28,14,17.75v0"/></g></g></g></g></svg>