<svg xmlns="http://www.w3.org/2000/svg" xmlns:xlink="http://www.w3.org/1999/xlink" viewBox="0 0 165.49 169.47"><defs><style>.cls-1,.cls-8{fill:none;}.cls-2{fill:#c2c7cc;}.cls-3{fill:url(#New_Pattern_Swatch_2);}.cls-4{fill:#dae0e5;}.cls-5{fill:#fff;}.cls-6{fill:#5f646b;}.cls-7{fill:#373a3a;}.cls-8{stroke:#373a3a;stroke-linecap:round;stroke-linejoin:round;stroke-width:3px;}</style><pattern id="New_Pattern_Swatch_2" data-name="New Pattern Swatch 2" width="16" height="19" patternTransform="translate(-415.38 40.41) scale(0.4)" patternUnits="userSpaceOnUse" viewBox="0 0 16 19"><rect class="cls-1" width="16" height="19"/><polygon class="cls-2" points="16 22.18 10.5 19 16 15.82 21.5 19 16 22.18"/><polygon class="cls-2" points="16 22.18 10.5 19 16 15.82 21.5 19 16 22.18"/><polygon class="cls-2" points="0 22.18 -5.5 19 0 15.82 5.5 19 0 22.18"/><polygon class="cls-2" points="0 22.18 -5.5 19 0 15.82 5.5 19 0 22.18"/><polygon class="cls-2" points="16 22.18 10.5 19 16 15.82 21.5 19 16 22.18"/><polygon class="cls-2" points="16 3.18 10.5 0 16 -3.17 21.5 0 16 3.18"/><polygon class="cls-2" points="16 22.18 10.5 19 16 15.82 21.5 19 16 22.18"/><polygon class="cls-2" points="0 22.18 -5.5 19 0 15.82 5.5 19 0 22.18"/><polygon class="cls-2" points="8 12.68 2.5 9.5 8 6.33 13.5 9.5 8 12.68"/><polygon class="cls-2" points="16 3.18 10.5 0 16 -3.17 21.5 0 16 3.18"/><polygon class="cls-2" points="0 3.18 -5.5 0 0 -3.17 5.5 0 0 3.18"/><polygon class="cls-2" points="0 22.18 -5.5 19 0 15.82 5.5 19 0 22.18"/><polygon class="cls-2" points="0 3.18 -5.5 0 0 -3.17 5.5 0 0 3.18"/><polygon class="cls-2" points="16 3.18 10.5 0 16 -3.17 21.5 0 16 3.18"/><polygon class="cls-2" points="16 3.18 10.5 0 16 -3.17 21.5 0 16 3.18"/><polygon class="cls-2" points="0 3.18 -5.5 0 0 -3.17 5.5 0 0 3.18"/><polygon class="cls-2" points="0 3.18 -5.5 0 0 -3.17 5.5 0 0 3.18"/></pattern></defs><g id="Layer_2" data-name="Layer 2"><g id="icons"><g id="folder"><polygon class="cls-3" points="83.1 169.47 29.93 161.02 74.78 102.68 165.49 121.92 83.1 169.47"/><g id="folder-2" data-name="folder"><polygon class="cls-4" points="97.25 17.91 97.25 121.24 29.93 160.09 29.93 56.77 97.25 17.91"/><path class="cls-2" d="M79.11,17.45V28.37L29.93,56.77,24,53.35C67.51,28,79.11,17.45,79.11,17.45Z"/><path class="cls-5" d="M68.83,12.64c4.8,2.21,10.28,4.81,10.28,4.81S67.51,28,24,53.35L14.89,48.1C33.69,36.86,57.12,19.3,65.16,11Z"/><path class="cls-6" d="M68.83,1.5V12.64L65.16,11c-8,8.34-31.47,25.9-50.27,37.14L1.5,40.35Z"/><path class="cls-5" d="M29.93,56.77V160.09L1.5,143.68V40.35Zm-7.64,62.44V61.59l-14-8.07v57.63Zm-1.66,16.47a10.87,10.87,0,0,0-4.91-8.5c-2.71-1.57-4.92-.3-4.92,2.83a10.86,10.86,0,0,0,4.92,8.51C18.43,140.09,20.63,138.82,20.63,135.68Z"/><polygon class="cls-2" points="22.29 61.59 22.29 119.21 8.3 111.14 8.3 53.52 22.29 61.59"/><path class="cls-7" d="M15.72,127.18a10.87,10.87,0,0,1,4.91,8.5c0,3.14-2.2,4.41-4.91,2.84A10.86,10.86,0,0,1,10.8,130C10.8,126.88,13,125.61,15.72,127.18Z"/><polygon class="cls-8" points="29.93 160.09 1.5 143.68 1.5 40.35 29.93 56.77 29.93 160.09"/><polygon class="cls-8" points="22.29 119.21 8.3 111.14 8.3 53.52 22.29 61.59 22.29 119.21"/><path class="cls-8" d="M20.63,135.68a10.87,10.87,0,0,0-4.91-8.5c-2.71-1.57-4.92-.3-4.92,2.83a10.86,10.86,0,0,0,4.92,8.51C18.43,140.09,20.63,138.82,20.63,135.68Z"/><polyline class="cls-8" points="29.93 56.77 97.25 17.91 97.25 121.24 29.93 160.09"/><polyline class="cls-8" points="1.5 40.35 68.83 1.5 68.83 12.64"/><path class="cls-8" d="M14.89,48.1C33.69,36.86,57.12,19.3,65.16,11l14,6.49S67.51,28,24,53.35"/><line class="cls-8" x1="79.11" y1="17.45" x2="79.11" y2="28.37"/></g></g></g></g></svg>