<svg xmlns="http://www.w3.org/2000/svg" xmlns:xlink="http://www.w3.org/1999/xlink" viewBox="0 0 174.32 163.03"><defs><style>.cls-1,.cls-7{fill:none;}.cls-2{fill:#c2c7cc;}.cls-3{fill:url(#New_Pattern_Swatch_2);}.cls-4{fill:#373a3a;}.cls-5{fill:#dae0e5;}.cls-6{fill:#fff;}.cls-7{stroke:#373a3a;stroke-linecap:round;stroke-linejoin:round;stroke-width:3px;}</style><pattern id="New_Pattern_Swatch_2" data-name="New Pattern Swatch 2" width="16" height="19" patternTransform="translate(-415.38 40.41) scale(0.4)" patternUnits="userSpaceOnUse" viewBox="0 0 16 19"><rect class="cls-1" width="16" height="19"/><polygon class="cls-2" points="16 22.18 10.5 19 16 15.82 21.5 19 16 22.18"/><polygon class="cls-2" points="16 22.18 10.5 19 16 15.82 21.5 19 16 22.18"/><polygon class="cls-2" points="0 22.18 -5.5 19 0 15.82 5.5 19 0 22.18"/><polygon class="cls-2" points="0 22.18 -5.5 19 0 15.82 5.5 19 0 22.18"/><polygon class="cls-2" points="16 22.18 10.5 19 16 15.82 21.5 19 16 22.18"/><polygon class="cls-2" points="16 3.18 10.5 0 16 -3.17 21.5 0 16 3.18"/><polygon class="cls-2" points="16 22.18 10.5 19 16 15.82 21.5 19 16 22.18"/><polygon class="cls-2" points="0 22.18 -5.5 19 0 15.82 5.5 19 0 22.18"/><polygon class="cls-2" points="8 12.68 2.5 9.5 8 6.33 13.5 9.5 8 12.68"/><polygon class="cls-2" points="16 3.18 10.5 0 16 -3.17 21.5 0 16 3.18"/><polygon class="cls-2" points="0 3.18 -5.5 0 0 -3.17 5.5 0 0 3.18"/><polygon class="cls-2" points="0 22.18 -5.5 19 0 15.82 5.5 19 0 22.18"/><polygon class="cls-2" points="0 3.18 -5.5 0 0 -3.17 5.5 0 0 3.18"/><polygon class="cls-2" points="16 3.18 10.5 0 16 -3.17 21.5 0 16 3.18"/><polygon class="cls-2" points="16 3.18 10.5 0 16 -3.17 21.5 0 16 3.18"/><polygon class="cls-2" points="0 3.18 -5.5 0 0 -3.17 5.5 0 0 3.18"/><polygon class="cls-2" points="0 3.18 -5.5 0 0 -3.17 5.5 0 0 3.18"/></pattern></defs><g id="Layer_2" data-name="Layer 2"><g id="icons"><g id="folder"><polygon class="cls-3" points="101.61 115.07 174.32 149.12 110.4 162.5 64.64 135.62 101.61 115.07"/><g id="folder-2" data-name="folder"><polygon class="cls-4" points="129.71 70.76 109.51 161.53 103.3 140.19 119.69 64.98 129.71 70.76"/><path class="cls-5" d="M82.73,69.57,82.27,68,60.39,55.37c-4.5-2.6-7.55-1.36-7.83,3.19-.27,4.34-3.05,5.65-7.25,3.49l13-60.55,66.8,38.56L103.3,140.19Z"/><path class="cls-6" d="M103.3,140.19l6.21,21.34L23.33,111.76,1.5,36.77S45.11,62,45.31,62.05c4.23,2.09,7,.85,7.25-3.49.28-4.55,3.33-5.79,7.83-3.19L82.27,68Z"/><path class="cls-4" d="M53,26.45l-7.65,35.6-.6-.32-9.08-5.25L43.52,21Z"/><path class="cls-7" d="M119.69,65l10,5.78-20.2,90.77L23.33,111.76,1.5,36.77S45.11,62,45.31,62.05c4.23,2.09,7,.85,7.25-3.49.28-4.55,3.33-5.79,7.83-3.19L82.27,68l27.24,93.53"/><polyline class="cls-7" points="35.63 56.48 43.52 21.01 52.96 26.45"/><polyline class="cls-7" points="45.31 62.05 58.33 1.5 125.13 40.06 103.3 140.19"/><line class="cls-7" x1="63.59" y1="31.57" x2="108.9" y2="57.71"/><line class="cls-7" x1="61.78" y1="39.5" x2="107.07" y2="65.65"/><line class="cls-7" x1="59.95" y1="47.44" x2="105.25" y2="73.59"/><line class="cls-7" x1="82.73" y1="69.57" x2="103.43" y2="81.52"/><line class="cls-7" x1="85.88" y1="80.37" x2="101.61" y2="89.46"/><line class="cls-7" x1="89.03" y1="91.18" x2="99.79" y2="97.39"/><line class="cls-7" x1="92.52" y1="103.18" x2="96.23" y2="105.32"/></g></g></g></g></svg>