<svg xmlns="http://www.w3.org/2000/svg" xmlns:xlink="http://www.w3.org/1999/xlink" viewBox="0 0 212.87 180.67"><defs><style>.cls-1,.cls-8{fill:none;}.cls-2{fill:#c2c7cc;}.cls-3{fill:url(#New_Pattern_Swatch_2);}.cls-4{fill:#dae0e5;}.cls-5{fill:#fff;}.cls-6{fill:#5f646b;}.cls-7{fill:#373a3a;}.cls-8{stroke:#373a3a;stroke-linecap:round;stroke-linejoin:round;stroke-width:3px;}</style><pattern id="New_Pattern_Swatch_2" data-name="New Pattern Swatch 2" width="16" height="19" patternTransform="translate(-415.38 40.41) scale(0.4)" patternUnits="userSpaceOnUse" viewBox="0 0 16 19"><rect class="cls-1" width="16" height="19"/><polygon class="cls-2" points="16 22.18 10.5 19 16 15.82 21.5 19 16 22.18"/><polygon class="cls-2" points="16 22.18 10.5 19 16 15.82 21.5 19 16 22.18"/><polygon class="cls-2" points="0 22.18 -5.5 19 0 15.82 5.5 19 0 22.18"/><polygon class="cls-2" points="0 22.18 -5.5 19 0 15.82 5.5 19 0 22.18"/><polygon class="cls-2" points="16 22.18 10.5 19 16 15.82 21.5 19 16 22.18"/><polygon class="cls-2" points="16 3.18 10.5 0 16 -3.17 21.5 0 16 3.18"/><polygon class="cls-2" points="16 22.18 10.5 19 16 15.82 21.5 19 16 22.18"/><polygon class="cls-2" points="0 22.18 -5.5 19 0 15.82 5.5 19 0 22.18"/><polygon class="cls-2" points="8 12.68 2.5 9.5 8 6.33 13.5 9.5 8 12.68"/><polygon class="cls-2" points="16 3.18 10.5 0 16 -3.17 21.5 0 16 3.18"/><polygon class="cls-2" points="0 3.18 -5.5 0 0 -3.17 5.5 0 0 3.18"/><polygon class="cls-2" points="0 22.18 -5.5 19 0 15.82 5.5 19 0 22.18"/><polygon class="cls-2" points="0 3.18 -5.5 0 0 -3.17 5.5 0 0 3.18"/><polygon class="cls-2" points="16 3.18 10.5 0 16 -3.17 21.5 0 16 3.18"/><polygon class="cls-2" points="16 3.18 10.5 0 16 -3.17 21.5 0 16 3.18"/><polygon class="cls-2" points="0 3.18 -5.5 0 0 -3.17 5.5 0 0 3.18"/><polygon class="cls-2" points="0 3.18 -5.5 0 0 -3.17 5.5 0 0 3.18"/></pattern></defs><g id="Layer_2" data-name="Layer 2"><g id="icons"><g id="folders_in_row" data-name="folders in row"><polygon class="cls-3" points="130.48 180.66 77.31 172.21 107.18 95.58 212.87 133.11 130.48 180.66"/><g id="folders_in_row-2" data-name="folders in row"><polygon class="cls-4" points="137.05 45.26 137.05 136.95 77.31 171.44 77.31 79.75 137.05 45.26"/><path class="cls-5" d="M124.76,52.35h0L77.31,79.75l-9.67-5.58c13.7-8.1,28.11-17.74,37-23.82,3.21-2.2,8.62-6,8.62-6Z"/><path class="cls-6" d="M111.76,30.66V45.39c-1.46,1-3.94,2.76-7.15,5V40.48C96,47.33,73.24,62.26,60.33,70l-8.26-4.77,0,0Z"/><path class="cls-2" d="M104.61,40.48v9.87c-8.86,6.08-23.27,15.72-37,23.82h0L60.33,70C73.24,62.26,96,47.33,104.61,40.48Z"/><polygon class="cls-5" points="99.23 37.89 99.23 37.9 52.02 65.15 35.04 55.35 82.14 28.16 86.47 30.62 86.47 30.63 99.23 37.89"/><polygon class="cls-6" points="86.47 16.07 86.47 30.62 82.14 28.16 35.04 55.35 26.79 50.59 26.76 50.52 86.47 16.07"/><path class="cls-5" d="M77.31,79.75v91.69L52.07,156.89V65.18l15.56,9h0Zm-6.78,55.41V84L58.12,76.86V128Zm-1.48,14.62a9.63,9.63,0,0,0-4.36-7.55c-2.41-1.38-4.36-.26-4.36,2.52a9.63,9.63,0,0,0,4.36,7.55C67.1,153.69,69.05,152.56,69.05,149.78Z"/><polygon class="cls-5" points="70.53 84.03 70.53 135.16 58.12 128 58.12 76.86 70.53 84.03"/><path class="cls-2" d="M70.38,15.65v9.7L26.73,50.54l-5.26-3C60.08,25.05,70.38,15.65,70.38,15.65Z"/><path class="cls-7" d="M64.69,142.23a9.63,9.63,0,0,1,4.36,7.55c0,2.78-2,3.91-4.36,2.52a9.63,9.63,0,0,1-4.36-7.55C60.33,142,62.28,140.85,64.69,142.23Z"/><path class="cls-5" d="M61.25,11.38c4.26,2,9.13,4.27,9.13,4.27s-10.3,9.4-48.91,31.86l-8.08-4.66C30.06,32.89,50.86,17.3,58,9.9Z"/><path class="cls-6" d="M61.25,1.5v9.88L58,9.9c-7.13,7.4-27.93,23-44.6,33L1.5,36Z"/><path class="cls-5" d="M52.07,65.18v91.63L26.79,142.28V50.59L52,65.15h0Zm-6.83,55.38V69.42L32.82,62.26V113.4Zm-1.48,14.62a9.63,9.63,0,0,0-4.37-7.55c-2.4-1.39-4.35-.26-4.35,2.51a9.66,9.66,0,0,0,4.35,7.56C41.81,139.08,43.76,138,43.76,135.18Z"/><polygon class="cls-2" points="45.24 69.42 45.24 120.56 32.82 113.4 32.82 62.26 45.24 69.42"/><path class="cls-7" d="M39.39,127.63a9.63,9.63,0,0,1,4.37,7.55c0,2.78-1.95,3.9-4.37,2.52A9.66,9.66,0,0,1,35,130.14C35,127.37,37,126.24,39.39,127.63Z"/><path class="cls-5" d="M26.79,50.59v91.62l-.06,0L1.5,127.68V36L26.73,50.54l0,0ZM20,106V54.82L7.53,47.65V98.81Zm-1.48,14.6A9.63,9.63,0,0,0,14.1,113c-2.39-1.39-4.35-.26-4.35,2.51a9.64,9.64,0,0,0,4.35,7.55C16.52,124.49,18.47,123.36,18.47,120.57Z"/><polygon class="cls-5" points="19.95 54.83 19.95 105.97 7.53 98.81 7.53 47.65 19.95 54.83"/><path class="cls-7" d="M14.1,113a9.63,9.63,0,0,1,4.37,7.54c0,2.79-1.95,3.92-4.37,2.52a9.64,9.64,0,0,1-4.35-7.55C9.75,112.77,11.71,111.64,14.1,113Z"/><polyline class="cls-8" points="26.79 142.21 26.73 142.25 1.5 127.68 1.5 35.99 26.73 50.54 86.47 16.07 86.47 30.62"/><polygon class="cls-8" points="19.95 105.97 7.53 98.81 7.53 47.65 19.95 54.83 19.95 105.97"/><path class="cls-8" d="M18.47,120.57A9.63,9.63,0,0,0,14.1,113c-2.39-1.39-4.35-.26-4.35,2.51a9.64,9.64,0,0,0,4.35,7.55C16.52,124.49,18.47,123.36,18.47,120.57Z"/><polyline class="cls-8" points="52.07 156.81 26.79 142.28 26.79 50.59 52.02 65.15 111.76 30.66 111.76 45.38"/><polygon class="cls-8" points="45.24 120.56 32.82 113.4 32.82 62.26 45.24 69.42 45.24 120.56"/><path class="cls-8" d="M43.76,135.18a9.63,9.63,0,0,0-4.37-7.55c-2.4-1.39-4.35-.26-4.35,2.51a9.66,9.66,0,0,0,4.35,7.56C41.81,139.08,43.76,138,43.76,135.18Z"/><polygon class="cls-8" points="67.64 74.17 77.31 79.75 77.31 171.44 52.07 156.89 52.07 65.18 67.63 74.17 67.64 74.17"/><polygon class="cls-8" points="70.53 135.16 58.12 128 58.12 76.86 70.53 84.03 70.53 135.16"/><path class="cls-8" d="M69.05,149.78a9.63,9.63,0,0,0-4.36-7.55c-2.41-1.38-4.36-.26-4.36,2.52a9.63,9.63,0,0,0,4.36,7.55C67.1,153.69,69.05,152.56,69.05,149.78Z"/><polyline class="cls-8" points="77.31 79.75 137.05 45.26 137.05 136.95 77.31 171.44"/><polyline class="cls-8" points="1.5 35.99 61.25 1.5 61.25 11.38"/><path class="cls-8" d="M13.39,42.85C30.06,32.89,50.86,17.3,58,9.9c1,.43,12.39,5.75,12.39,5.75s-10.3,9.4-48.91,31.86"/><line class="cls-8" x1="70.38" y1="15.65" x2="70.38" y2="25.35"/><polyline class="cls-8" points="35.04 55.35 82.14 28.16 86.47 30.62 86.47 30.63 99.23 37.89"/><path class="cls-8" d="M60.33,70C73.24,62.26,96,47.33,104.61,40.48v9.87"/><path class="cls-8" d="M67.63,74.17h0c13.7-8.1,28.11-17.74,37-23.82,3.21-2.2,8.62-6,8.62-6l11.53,8"/></g></g></g></g></svg>