<svg xmlns="http://www.w3.org/2000/svg" xmlns:xlink="http://www.w3.org/1999/xlink" viewBox="0 0 215.5 141.34"><defs><style>.cls-1,.cls-6{fill:none;}.cls-2{fill:#c2c7cc;}.cls-3{fill:url(#New_Pattern_Swatch_2);}.cls-4{fill:#373a3a;}.cls-5{fill:#fff;}.cls-6{stroke:#373a3a;stroke-linecap:round;stroke-linejoin:round;stroke-width:3px;}</style><pattern id="New_Pattern_Swatch_2" data-name="New Pattern Swatch 2" width="16" height="19" patternTransform="translate(-415.38 40.41) scale(0.4)" patternUnits="userSpaceOnUse" viewBox="0 0 16 19"><rect class="cls-1" width="16" height="19"/><polygon class="cls-2" points="16 22.18 10.5 19 16 15.82 21.5 19 16 22.18"/><polygon class="cls-2" points="16 22.18 10.5 19 16 15.82 21.5 19 16 22.18"/><polygon class="cls-2" points="0 22.18 -5.5 19 0 15.82 5.5 19 0 22.18"/><polygon class="cls-2" points="0 22.18 -5.5 19 0 15.82 5.5 19 0 22.18"/><polygon class="cls-2" points="16 22.18 10.5 19 16 15.82 21.5 19 16 22.18"/><polygon class="cls-2" points="16 3.18 10.5 0 16 -3.17 21.5 0 16 3.18"/><polygon class="cls-2" points="16 22.18 10.5 19 16 15.82 21.5 19 16 22.18"/><polygon class="cls-2" points="0 22.18 -5.5 19 0 15.82 5.5 19 0 22.18"/><polygon class="cls-2" points="8 12.68 2.5 9.5 8 6.33 13.5 9.5 8 12.68"/><polygon class="cls-2" points="16 3.18 10.5 0 16 -3.17 21.5 0 16 3.18"/><polygon class="cls-2" points="0 3.18 -5.5 0 0 -3.17 5.5 0 0 3.18"/><polygon class="cls-2" points="0 22.18 -5.5 19 0 15.82 5.5 19 0 22.18"/><polygon class="cls-2" points="0 3.18 -5.5 0 0 -3.17 5.5 0 0 3.18"/><polygon class="cls-2" points="16 3.18 10.5 0 16 -3.17 21.5 0 16 3.18"/><polygon class="cls-2" points="16 3.18 10.5 0 16 -3.17 21.5 0 16 3.18"/><polygon class="cls-2" points="0 3.18 -5.5 0 0 -3.17 5.5 0 0 3.18"/><polygon class="cls-2" points="0 3.18 -5.5 0 0 -3.17 5.5 0 0 3.18"/></pattern></defs><g id="Layer_2" data-name="Layer 2"><g id="icons"><g id="glasses"><path id="shadow" class="cls-3" d="M202.26,85.86c-4.43,0-45.47,13.12-66.33,29.37C118.6,96.77,62.71,71.11,34.36,67.12c2.59-3.65,5.27-7.64,8.13-10.06,8.44-7.14,44.64-19.75,44.64-33.24v0a2,2,0,0,0-3.45-1.29C63.77,42.42,16.43,52.75,16.43,67.83a5.59,5.59,0,0,0,1.19,3.23,12.45,12.45,0,0,0-1.35,5.54c0,22.2,36.68,20,46.9,25.4,15,7.89,22.77,39.34,52.43,39.34,9.23,0,22.31-4.7,25.06-13.17,13.09-7.3,25.47-15.77,39-22.28,4.58-2.21,29.29-12.18,29.29-17C208.91,87,204.81,85.86,202.26,85.86Z"/><g id="glasses-2" data-name="glasses"><path class="cls-4" d="M213.22,75.94c1.15.48,1,2.93-.29,4.52l-1,1.27c-1.16,1.47-2.59,2.09-3.61,1.56l-10.6-5.42c-1.66-.9-3.82-.55-6,.95L171.81,92.73a180.43,180.43,0,0,1-21.26,11.93c-8,3.8-19.15,9.28-26.58,13.82a.81.81,0,0,0,.21-.61v-3.49a2.16,2.16,0,0,0-.42-1.21L193.36,73a8.24,8.24,0,0,1,3.93-1.25C202,71.62,209.4,74.36,213.22,75.94Z"/><path class="cls-4" d="M124.18,114.38v3.49a.81.81,0,0,1-.21.61.51.51,0,0,1-.46.13,5.76,5.76,0,0,0-1.4,0,1.6,1.6,0,0,0-1.34,1.47c-.42,2.27-.92,4.73-1.6,7.21-.2.73-.85,1-1.6.51a1.22,1.22,0,0,1-.19-.12,3.62,3.62,0,0,1-1.37-2.6c-.08-4.62-.32-9.09-.43-12.39a3.65,3.65,0,0,0-1.21-2.44C101.89,99.4,82.45,87,73,89.61c-.55.15-.85.75-.81,1.55.19,3.54.57,7,1,11.08.1.9-.29,1.53-1,1.44a1,1,0,0,1-.17,0,3.17,3.17,0,0,1-1.86-2.2c-1.06-4-1.77-7.74-2.4-11.48a14.41,14.41,0,0,0-5-5.29,5.09,5.09,0,0,0-5-.46,56.46,56.46,0,0,1-2.4,8.71c-.28.73-1.09.73-1.86.06l-.16-.16a3.39,3.39,0,0,1-1-2.57c.46-3.55.81-6.56,1-9.91a4.17,4.17,0,0,0-.8-2.49c-9.41-13.42-28.9-23.58-41.34-27.13-.7-.2-1.19.22-1.22,1-.11,3.15-.31,7.41-.42,11.92,0,.89-.59,1.32-1.37,1-.06,0-.14-.06-.21-.1a3.64,3.64,0,0,1-1.58-2.35C5.86,59,5.31,55.9,4.9,53.15a6.84,6.84,0,0,0-1.34-3c-.52-.65-1-1.19-1.41-1.58a2.29,2.29,0,0,1-.65-1.49V43.54a.7.7,0,0,1,.33-.68.61.61,0,0,1,.28,0l1.45.11C4,43,6,43.36,9.07,44.16a79.9,79.9,0,0,1,9.48,3.17,98.37,98.37,0,0,1,13.31,6.72C47.11,63.28,54.12,72.47,57,77a53,53,0,0,1,5.83,2.87,68.8,68.8,0,0,1,5.85,3.87c2.86-1.2,9.87-2.31,25.14,6.09a118.58,118.58,0,0,1,13.3,8.66,155.07,155.07,0,0,1,15,12.91l1.43,1.53a1.21,1.21,0,0,1,.21.25A2.16,2.16,0,0,1,124.18,114.38Z"/><path class="cls-5" d="M117.38,127.65c-.35,1.74-.78,3.5-1.29,5.24-1.48,5.1-5.56,7.35-10.75,5.92-7.07-2-13.18-5.52-20.29-11.94a42.72,42.72,0,0,1-11.76-18.64c-.45-1.5-.86-3-1.22-4.59a1,1,0,0,0,.17,0c.69.09,1.08-.54,1-1.44-.43-4-.81-7.54-1-11.08,0-.8.26-1.4.81-1.55,9.42-2.58,28.86,9.79,41.34,20.61a3.65,3.65,0,0,1,1.21,2.44c.11,3.3.35,7.77.43,12.39A3.62,3.62,0,0,0,117.38,127.65Z"/><path class="cls-4" d="M91.16,5.7c1.15.47,1,2.92-.28,4.51l-1,1.29c-1.17,1.47-2.59,2.08-3.61,1.55L75.63,7.62c-1.67-.89-3.81-.54-6,1l-19.9,13.9A181.28,181.28,0,0,1,28.48,34.43c-5.71,2.71-13,6.26-19.41,9.73-3-.8-5-1.12-5.51-1.24l-1.45-.11a.61.61,0,0,0-.28,0h0L71.29,2.75A8.45,8.45,0,0,1,75.23,1.5C79.94,1.37,87.33,4.13,91.16,5.7Z"/><path class="cls-5" d="M53.44,92.82l.16.16a25.25,25.25,0,0,1-1.23,3.17c-2.16,4.56-6.48,6.39-11.74,5.07-7.11-1.77-13.22-5.28-20.3-11.49A35.47,35.47,0,0,1,9.59,71.41c-.52-2.35-.95-4.58-1.29-6.74.78.32,1.35-.11,1.37-1,.11-4.51.31-8.77.42-11.92,0-.81.52-1.23,1.22-1,12.44,3.55,31.93,13.71,41.34,27.13a4.17,4.17,0,0,1,.8,2.49c-.18,3.35-.53,6.36-1,9.91A3.39,3.39,0,0,0,53.44,92.82Z"/><path class="cls-6" d="M8.3,64.67c.34,2.16.77,4.39,1.29,6.74A35.47,35.47,0,0,0,20.33,89.73c7.08,6.21,13.19,9.72,20.3,11.49,5.26,1.32,9.58-.51,11.74-5.07A25.25,25.25,0,0,0,53.6,93"/><path class="cls-6" d="M117.38,127.65c-.35,1.74-.78,3.5-1.29,5.24-1.48,5.1-5.56,7.35-10.75,5.92-7.07-2-13.18-5.52-20.29-11.94a42.72,42.72,0,0,1-11.76-18.64c-.45-1.5-.86-3-1.22-4.59"/><path class="cls-6" d="M123.76,113.17a1.21,1.21,0,0,0-.21-.25l-1.43-1.53a155.07,155.07,0,0,0-15-12.91,118.58,118.58,0,0,0-13.3-8.66c-15.27-8.4-22.28-7.29-25.14-6.09a68.8,68.8,0,0,0-5.85-3.87A53,53,0,0,0,57,77c-2.88-4.52-9.89-13.71-25.14-22.94a98.37,98.37,0,0,0-13.31-6.72,78.11,78.11,0,0,0-9.48-3.17c-3-.8-5-1.12-5.51-1.24l-1.45-.11a.61.61,0,0,0-.28,0,.7.7,0,0,0-.33.68v3.51a2.29,2.29,0,0,0,.65,1.49c.38.39.89.93,1.41,1.58a6.84,6.84,0,0,1,1.34,3c.41,2.75,1,5.8,1.61,9.07a3.64,3.64,0,0,0,1.58,2.35c.07,0,.15.06.21.1.78.32,1.35-.11,1.37-1,.11-4.51.31-8.77.42-11.92,0-.81.52-1.23,1.22-1,12.44,3.55,31.93,13.71,41.34,27.13a4.17,4.17,0,0,1,.8,2.49c-.18,3.35-.53,6.36-1,9.91a3.39,3.39,0,0,0,1,2.57l.16.16c.77.67,1.58.67,1.86-.06a56.46,56.46,0,0,0,2.4-8.71,5.09,5.09,0,0,1,5,.46,14.41,14.41,0,0,1,5,5.29c.63,3.74,1.34,7.47,2.4,11.48a3.17,3.17,0,0,0,1.86,2.2,1,1,0,0,0,.17,0c.69.09,1.08-.54,1-1.44-.43-4-.81-7.54-1-11.08,0-.8.26-1.4.81-1.55,9.42-2.58,28.86,9.79,41.34,20.61a3.65,3.65,0,0,1,1.21,2.44c.11,3.3.35,7.77.43,12.39a3.62,3.62,0,0,0,1.37,2.6,1.22,1.22,0,0,0,.19.12c.75.45,1.4.22,1.6-.51.68-2.48,1.18-4.94,1.6-7.21a1.6,1.6,0,0,1,1.34-1.47,5.76,5.76,0,0,1,1.4,0,.51.51,0,0,0,.46-.13.81.81,0,0,0,.21-.61v-3.49A2.16,2.16,0,0,0,123.76,113.17Z"/><path class="cls-6" d="M9.07,44.16c6.4-3.47,13.7-7,19.41-9.73A181.28,181.28,0,0,0,49.75,22.49l19.9-13.9c2.17-1.51,4.31-1.86,6-1l10.61,5.43c1,.53,2.44-.08,3.61-1.55l1-1.29c1.28-1.59,1.43-4,.28-4.51C87.33,4.13,79.94,1.37,75.23,1.5a8.45,8.45,0,0,0-3.94,1.25L1.7,42.94"/><path class="cls-6" d="M124,118.48c7.43-4.54,18.56-10,26.58-13.82a180.43,180.43,0,0,0,21.26-11.93l19.91-13.91c2.15-1.5,4.31-1.85,6-.95l10.6,5.42c1,.53,2.45-.09,3.61-1.56l1-1.27c1.29-1.59,1.44-4,.29-4.52-3.82-1.58-11.23-4.32-15.93-4.2A8.24,8.24,0,0,0,193.36,73l-69.6,40.18"/></g></g></g></g></svg>