<svg xmlns="http://www.w3.org/2000/svg" xmlns:xlink="http://www.w3.org/1999/xlink" viewBox="0 0 260.69 158.72"><defs><style>.cls-1,.cls-7{fill:none;}.cls-2{fill:#c2c7cc;}.cls-3{fill:url(#New_Pattern_Swatch_2);}.cls-4{fill:#5f646b;}.cls-5{fill:#373a3a;}.cls-6{fill:#fff;}.cls-7{stroke:#373a3a;stroke-linecap:round;stroke-linejoin:round;stroke-width:3px;}</style><pattern id="New_Pattern_Swatch_2" data-name="New Pattern Swatch 2" width="16" height="19" patternTransform="translate(-415.38 40.41) scale(0.4)" patternUnits="userSpaceOnUse" viewBox="0 0 16 19"><rect class="cls-1" width="16" height="19"/><polygon class="cls-2" points="16 22.18 10.5 19 16 15.82 21.5 19 16 22.18"/><polygon class="cls-2" points="16 22.18 10.5 19 16 15.82 21.5 19 16 22.18"/><polygon class="cls-2" points="0 22.18 -5.5 19 0 15.82 5.5 19 0 22.18"/><polygon class="cls-2" points="0 22.18 -5.5 19 0 15.82 5.5 19 0 22.18"/><polygon class="cls-2" points="16 22.18 10.5 19 16 15.82 21.5 19 16 22.18"/><polygon class="cls-2" points="16 3.18 10.5 0 16 -3.17 21.5 0 16 3.18"/><polygon class="cls-2" points="16 22.18 10.5 19 16 15.82 21.5 19 16 22.18"/><polygon class="cls-2" points="0 22.18 -5.5 19 0 15.82 5.5 19 0 22.18"/><polygon class="cls-2" points="8 12.68 2.5 9.5 8 6.33 13.5 9.5 8 12.68"/><polygon class="cls-2" points="16 3.18 10.5 0 16 -3.17 21.5 0 16 3.18"/><polygon class="cls-2" points="0 3.18 -5.5 0 0 -3.17 5.5 0 0 3.18"/><polygon class="cls-2" points="0 22.18 -5.5 19 0 15.82 5.5 19 0 22.18"/><polygon class="cls-2" points="0 3.18 -5.5 0 0 -3.17 5.5 0 0 3.18"/><polygon class="cls-2" points="16 3.18 10.5 0 16 -3.17 21.5 0 16 3.18"/><polygon class="cls-2" points="16 3.18 10.5 0 16 -3.17 21.5 0 16 3.18"/><polygon class="cls-2" points="0 3.18 -5.5 0 0 -3.17 5.5 0 0 3.18"/><polygon class="cls-2" points="0 3.18 -5.5 0 0 -3.17 5.5 0 0 3.18"/></pattern></defs><g id="Layer_2" data-name="Layer 2"><g id="icons"><g id="hat"><path class="cls-3" d="M260.69,109.22c-14.75,8.14-26.95,15-38.92,21.79C207.2,139.34,193,147.76,175,158.72c-17.19-10.73-31.16-19-45.29-27.05-12.58-7.16-25.27-14.13-40.43-22.45C123.36,90.85,146.44,78,175,59.73,205.83,79,226.24,90.54,260.69,109.22Z"/><g id="hat-2" data-name="hat"><path class="cls-2" d="M222.56,51c-14.75,8.14-26.95,14.94-38.92,21.79-14.57,8.33-28.78,16.74-46.8,27.7-17.19-10.72-31.16-19-45.29-27C79,66.28,66.28,59.31,51.12,51c34.1-18.38,57.19-31.21,85.72-49.49C167.7,20.72,188.11,32.31,222.56,51Z"/><path class="cls-2" d="M183.93,93.26v9.13c0,6.87-4.53,13.7-13.57,18.93-18.12,10.48-47.49,10.48-65.6,0-9.06-5.23-13.59-12.06-13.59-18.93V93.26c0,6.85,4.53,13.69,13.59,18.93,18.11,10.46,47.48,10.46,65.6,0C179.4,107,183.93,100.11,183.93,93.26Z"/><path class="cls-4" d="M183.93,73.29v20c0,6.85-4.53,13.69-13.57,18.93-18.12,10.46-47.49,10.46-65.6,0C95.7,107,91.17,100.11,91.17,93.26V74.1l.38-.66c14.13,8,28.1,16.32,45.29,27,18-11,32.23-19.37,46.8-27.7Z"/><path class="cls-5" d="M27.77,101.93,9,109.23H9a7,7,0,0,0,1.75-1.86,15.34,15.34,0,0,0,.86-13.83,6.73,6.73,0,0,0-1.25-1.8h0Z"/><path class="cls-6" d="M11.6,93.53a15.34,15.34,0,0,1-.86,13.83A7,7,0,0,1,9,109.22c-2.19,1.53-4.69.73-6.23-2.36a15.3,15.3,0,0,1,.85-13.81c2-3,4.73-3.4,6.74-1.32A7.15,7.15,0,0,1,11.6,93.53Z"/><path class="cls-7" d="M91.17,74.1v28.29c0,6.87,4.53,13.7,13.59,18.93,18.11,10.48,47.48,10.48,65.6,0,9-5.23,13.57-12.06,13.57-18.93V73.29"/><path class="cls-7" d="M91.17,93.26c0,6.85,4.53,13.69,13.59,18.93,18.11,10.46,47.48,10.46,65.6,0,9-5.24,13.57-12.08,13.57-18.93"/><path class="cls-7" d="M91.55,73.44c14.13,8,28.1,16.32,45.29,27,18-11,32.23-19.37,46.8-27.7,12-6.85,24.17-13.65,38.92-21.79C188.11,32.31,167.7,20.72,136.84,1.5,108.31,19.78,85.22,32.61,51.12,51,66.28,59.31,79,66.28,91.55,73.44Z"/><path class="cls-7" d="M51.12,51V71.55a29.62,29.62,0,0,1-15.3,25.93l-8,4.45"/><path class="cls-7" d="M10.35,91.73c-2-2.08-4.74-1.69-6.74,1.32a15.3,15.3,0,0,0-.85,13.81c1.54,3.09,4,3.89,6.23,2.36a7,7,0,0,0,1.75-1.86,15.34,15.34,0,0,0,.86-13.83A7.15,7.15,0,0,0,10.35,91.73Z"/><polyline class="cls-7" points="10.36 91.72 27.77 101.93 9 109.23"/></g></g></g></g></svg>