<svg xmlns="http://www.w3.org/2000/svg" xmlns:xlink="http://www.w3.org/1999/xlink" viewBox="0 0 163.58 172.84"><defs><style>.cls-1,.cls-9{fill:none;}.cls-2{fill:#c2c7cc;}.cls-3{fill:url(#New_Pattern_Swatch_2);}.cls-4{fill:#fff;}.cls-5{fill:#dae0e5;}.cls-6{fill:#373a3a;}.cls-7{fill:#969a9e;}.cls-8{fill:#5f646b;}.cls-9{stroke:#373a3a;stroke-linecap:round;stroke-linejoin:round;stroke-width:3px;}</style><pattern id="New_Pattern_Swatch_2" data-name="New Pattern Swatch 2" width="16" height="19" patternTransform="translate(-415.38 40.41) scale(0.4)" patternUnits="userSpaceOnUse" viewBox="0 0 16 19"><rect class="cls-1" width="16" height="19"/><polygon class="cls-2" points="16 22.18 10.5 19 16 15.82 21.5 19 16 22.18"/><polygon class="cls-2" points="16 22.18 10.5 19 16 15.82 21.5 19 16 22.18"/><polygon class="cls-2" points="0 22.18 -5.5 19 0 15.82 5.5 19 0 22.18"/><polygon class="cls-2" points="0 22.18 -5.5 19 0 15.82 5.5 19 0 22.18"/><polygon class="cls-2" points="16 22.18 10.5 19 16 15.82 21.5 19 16 22.18"/><polygon class="cls-2" points="16 3.18 10.5 0 16 -3.17 21.5 0 16 3.18"/><polygon class="cls-2" points="16 22.18 10.5 19 16 15.82 21.5 19 16 22.18"/><polygon class="cls-2" points="0 22.18 -5.5 19 0 15.82 5.5 19 0 22.18"/><polygon class="cls-2" points="8 12.68 2.5 9.5 8 6.33 13.5 9.5 8 12.68"/><polygon class="cls-2" points="16 3.18 10.5 0 16 -3.17 21.5 0 16 3.18"/><polygon class="cls-2" points="0 3.18 -5.5 0 0 -3.17 5.5 0 0 3.18"/><polygon class="cls-2" points="0 22.18 -5.5 19 0 15.82 5.5 19 0 22.18"/><polygon class="cls-2" points="0 3.18 -5.5 0 0 -3.17 5.5 0 0 3.18"/><polygon class="cls-2" points="16 3.18 10.5 0 16 -3.17 21.5 0 16 3.18"/><polygon class="cls-2" points="16 3.18 10.5 0 16 -3.17 21.5 0 16 3.18"/><polygon class="cls-2" points="0 3.18 -5.5 0 0 -3.17 5.5 0 0 3.18"/><polygon class="cls-2" points="0 3.18 -5.5 0 0 -3.17 5.5 0 0 3.18"/></pattern></defs><g id="Layer_2" data-name="Layer 2"><g id="icons"><g id="headphones"><path class="cls-3" d="M163.07,131.79c-1.8-6.89-7.79-10.65-13.65-12.86-14.12-5.3-29.36-8-44.11-10.22a186.14,186.14,0,0,0-23-2,58.57,58.57,0,0,0-10.07.75c-1.46.21-2.91.23-4.33.32-13.72-4.93-30.25-7.2-42.08-5.23-8.07,1.35-12.41,4.42-12.88,8.29s2.85,8.49,10.12,13c14.56,9.07,39.43,14.25,55.52,11.56,8.07-1.35,12.41-4.42,12.9-8.29v-.2a7.79,7.79,0,0,0-1.24-4.67c1.08.19,2.17.39,3.24.61,11.8,2.37,23.65,4.26,35.34,7.29,5.42,1.41,11.24,2.67,16.41,4.94a9.44,9.44,0,0,1,1.19.67c-.81.32-1.76.78-2.27.92-5.84,1.58-11.67,3.31-17.53,4.8-2.24.57-4.52,1-6.8,1.39-12.58-3.76-26.65-5.32-37.06-3.58-8.07,1.35-12.41,4.42-12.89,8.29s2.85,8.49,10.12,13c14.56,9.07,39.43,14.25,55.53,11.56,8.07-1.35,12.41-4.42,12.89-8.29l0-.2c.22-2.4-1-5.1-3.77-7.88A43.46,43.46,0,0,0,155,151C160.87,147,165.07,139.4,163.07,131.79Z"/><g id="headphones-2" data-name="headphones"><path class="cls-4" d="M123.88,118.85a39,39,0,0,1-.76,7.42h0c-.55-3.18-2-5.46-4.15-6.63l-9.18-5.12V101.7a12.61,12.61,0,0,1,6.8,1.42l.22.13C121.18,105.76,123.88,111.16,123.88,118.85Z"/><path class="cls-5" d="M123.11,126.27a16.75,16.75,0,0,1,.24,2.92c0,9.37-6.59,20.72-14.68,25.42a18.3,18.3,0,0,1-2.41,1.17c-3.05,1.18-5.77,1.09-7.88-.08-2.71-1.52-4.38-4.83-4.38-9.56,0-9.35,6.57-20.75,14.67-25.42,4-2.3,7.59-2.56,10.23-1.12l.06,0C121.07,120.81,122.53,123.09,123.11,126.27Z"/><path class="cls-6" d="M110.12,114.7l8.78,4.9c-2.64-1.44-6.26-1.18-10.23,1.12C100.57,125.39,94,136.79,94,146.14c0,4.73,1.67,8,4.38,9.56l-8.85-4.95c-2.71-1.5-4.38-4.81-4.38-9.55,0-8.57,5.51-18.82,12.65-24.1V123a26.12,26.12,0,0,1,6.18-5.13,13.93,13.93,0,0,1,5.8-2v-1.37Z"/><path class="cls-4" d="M109.78,99.25l6.8,3.87a12.61,12.61,0,0,0-6.8-1.42Z"/><path class="cls-4" d="M91.89,48.8c-5.86-13-15.55-24.86-26.5-31.17l-7.18-4.15c-9.14-5.27-17.4-5.67-23.3-2L46.76,4C52.65.25,61,.6,70.18,5.93l7.19,4.15c17.9,10.33,32.41,35.46,32.41,56.14v49.67a13.93,13.93,0,0,0-5.8,2A26.12,26.12,0,0,0,97.8,123V73.78C97.8,65.74,95.61,57.05,91.89,48.8Z"/><path class="cls-7" d="M98.38,155.7c2.11,1.17,4.83,1.26,7.88.08a38.32,38.32,0,0,1-6.43,4.73c-6.62,3.81-12.62,4.19-17,1.7s-7.1-7.9-7.1-15.59c0-14.55,9.69-32.09,22-40.4V117.1c-7.14,5.28-12.65,15.53-12.65,24.1,0,4.74,1.67,8.05,4.38,9.55Z"/><path class="cls-4" d="M97.8,95v11.23c-12.34,8.31-22,25.85-22,40.4,0,7.69,2.71,13.09,7.1,15.59L71.11,155.5c-4.39-2.5-7.1-7.9-7.1-15.6,0-15.34,10.77-34,24.06-41.66A22.54,22.54,0,0,1,97.8,95Z"/><path class="cls-6" d="M91.89,48.8,89.47,49c-2.57.19-5.81-2-8-5.57-4.29-6.84-9.91-12.75-16.06-16.3L58.21,23c-6.15-3.55-11.78-4.13-16.05-2.22A4.87,4.87,0,0,1,38,20.3,12.69,12.69,0,0,1,34.12,17l-2.4-3a15.15,15.15,0,0,1,3.06-2.54l.13-.08c5.9-3.63,14.16-3.23,23.3,2l7.18,4.15C76.34,23.94,86,35.82,91.89,48.8Z"/><path class="cls-7" d="M54.28,67c4.37,2.51,7.08,7.91,7.08,15.6,0,15.33-10.76,34-24,41.66-6.63,3.83-12.63,4.2-17,1.71s-7.09-7.9-7.09-15.59c0-15.35,10.77-34,24.06-41.67,6.5-3.76,12.41-4.18,16.74-1.83Zm-17,45.54c7.68-4.43,13.9-15.21,13.9-24.09S45,76,37.32,80.47s-13.91,15.2-13.91,24.07S29.63,117,37.32,112.57Z"/><path class="cls-4" d="M42.52,60.31l11.54,6.6C49.73,64.56,43.82,65,37.32,68.74,24,76.42,13.26,95.06,13.26,110.41c0,7.69,2.71,13.09,7.09,15.59L8.59,119.28c-4.38-2.5-7.09-7.9-7.09-15.59,0-15.35,10.77-34,24.06-41.67l.23-.13c4.37-2.48,8.47-3.45,12-3.07A11.83,11.83,0,0,1,42.52,60.31Z"/><path class="cls-8" d="M51.22,88.48c0,8.88-6.22,19.66-13.9,24.09s-13.91.84-13.91-8,6.22-19.65,13.91-24.07S51.22,79.61,51.22,88.48Z"/><path class="cls-8" d="M38,20.3a42.85,42.85,0,0,0-.22,4.34V58.82c-3.52-.38-7.61.59-12,3.07V32.19c0-8,2.18-14.19,5.93-18.13l2.4,3A12.69,12.69,0,0,0,38,20.3Z"/><path class="cls-9" d="M91.9,48.8,89.47,49c-2.57.19-5.81-2-8-5.57-4.29-6.84-9.91-12.75-16.06-16.3L58.21,23c-6.15-3.55-11.78-4.13-16.05-2.22A4.87,4.87,0,0,1,38,20.3,12.69,12.69,0,0,1,34.12,17l-2.4-3h0"/><path class="cls-9" d="M54.06,66.91C49.73,64.56,43.82,65,37.32,68.74,24,76.42,13.26,95.06,13.26,110.41c0,7.69,2.71,13.08,7.09,15.59s10.34,2.12,17-1.71c13.28-7.67,24-26.33,24-41.66,0-7.69-2.71-13.09-7.08-15.6"/><path class="cls-9" d="M51.22,88.48c0-8.87-6.22-12.46-13.9-8s-13.91,15.2-13.91,24.07,6.22,12.47,13.91,8S51.22,97.36,51.22,88.48Z"/><path class="cls-9" d="M20.35,126,8.59,119.28c-4.38-2.5-7.09-7.9-7.09-15.59,0-15.35,10.77-34,24.06-41.67l.23-.13c4.37-2.48,8.47-3.43,12-3.07a12,12,0,0,1,4.74,1.49L54.28,67"/><path class="cls-9" d="M116.58,103.12a12.61,12.61,0,0,0-6.8-1.42"/><path class="cls-9" d="M123.12,126.27a39,39,0,0,0,.76-7.42c0-7.69-2.7-13.09-7.08-15.6"/><path class="cls-9" d="M97.8,106.22c-12.34,8.31-22,25.85-22,40.4,0,7.69,2.71,13.09,7.1,15.59s10.34,2.11,17-1.7a38.32,38.32,0,0,0,6.43-4.73"/><path class="cls-9" d="M118.9,119.6c-2.64-1.44-6.26-1.18-10.23,1.12C100.57,125.39,94,136.79,94,146.14c0,4.73,1.67,8,4.38,9.56,2.11,1.17,4.83,1.26,7.88.08a18.3,18.3,0,0,0,2.41-1.17c8.09-4.7,14.68-16.05,14.68-25.42a16.75,16.75,0,0,0-.24-2.92c-.58-3.18-2-5.46-4.15-6.63Z"/><path class="cls-9" d="M37.78,58.81V24.64A42.85,42.85,0,0,1,38,20.3"/><path class="cls-9" d="M82.87,162.21,71.11,155.5c-4.39-2.5-7.1-7.9-7.1-15.6,0-15.34,10.77-34,24.06-41.66A22.54,22.54,0,0,1,97.8,95"/><line class="cls-9" x1="109.78" y1="99.25" x2="116.8" y2="103.25"/><path class="cls-9" d="M119,119.64l-9.18-5.12"/><path class="cls-9" d="M97.8,117.1c-7.14,5.28-12.65,15.53-12.65,24.1,0,4.74,1.67,8.05,4.38,9.55l8.85,4.95"/><path class="cls-9" d="M34.78,11.52a15.78,15.78,0,0,0-3.06,2.54C28,18,25.79,24.18,25.79,32.19v29.7"/><path class="cls-9" d="M34.91,11.44,46.76,4C52.65.25,61,.6,70.18,5.93l7.19,4.15c17.9,10.33,32.41,35.46,32.41,56.14v49.67a13.93,13.93,0,0,0-5.8,2A26.12,26.12,0,0,0,97.8,123V73.78c0-8-2.19-16.73-5.91-25-5.86-13-15.55-24.86-26.5-31.17l-7.18-4.15C49.07,8.21,40.81,7.81,34.91,11.44Z"/><line class="cls-9" x1="34.91" y1="11.44" x2="34.78" y2="11.52"/></g></g></g></g></svg>