<svg xmlns="http://www.w3.org/2000/svg" xmlns:xlink="http://www.w3.org/1999/xlink" viewBox="0 0 189.76 142.16"><defs><style>.cls-1,.cls-8{fill:none;}.cls-2{fill:#c2c7cc;}.cls-3{fill:url(#New_Pattern_Swatch_2);}.cls-4{fill:#dae0e5;}.cls-5{fill:#fff;}.cls-6{fill:#373a3a;}.cls-7{fill:#969a9e;}.cls-8{stroke:#373a3a;stroke-linecap:round;stroke-linejoin:round;stroke-width:3px;}</style><pattern id="New_Pattern_Swatch_2" data-name="New Pattern Swatch 2" width="16" height="19" patternTransform="translate(-415.38 40.41) scale(0.4)" patternUnits="userSpaceOnUse" viewBox="0 0 16 19"><rect class="cls-1" width="16" height="19"/><polygon class="cls-2" points="16 22.18 10.5 19 16 15.82 21.5 19 16 22.18"/><polygon class="cls-2" points="16 22.18 10.5 19 16 15.82 21.5 19 16 22.18"/><polygon class="cls-2" points="0 22.18 -5.5 19 0 15.82 5.5 19 0 22.18"/><polygon class="cls-2" points="0 22.18 -5.5 19 0 15.82 5.5 19 0 22.18"/><polygon class="cls-2" points="16 22.18 10.5 19 16 15.82 21.5 19 16 22.18"/><polygon class="cls-2" points="16 3.18 10.5 0 16 -3.17 21.5 0 16 3.18"/><polygon class="cls-2" points="16 22.18 10.5 19 16 15.82 21.5 19 16 22.18"/><polygon class="cls-2" points="0 22.18 -5.5 19 0 15.82 5.5 19 0 22.18"/><polygon class="cls-2" points="8 12.68 2.5 9.5 8 6.33 13.5 9.5 8 12.68"/><polygon class="cls-2" points="16 3.18 10.5 0 16 -3.17 21.5 0 16 3.18"/><polygon class="cls-2" points="0 3.18 -5.5 0 0 -3.17 5.5 0 0 3.18"/><polygon class="cls-2" points="0 22.18 -5.5 19 0 15.82 5.5 19 0 22.18"/><polygon class="cls-2" points="0 3.18 -5.5 0 0 -3.17 5.5 0 0 3.18"/><polygon class="cls-2" points="16 3.18 10.5 0 16 -3.17 21.5 0 16 3.18"/><polygon class="cls-2" points="16 3.18 10.5 0 16 -3.17 21.5 0 16 3.18"/><polygon class="cls-2" points="0 3.18 -5.5 0 0 -3.17 5.5 0 0 3.18"/><polygon class="cls-2" points="0 3.18 -5.5 0 0 -3.17 5.5 0 0 3.18"/></pattern></defs><g id="Layer_2" data-name="Layer 2"><g id="icons"><g id="index_cards" data-name="index cards"><path class="cls-3" d="M187.7,82.83a74.6,74.6,0,0,0-26.48-16.89c-8.6-3.32-14.33,9.86-7.35,14.83a11.72,11.72,0,0,1-1.67,1.71c-2.87,2.45-6.32,4.35-9.5,6.37-6.87,4.35-13.84,8.52-21.08,12.24a211.82,211.82,0,0,1-21.65,9.7c-7.28,2.78-15.1,4.58-22.3,7.6a6.42,6.42,0,0,0-1.13.43l-1.69.83c-6.4,3.14-4.9,12.94.82,15.51a53.22,53.22,0,0,0-6.35,1.45,2.82,2.82,0,0,0,.74,5.52c5.29.19,10.61-.63,15.88-1.07,4.8-.39,9.66-.37,14.38-1.39s8.94-1.89,13.38-4.3c4.79-2.6,53.13-30.13,72.55-41.25A7.27,7.27,0,0,0,187.7,82.83Z"/><g id="index_cards-2" data-name="index cards"><path class="cls-4" d="M159.37,51.84V87.12L67.81,140V104.68L85.87,94.27v0l18.82-10.84v0l16.15-9.32,21.48-12.39h0Z"/><path class="cls-2" d="M142.32,42l17.05,9.84-17.05,9.83Z"/><path class="cls-5" d="M142.32,50.45V61.68L120.84,74.07h0l-16.14-9.31V56.14L85.28,45a0,0,0,0,1,0,0h0V1.5h0a.07.07,0,0,0,0,0,.73.73,0,0,1,.2.14s0,0,.06,0l0,0s0,0,0,0l.07,0h0s0,0,0,0h0a.71.71,0,0,0,.09.07l0,0h0a.42.42,0,0,0,.12.08l.14.08c1.49.87,45.69,26.36,56.14,32.41ZM118,46a16.86,16.86,0,0,0-7.65-13.21c-4.2-2.45-7.64-.48-7.64,4.41a16.89,16.89,0,0,0,7.64,13.21C114.57,52.88,118,50.93,118,46Z"/><path class="cls-6" d="M120.83,74.06h0l-16.15,9.32V64.75Z"/><path class="cls-6" d="M110.35,32.83A16.86,16.86,0,0,1,118,46c0,4.89-3.43,6.84-7.65,4.41a16.89,16.89,0,0,1-7.64-13.21C102.71,32.35,106.15,30.38,110.35,32.83Z"/><path class="cls-2" d="M104.69,83.39v0L85.87,94.25V67L47.65,45a0,0,0,0,1,0,0h0V23.21a0,0,0,0,1,0,0l0,0a.76.76,0,0,1,.2.13l.06,0,0,0s0,0,0,0l.07,0h0s0,0,0,0h0l.08.06,0,0h0l37,21.37a0,0,0,0,0,0,0l19.41,11.19Z"/><path class="cls-5" d="M85.87,94.25v0L67.81,104.68l-39-22.5V34.07a0,0,0,0,1,0,0l0,0a.52.52,0,0,1,.2.14l.06,0,0,0s0,0,0,0l.06,0h0s0,0,0,0h0a.35.35,0,0,0,.09.07l0,0h0S46,44,47.64,44.94a0,0,0,0,0,0,0L85.87,67ZM63,91.79,52.3,64.2,41.62,79.43Z"/><polygon class="cls-7" points="85.28 18.02 85.28 44.93 85.27 44.94 61.98 31.48 85.28 18.02"/><polygon class="cls-5" points="67.81 104.68 67.81 139.97 1.5 101.69 1.5 66.39 28.84 82.17 28.84 82.18 67.81 104.68"/><polygon class="cls-2" points="52.3 64.2 63.02 91.79 41.62 79.43 52.3 64.2"/><path class="cls-5" d="M47.65,39.76v5.17h0q-2.43-1.42-4.48-2.59Z"/><polygon class="cls-7" points="28.84 50.63 28.84 82.17 1.5 66.39 28.84 50.63"/><line class="cls-8" x1="43.16" y1="42.35" x2="47.65" y2="39.76"/><line class="cls-8" x1="61.98" y1="31.48" x2="85.28" y2="18.02"/><polyline class="cls-8" points="28.84 82.17 1.5 66.39 28.84 50.63"/><polyline class="cls-8" points="85.88 94.27 67.81 104.68 28.84 82.18"/><line class="cls-8" x1="104.69" y1="83.41" x2="85.87" y2="94.25"/><path class="cls-8" d="M142.32,61.68,120.84,74.07l-16.15,9.32"/><path class="cls-8" d="M142.32,42l17.05,9.84-17.05,9.83"/><line class="cls-8" x1="67.81" y1="104.68" x2="67.81" y2="139.97"/><polyline class="cls-8" points="1.5 66.39 1.5 101.69 67.81 139.97 159.37 87.12 159.37 51.84"/><path class="cls-8" d="M29.47,34.44h0l0,0a.35.35,0,0,1-.09-.07h0s0,0,0,0h0l-.06,0s0,0,0,0l0,0-.06,0a.52.52,0,0,0-.2-.14l0,0a0,0,0,0,0,0,0V82.18"/><line class="cls-8" x1="120.83" y1="74.06" x2="104.69" y2="64.75"/><path class="cls-8" d="M29.73,34.59c1.5.87,16.29,9.4,17.91,10.35a0,0,0,0,0,0,0L85.87,67V94.27"/><line class="cls-8" x1="85.28" y1="1.5" x2="85.28" y2="44.93"/><path class="cls-8" d="M142.32,61.68V34.42C131.87,28.37,86.09,2,86,1.93a.42.42,0,0,1-.12-.08h0l0,0a.71.71,0,0,1-.09-.07h0s0,0,0,0h0l-.07,0s0,0,0,0l0,0s0,0-.06,0a.73.73,0,0,0-.2-.14.07.07,0,0,1,0,0"/><path class="cls-8" d="M48.55,23.73,85.27,44.94a0,0,0,0,0,0,0l19.41,11.19V83.41"/><path class="cls-8" d="M47.65,44.93V23.21a0,0,0,0,1,0,0l0,0a.76.76,0,0,1,.2.13l.06,0,0,0s0,0,0,0l.07,0h0s0,0,0,0h0l.08.06,0,0h0"/><polygon class="cls-8" points="52.3 64.2 63.02 91.79 41.62 79.43 52.3 64.2"/><path class="cls-8" d="M118,46a16.86,16.86,0,0,0-7.65-13.21c-4.2-2.45-7.64-.48-7.64,4.41a16.89,16.89,0,0,0,7.64,13.21C114.57,52.88,118,50.93,118,46Z"/></g></g></g></g></svg>