<svg xmlns="http://www.w3.org/2000/svg" xmlns:xlink="http://www.w3.org/1999/xlink" viewBox="0 0 228.43 155.65"><defs><style>.cls-1,.cls-8{fill:none;}.cls-2{fill:#c2c7cc;}.cls-3{fill:url(#New_Pattern_Swatch_2);}.cls-4{fill:#dae0e5;}.cls-5{fill:#fff;}.cls-6{fill:#969a9e;}.cls-7{fill:#5f646b;}.cls-8{stroke:#373a3a;stroke-linecap:round;stroke-linejoin:round;stroke-width:3px;}</style><pattern id="New_Pattern_Swatch_2" data-name="New Pattern Swatch 2" width="16" height="19" patternTransform="translate(-415.38 40.41) scale(0.4)" patternUnits="userSpaceOnUse" viewBox="0 0 16 19"><rect class="cls-1" width="16" height="19"/><polygon class="cls-2" points="16 22.18 10.5 19 16 15.82 21.5 19 16 22.18"/><polygon class="cls-2" points="16 22.18 10.5 19 16 15.82 21.5 19 16 22.18"/><polygon class="cls-2" points="0 22.18 -5.5 19 0 15.82 5.5 19 0 22.18"/><polygon class="cls-2" points="0 22.18 -5.5 19 0 15.82 5.5 19 0 22.18"/><polygon class="cls-2" points="16 22.18 10.5 19 16 15.82 21.5 19 16 22.18"/><polygon class="cls-2" points="16 3.18 10.5 0 16 -3.17 21.5 0 16 3.18"/><polygon class="cls-2" points="16 22.18 10.5 19 16 15.82 21.5 19 16 22.18"/><polygon class="cls-2" points="0 22.18 -5.5 19 0 15.82 5.5 19 0 22.18"/><polygon class="cls-2" points="8 12.68 2.5 9.5 8 6.33 13.5 9.5 8 12.68"/><polygon class="cls-2" points="16 3.18 10.5 0 16 -3.17 21.5 0 16 3.18"/><polygon class="cls-2" points="0 3.18 -5.5 0 0 -3.17 5.5 0 0 3.18"/><polygon class="cls-2" points="0 22.18 -5.5 19 0 15.82 5.5 19 0 22.18"/><polygon class="cls-2" points="0 3.18 -5.5 0 0 -3.17 5.5 0 0 3.18"/><polygon class="cls-2" points="16 3.18 10.5 0 16 -3.17 21.5 0 16 3.18"/><polygon class="cls-2" points="16 3.18 10.5 0 16 -3.17 21.5 0 16 3.18"/><polygon class="cls-2" points="0 3.18 -5.5 0 0 -3.17 5.5 0 0 3.18"/><polygon class="cls-2" points="0 3.18 -5.5 0 0 -3.17 5.5 0 0 3.18"/></pattern></defs><g id="Layer_2" data-name="Layer 2"><g id="icons"><g id="laptop_back" data-name="laptop back"><path class="cls-3" d="M227.19,92.7c-5.91-8.38-16.05-9.5-25.33-12L170,72.15c-6.3-1.69-12.67,4-11.35,10.41l-.72.71a27,27,0,0,1-4.39,3C150.17,88.4,95,124.06,81.09,133a8.71,8.71,0,0,0-3,3.37c-4.23.93-5,6.17-1.49,8.82.45.35.93.67,1.4,1a7.29,7.29,0,0,0,7.77,4.07l.11,0c8.71,3.37,18.82,4.38,27.69,5,6.46.47,13.32.93,19.52-1.27,6.36-2.25,12.22-6,18.11-9.26q36.48-20,72.89-40.14C227.94,102.46,229.85,96.48,227.19,92.7Z"/><g id="laptop_back-2" data-name="laptop back"><path class="cls-4" d="M191.52,2.19A3.71,3.71,0,0,1,193,5.92L176,86.34s0,0,0,.06a2.44,2.44,0,0,1-1.06,1.67L77,144.59a2.41,2.41,0,0,0,.89-1.46L95.57,60.31a13.67,13.67,0,0,1,6.54-9L187.54,2A3.68,3.68,0,0,1,191.52,2.19Z"/><path class="cls-5" d="M110.43,46.52l-8.32,4.8a13.67,13.67,0,0,0-6.54,9l-1.76,8.23-15.55-9a2.26,2.26,0,0,0-2-.09L49.12,75.14c-.51.3-.45.82.16,1.17l16.35,9.45a2.31,2.31,0,0,0,2,.08L93.28,71,90.86,82.36,51.18,105.28c-.92.53-.81,1.44.25,2.06l26.39,15.24a4,4,0,0,0,3.56.13l1-.56L77.93,142.9a4.58,4.58,0,0,0,.09-1,8.05,8.05,0,0,0-3.36-6.42L4.28,94.89C2.43,93.83,1.5,92.41,1.5,91s.93-2.82,2.78-3.89l83-47.91a10.55,10.55,0,0,1,10.51,0Z"/><path class="cls-6" d="M93.81,68.54,93.28,71,67.66,85.84a2.31,2.31,0,0,1-2-.08L49.28,76.31c-.61-.35-.67-.87-.16-1.17L76.24,59.48a2.26,2.26,0,0,1,2,.09Z"/><path class="cls-4" d="M88.45,93.66l-6.09,28.49-1,.56a4,4,0,0,1-3.56-.13L51.43,107.34c-1.06-.62-1.17-1.53-.25-2.06L90.86,82.36Z"/><path class="cls-7" d="M78,142a4.58,4.58,0,0,1-.09,1l-.05.23a2.41,2.41,0,0,1-.89,1.46l-.13.07a2.12,2.12,0,0,1-2.2-.17L5.48,104.55a8,8,0,0,1-4-6.89V91c0,1.4.93,2.82,2.78,3.88l70.38,40.64A8.05,8.05,0,0,1,78,142Z"/><path class="cls-8" d="M77.93,142.9a4.58,4.58,0,0,0,.09-1,8.05,8.05,0,0,0-3.36-6.42L4.28,94.89C2.43,93.83,1.5,92.41,1.5,91s.93-2.82,2.78-3.89l83-47.91a10.55,10.55,0,0,1,10.51,0l12.66,7.31"/><path class="cls-8" d="M77,144.59a2.41,2.41,0,0,0,.89-1.46"/><path class="cls-8" d="M1.5,90.78v6.88a8,8,0,0,0,4,6.89l69.18,39.94a2.12,2.12,0,0,0,2.2.17"/><path class="cls-8" d="M77.88,143.13,95.57,60.31a13.67,13.67,0,0,1,6.54-9L187.54,2A3.66,3.66,0,0,1,193,5.92L176,86.4"/><path class="cls-8" d="M76.86,144.66l98-56.59A2.44,2.44,0,0,0,176,86.4s0,0,0-.06"/><path class="cls-8" d="M82.36,122.15l-1,.56a4,4,0,0,1-3.56-.13L51.43,107.34c-1.06-.62-1.17-1.53-.25-2.06L90.86,82.36"/><path class="cls-8" d="M93.81,68.54l-15.55-9a2.26,2.26,0,0,0-2-.09L49.12,75.14c-.51.3-.45.82.16,1.17l16.35,9.45a2.31,2.31,0,0,0,2,.08L93.28,71"/><line class="cls-8" x1="88.45" y1="93.66" x2="85.84" y2="95.17"/><line class="cls-8" x1="80.98" y1="97.97" x2="76.4" y2="100.62"/><line class="cls-8" x1="71.84" y1="103.24" x2="67.27" y2="105.89"/><line class="cls-8" x1="86.48" y1="102.87" x2="84.16" y2="104.21"/><line class="cls-8" x1="78.84" y1="107.28" x2="74.26" y2="109.93"/><line class="cls-8" x1="84.51" y1="112.08" x2="81.26" y2="113.96"/></g></g></g></g></svg>