<svg xmlns="http://www.w3.org/2000/svg" xmlns:xlink="http://www.w3.org/1999/xlink" viewBox="0 0 216.46 185.2"><defs><style>.cls-1,.cls-8{fill:none;}.cls-2{fill:#c2c7cc;}.cls-3{fill:url(#New_Pattern_Swatch_2);}.cls-4{fill:#fff;}.cls-5{fill:#5f646b;}.cls-6{fill:#dae0e5;}.cls-7{fill:#969a9e;}.cls-8{stroke:#373a3a;stroke-linecap:round;stroke-linejoin:round;stroke-width:3px;}</style><pattern id="New_Pattern_Swatch_2" data-name="New Pattern Swatch 2" width="16" height="19" patternTransform="translate(-415.38 40.41) scale(0.4)" patternUnits="userSpaceOnUse" viewBox="0 0 16 19"><rect class="cls-1" width="16" height="19"/><polygon class="cls-2" points="16 22.18 10.5 19 16 15.82 21.5 19 16 22.18"/><polygon class="cls-2" points="16 22.18 10.5 19 16 15.82 21.5 19 16 22.18"/><polygon class="cls-2" points="0 22.18 -5.5 19 0 15.82 5.5 19 0 22.18"/><polygon class="cls-2" points="0 22.18 -5.5 19 0 15.82 5.5 19 0 22.18"/><polygon class="cls-2" points="16 22.18 10.5 19 16 15.82 21.5 19 16 22.18"/><polygon class="cls-2" points="16 3.18 10.5 0 16 -3.17 21.5 0 16 3.18"/><polygon class="cls-2" points="16 22.18 10.5 19 16 15.82 21.5 19 16 22.18"/><polygon class="cls-2" points="0 22.18 -5.5 19 0 15.82 5.5 19 0 22.18"/><polygon class="cls-2" points="8 12.68 2.5 9.5 8 6.33 13.5 9.5 8 12.68"/><polygon class="cls-2" points="16 3.18 10.5 0 16 -3.17 21.5 0 16 3.18"/><polygon class="cls-2" points="0 3.18 -5.5 0 0 -3.17 5.5 0 0 3.18"/><polygon class="cls-2" points="0 22.18 -5.5 19 0 15.82 5.5 19 0 22.18"/><polygon class="cls-2" points="0 3.18 -5.5 0 0 -3.17 5.5 0 0 3.18"/><polygon class="cls-2" points="16 3.18 10.5 0 16 -3.17 21.5 0 16 3.18"/><polygon class="cls-2" points="16 3.18 10.5 0 16 -3.17 21.5 0 16 3.18"/><polygon class="cls-2" points="0 3.18 -5.5 0 0 -3.17 5.5 0 0 3.18"/><polygon class="cls-2" points="0 3.18 -5.5 0 0 -3.17 5.5 0 0 3.18"/></pattern></defs><g id="Layer_2" data-name="Layer 2"><g id="icons"><g id="laptop_front" data-name="laptop front"><path class="cls-3" d="M216.32,124.5c-.77-4.67-4.69-7-8.4-9.3-4.18-2.64-8.4-5.2-12.72-7.62s-8.66-4.73-13.06-7c-3.84-1.95-8.37-5.06-12.62-5.88a12,12,0,0,0-1.74-.19c-6.87-4.25-14-9-21.56-11.11-4.45-1.28-9.34,4.18-6.39,8.31,5.84,8.18,15.64,14.21,24,19.61,2.3,1.49,4.65,2.92,7,4.31a81.64,81.64,0,0,0-7.23,8,9.44,9.44,0,0,0-.82.74c-3,3-5.35,6.76-7.86,10.17a7.15,7.15,0,0,0-.86,7.29c-7.82,4.44-15.78,8.66-23.57,12.87s-15.52,8.33-23.21,12.62c-3.63,2-8,3.88-11,6.82-2,2-4.49,6.49-1.63,9,5.4,4.7,12.83.16,18.37-2.2,6.38-2.71,12.7-5.7,18.89-8.83,13.19-6.67,26.09-14,38.82-21.52,4.82-2.84,11.84-5.73,16.11-9.95,3.87-.51,7.66-1.36,10.79-2C205,137.2,218,134.6,216.32,124.5Z"/><g id="laptop_front-2" data-name="laptop front"><path class="cls-4" d="M184.26,51.23a7.52,7.52,0,0,1,2.36,5.71,5,5,0,0,1-.16,1.61l-19.3,68.12c-.7,2.44-1.46,4-4.1,3.45a5.3,5.3,0,0,0-2.7-3.14l-81.51-47a11.83,11.83,0,0,0-4-1.38h0a7.08,7.08,0,0,1-1.17-6.44c.69-2.39,17.88-64,18.57-66.48,1.16-4.17,5-5.31,9.33-2.8l80.54,46.5A8.53,8.53,0,0,1,184.26,51.23Z"/><path class="cls-5" d="M163.14,130.86v8.44c0,1.41-.94,2.82-2.78,3.89L99.25,178.47a14.89,14.89,0,0,1-13.47,0L4.28,131.42c-1.85-1.08-2.78-2.48-2.78-3.88V119.1c0,1.4.93,2.81,2.78,3.88L85.78,170a14.81,14.81,0,0,0,13.47,0l61.11-35.28C162.2,133.69,163.14,132.27,163.14,130.86Z"/><path class="cls-4" d="M163.06,130.12a3.72,3.72,0,0,1,.08.74c0,1.41-.94,2.83-2.78,3.89L99.25,170a14.81,14.81,0,0,1-13.47,0L4.28,123c-1.85-1.07-2.78-2.48-2.78-3.88s.93-2.83,2.78-3.89L65.39,79.93a13.69,13.69,0,0,1,6.74-1.61,15.78,15.78,0,0,1,2.67.23,12,12,0,0,1,4,1.38L160.36,127A5.27,5.27,0,0,1,163.06,130.12Zm-12.91,2.22c1-.61,1.16-1.53.25-2.06L73.14,85.68a3.91,3.91,0,0,0-3.56.15l-26.4,15.24c-1,.61-1.17,1.51-.25,2.05l77.25,44.61a4,4,0,0,0,3.57-.15Zm-63.78,7c.6-.35.67-.87.15-1.18L59.41,122.56a2.25,2.25,0,0,0-2,.07L41,132.08c-.61.34-.68.87-.15,1.17L68,148.91a2.26,2.26,0,0,0,2-.09Z"/><path class="cls-6" d="M150.4,130.28c.91.53.79,1.45-.25,2.06l-26.4,15.24a4,4,0,0,1-3.57.15L42.93,103.12c-.92-.54-.79-1.44.25-2.05l26.4-15.24a3.91,3.91,0,0,1,3.56-.15Z"/><path class="cls-7" d="M86.52,138.2c.52.31.45.83-.15,1.18L70,148.82a2.26,2.26,0,0,1-2,.09L40.88,133.25c-.53-.3-.46-.83.15-1.17l16.36-9.45a2.25,2.25,0,0,1,2-.07Z"/><path class="cls-8" d="M123.75,147.58a4,4,0,0,1-3.57.15L42.93,103.12c-.92-.54-.79-1.44.25-2.05l26.4-15.24a3.91,3.91,0,0,1,3.56-.15l77.26,44.6c.91.53.79,1.45-.25,2.06Z"/><path class="cls-8" d="M163.06,130.12a5.27,5.27,0,0,0-2.7-3.14l-81.51-47a12,12,0,0,0-4-1.38,15.78,15.78,0,0,0-2.67-.23,13.69,13.69,0,0,0-6.74,1.61L4.28,115.21c-1.85,1.06-2.78,2.48-2.78,3.89s.93,2.81,2.78,3.88L85.78,170a14.81,14.81,0,0,0,13.47,0l61.11-35.28c1.84-1.06,2.78-2.48,2.78-3.89A3.72,3.72,0,0,0,163.06,130.12Z"/><path class="cls-8" d="M86.52,138.2,59.41,122.56a2.25,2.25,0,0,0-2,.07L41,132.08c-.61.34-.68.87-.15,1.17L68,148.91a2.26,2.26,0,0,0,2-.09l16.36-9.44C87,139,87,138.51,86.52,138.2Z"/><path class="cls-8" d="M163.14,130.86v8.44c0,1.41-.94,2.82-2.78,3.89L99.25,178.47a14.89,14.89,0,0,1-13.47,0L4.28,131.42c-1.85-1.08-2.78-2.48-2.78-3.88V119.1"/><path class="cls-8" d="M163.05,130.12h0c2.64.6,3.4-1,4.1-3.45l19.3-68.12a5,5,0,0,0,.16-1.61,7.52,7.52,0,0,0-2.36-5.71,8.53,8.53,0,0,0-2.19-1.91L101.53,2.82C97.18.31,93.36,1.45,92.2,5.62,91.51,8.11,74.32,69.71,73.63,72.1a7.08,7.08,0,0,0,1.17,6.44"/><line class="cls-8" x1="75.69" y1="112.12" x2="102.68" y2="127.71"/><line class="cls-8" x1="107.53" y1="130.51" x2="112.11" y2="133.15"/><line class="cls-8" x1="116.67" y1="135.79" x2="121.25" y2="138.43"/><line class="cls-8" x1="57.34" y1="101.53" x2="61.91" y2="104.18"/><line class="cls-8" x1="66.48" y1="106.81" x2="71.05" y2="109.45"/><line class="cls-8" x1="64.33" y1="97.49" x2="68.91" y2="100.14"/><line class="cls-8" x1="74.22" y1="103.2" x2="78.8" y2="105.84"/><line class="cls-8" x1="71.32" y1="93.45" x2="75.9" y2="96.1"/><line class="cls-8" x1="81.2" y1="99.17" x2="85.78" y2="101.8"/><line class="cls-8" x1="84.11" y1="108.91" x2="88.68" y2="111.55"/><line class="cls-8" x1="91.1" y1="104.87" x2="95.67" y2="107.52"/><line class="cls-8" x1="94" y1="114.62" x2="98.57" y2="117.26"/><line class="cls-8" x1="100.99" y1="110.59" x2="105.56" y2="113.23"/><line class="cls-8" x1="103.89" y1="120.32" x2="108.47" y2="122.97"/><line class="cls-8" x1="110.87" y1="116.3" x2="115.46" y2="118.94"/><line class="cls-8" x1="113.77" y1="126.04" x2="118.36" y2="128.68"/><line class="cls-8" x1="120.76" y1="122" x2="125.34" y2="124.65"/><line class="cls-8" x1="123.66" y1="131.75" x2="128.24" y2="134.39"/><line class="cls-8" x1="130.66" y1="127.72" x2="135.22" y2="130.35"/></g></g></g></g></svg>