<svg xmlns="http://www.w3.org/2000/svg" xmlns:xlink="http://www.w3.org/1999/xlink" viewBox="0 0 165.06 165.24"><defs><style>.cls-1,.cls-8{fill:none;}.cls-2{fill:#c2c7cc;}.cls-3{fill:url(#New_Pattern_Swatch_2);}.cls-4{fill:#969a9e;}.cls-5{fill:#373a3a;}.cls-6{fill:#dae0e5;}.cls-7{fill:#fff;}.cls-8{stroke:#373a3a;stroke-linecap:round;stroke-linejoin:round;stroke-width:3px;}</style><pattern id="New_Pattern_Swatch_2" data-name="New Pattern Swatch 2" width="16" height="19" patternTransform="translate(-415.38 40.41) scale(0.4)" patternUnits="userSpaceOnUse" viewBox="0 0 16 19"><rect class="cls-1" width="16" height="19"/><polygon class="cls-2" points="16 22.18 10.5 19 16 15.82 21.5 19 16 22.18"/><polygon class="cls-2" points="16 22.18 10.5 19 16 15.82 21.5 19 16 22.18"/><polygon class="cls-2" points="0 22.18 -5.5 19 0 15.82 5.5 19 0 22.18"/><polygon class="cls-2" points="0 22.18 -5.5 19 0 15.82 5.5 19 0 22.18"/><polygon class="cls-2" points="16 22.18 10.5 19 16 15.82 21.5 19 16 22.18"/><polygon class="cls-2" points="16 3.18 10.5 0 16 -3.17 21.5 0 16 3.18"/><polygon class="cls-2" points="16 22.18 10.5 19 16 15.82 21.5 19 16 22.18"/><polygon class="cls-2" points="0 22.18 -5.5 19 0 15.82 5.5 19 0 22.18"/><polygon class="cls-2" points="8 12.68 2.5 9.5 8 6.33 13.5 9.5 8 12.68"/><polygon class="cls-2" points="16 3.18 10.5 0 16 -3.17 21.5 0 16 3.18"/><polygon class="cls-2" points="0 3.18 -5.5 0 0 -3.17 5.5 0 0 3.18"/><polygon class="cls-2" points="0 22.18 -5.5 19 0 15.82 5.5 19 0 22.18"/><polygon class="cls-2" points="0 3.18 -5.5 0 0 -3.17 5.5 0 0 3.18"/><polygon class="cls-2" points="16 3.18 10.5 0 16 -3.17 21.5 0 16 3.18"/><polygon class="cls-2" points="16 3.18 10.5 0 16 -3.17 21.5 0 16 3.18"/><polygon class="cls-2" points="0 3.18 -5.5 0 0 -3.17 5.5 0 0 3.18"/><polygon class="cls-2" points="0 3.18 -5.5 0 0 -3.17 5.5 0 0 3.18"/></pattern></defs><g id="Layer_2" data-name="Layer 2"><g id="icons"><g id="magnifier"><path class="cls-3" d="M159.39,136.64a215.7,215.7,0,0,0-15.23-16.76c-2.25-2.29-4.72-5.1-7.42-7.6a26.9,26.9,0,0,0,5.89-10.69,25.09,25.09,0,0,0,.54-10.4c-3.34-21.58-32.57-40.13-65.28-41.45-16-.65-29.93,3-39.54,9.36l-.57.39C28.15,66.12,23,75.62,24.7,86.41A31.53,31.53,0,0,0,29,97.84c9.83,16.35,34.25,29,61,30,12.53.51,23.75-1.59,32.64-5.59,2.75,4,6.29,7.65,9.22,11.26,2.79,3.45,9.66,12,10.32,12.87-3.13,3.19-4.39,8.3-1.84,12.54,5.18,8.61,17.14,8.23,22.42-.18C167.43,151.31,164.35,142.94,159.39,136.64Z"/><g id="magnifier-2" data-name="magnifier"><path class="cls-4" d="M155.47,144.6a10.59,10.59,0,1,1-14.08,15.79L93.92,114.73a8.72,8.72,0,0,1,13-10.31l.09-.13Z"/><path class="cls-5" d="M107,104.29l-.09.13a8.72,8.72,0,0,0-13,10.31l-3.77-3.63a8.31,8.31,0,0,1-.86-.94,8,8,0,0,1-1.24-7.26,7.88,7.88,0,0,1,2.27-3.53,8,8,0,0,1,8.31-1.54,7.7,7.7,0,0,1,2.22,1.3Z"/><path class="cls-6" d="M101.13,82.47c0,1,0,2-.09,2.89a42.49,42.49,0,0,1-2.41,12.47,8,8,0,0,0-8.31,1.54,7.88,7.88,0,0,0-2.27,3.53,8,8,0,0,0,1.24,7.26l-.73.29-.12.07-12.38,7.14c4.91-3,8.58-8.21,10.53-15.19A46.53,46.53,0,0,0,88.17,90c0-27.64-19.4-61.24-43.33-75C33.11,8.13,22.47,7.37,14.66,11.59L27.15,4.38C35-.14,45.83.51,57.79,7.42a74.59,74.59,0,0,1,17,13.78h0C90.27,37.78,101.13,61.8,101.13,82.47Z"/><path class="cls-7" d="M88.17,90a46.53,46.53,0,0,1-1.58,12.52c-2,7-5.62,12.14-10.53,15.19l-.11.06-.47.27c-7.84,4.55-18.67,3.89-30.64-3C25.27,103.68,8.74,79.16,3.36,55.49A70.16,70.16,0,0,1,1.5,39.91c0-13.82,4.85-23.53,12.7-28l.46-.27c7.81-4.22,18.45-3.46,30.18,3.31C68.77,28.71,88.17,62.31,88.17,90ZM74.61,101.54c2.82-4.1,4.42-9.8,4.42-16.87,0-21.81-15.31-48.32-34.19-59.22C38.71,21.92,33,20.45,28,20.86c-10.36.79-17.36,9.6-17.36,24.33C10.64,67,26,93.51,44.84,104.41,57.61,111.79,68.74,110.13,74.61,101.54Z"/><path class="cls-7" d="M79,84.67c0,7.07-1.6,12.77-4.42,16.87-5.87,8.59-17,10.25-29.77,2.87C26,93.51,10.64,67,10.64,45.19c0-14.73,7-23.54,17.36-24.33,5-.41,10.71,1.06,16.84,4.59C63.72,36.35,79,62.86,79,84.67Z"/><path class="cls-8" d="M75.48,118c-7.84,4.55-18.67,3.89-30.64-3C25.27,103.68,8.74,79.16,3.36,55.49A70.16,70.16,0,0,1,1.5,39.91c0-13.82,4.85-23.53,12.7-28"/><path class="cls-8" d="M14.66,11.59c7.81-4.22,18.45-3.46,30.18,3.31C68.77,28.71,88.17,62.31,88.17,90a46.53,46.53,0,0,1-1.58,12.52c-2,7-5.62,12.14-10.53,15.19"/><path class="cls-8" d="M28,20.86c5-.41,10.71,1.06,16.84,4.59C63.72,36.35,79,62.86,79,84.67c0,7.07-1.6,12.77-4.42,16.87-5.87,8.59-17,10.25-29.77,2.87C26,93.51,10.64,67,10.64,45.19,10.64,30.46,17.64,21.65,28,20.86Z"/><path class="cls-8" d="M14.2,11.86l13-7.48C35-.14,45.83.51,57.79,7.42a74.59,74.59,0,0,1,17,13.78h0c15.49,16.57,26.35,40.59,26.35,61.26,0,1,0,2-.09,2.89a42.49,42.49,0,0,1-2.41,12.47"/><path class="cls-8" d="M88.56,110.45l-.12.07-13,7.47"/><path class="cls-8" d="M93.92,114.73l47.47,45.66a10.59,10.59,0,1,0,14.08-15.79L100.85,99.13a7.7,7.7,0,0,0-2.22-1.3,8,8,0,0,0-8.31,1.54,7.88,7.88,0,0,0-2.27,3.53,8,8,0,0,0,1.24,7.26,8.31,8.31,0,0,0,.86.94Z"/><path class="cls-8" d="M106.94,104.42a8.72,8.72,0,0,0-13,10.31"/></g></g></g></g></svg>