<svg xmlns="http://www.w3.org/2000/svg" xmlns:xlink="http://www.w3.org/1999/xlink" viewBox="0 0 152.12 186.6"><defs><style>.cls-1,.cls-8{fill:none;}.cls-2{fill:#c2c7cc;}.cls-3{fill:url(#New_Pattern_Swatch_2);}.cls-4{fill:#969a9e;}.cls-5{fill:#fff;}.cls-6{fill:#5f646b;}.cls-7{fill:#373a3a;}.cls-8{stroke:#373a3a;stroke-linecap:round;stroke-linejoin:round;stroke-width:3px;}</style><pattern id="New_Pattern_Swatch_2" data-name="New Pattern Swatch 2" width="16" height="19" patternTransform="translate(-415.38 40.41) scale(0.4)" patternUnits="userSpaceOnUse" viewBox="0 0 16 19"><rect class="cls-1" width="16" height="19"/><polygon class="cls-2" points="16 22.18 10.5 19 16 15.82 21.5 19 16 22.18"/><polygon class="cls-2" points="16 22.18 10.5 19 16 15.82 21.5 19 16 22.18"/><polygon class="cls-2" points="0 22.18 -5.5 19 0 15.82 5.5 19 0 22.18"/><polygon class="cls-2" points="0 22.18 -5.5 19 0 15.82 5.5 19 0 22.18"/><polygon class="cls-2" points="16 22.18 10.5 19 16 15.82 21.5 19 16 22.18"/><polygon class="cls-2" points="16 3.18 10.5 0 16 -3.17 21.5 0 16 3.18"/><polygon class="cls-2" points="16 22.18 10.5 19 16 15.82 21.5 19 16 22.18"/><polygon class="cls-2" points="0 22.18 -5.5 19 0 15.82 5.5 19 0 22.18"/><polygon class="cls-2" points="8 12.68 2.5 9.5 8 6.33 13.5 9.5 8 12.68"/><polygon class="cls-2" points="16 3.18 10.5 0 16 -3.17 21.5 0 16 3.18"/><polygon class="cls-2" points="0 3.18 -5.5 0 0 -3.17 5.5 0 0 3.18"/><polygon class="cls-2" points="0 22.18 -5.5 19 0 15.82 5.5 19 0 22.18"/><polygon class="cls-2" points="0 3.18 -5.5 0 0 -3.17 5.5 0 0 3.18"/><polygon class="cls-2" points="16 3.18 10.5 0 16 -3.17 21.5 0 16 3.18"/><polygon class="cls-2" points="16 3.18 10.5 0 16 -3.17 21.5 0 16 3.18"/><polygon class="cls-2" points="0 3.18 -5.5 0 0 -3.17 5.5 0 0 3.18"/><polygon class="cls-2" points="0 3.18 -5.5 0 0 -3.17 5.5 0 0 3.18"/></pattern></defs><g id="Layer_2" data-name="Layer 2"><g id="icons"><g id="man_student" data-name="man student"><path class="cls-3" d="M100.77,185.93h.16c40.64,0,33.21-15.32,36.94-18.22s14.25-3.55,14.25-9.68c0-11-36.12-27.28-45.63-32.94-4.64-4.16-9.66-7.73-16.14-9.46-7.69-2-15.59,6.92-10.82,14.08q5.11,7.66,10.68,15c-6.94.62-11.89,8.2-8,14.63a35.67,35.67,0,0,0,3.3,4.54,5.15,5.15,0,0,0-1,0c-6.18.66-12.74.17-18.75,1.87-3.93,1.11-4.09,6-1.07,8.14,4,2.84,9,3.93,13.91,4.46a15.57,15.57,0,0,0,7.8,6.87C91,187.11,95.94,186.76,100.77,185.93Z"/><g id="man_student-2" data-name="man student"><path class="cls-4" d="M91.25,144.62c3-4.62,5.77-9.39,9.42-15-4.14-4.43-6.51-7.74-11.27-11.69A195.21,195.21,0,0,0,91.25,144.62Zm-9.8,12.44c-1.62-2.13-3.46-4.43-4.29-4.54h0c-2,0,1.66,7.47-8.86,7.47-2.58,0-3.71-.47-6.25-1.27a2.27,2.27,0,0,0-.78-.11,2.68,2.68,0,0,0-2.59,2.19,21.92,21.92,0,0,0-.38,3.78h0a4.35,4.35,0,0,0,1.13,2.93,15.16,15.16,0,0,0,1.14,1.12c-.74,0-1.5.05-2.28.05-14.12,0-23.83-5.45-31.21-14.14h0c1.59-2.76,2-6.38-2.63-9.95-.33-5.08-.49-11.65-.47-18.69a68.9,68.9,0,0,0-4.57,6.17c-3.49,5.36-6,10.94-5.18,14C5.88,119.45.31,93.55,1.73,86.5v0A12.92,12.92,0,0,1,8,76.1c5-3,9.53-5.47,14.07-7.76,6.83-3.17,11.89-4.47,15.8-4.94,1.47,4.13,4.08,7.23,8.53,7.23h.27a46.68,46.68,0,0,0-2.92,9.42,47.72,47.72,0,0,0-.24,18.34A67.54,67.54,0,0,1,53.43,86,111.59,111.59,0,0,1,69.84,73c13.6,7,31.88,16.07,54.88,44.61,16.13,20-32.83,65.67-33.42,66.08-5.18,3.59-7.9-4.57-9.1-13.21A80.47,80.47,0,0,1,81.45,157.06Z"/><path class="cls-4" d="M37.7,30.71c-5-2.94-10.21-5.7-16.31-9C35.28,14.17,44.67,9,56.3,1.5,68.86,9.33,77.17,14.05,91.2,21.66c-6,3.28-10.89,6-15.73,8.79l-.13.07c-5.92,3.4-11.71,6.83-19,11.29C51.78,39,47.81,36.59,44,34.37c-1.49-.88-2.94-1.73-4.39-2.55h0Z"/><path class="cls-5" d="M82.2,170.47l-.88.08c-4.77,2.35-11.16,4.24-17,.86a29,29,0,0,1-3.73-2.77,13.48,13.48,0,0,1-1.14-1.12,4.35,4.35,0,0,1-1.13-2.93h0a21.92,21.92,0,0,1,.38-3.78,2.68,2.68,0,0,1,2.59-2.19,2.27,2.27,0,0,1,.78.11c2.54.8,3.67,1.27,6.25,1.27,10.52,0,6.82-7.47,8.86-7.47h0c.83.11,2.67,2.41,4.29,4.54A80.47,80.47,0,0,0,82.2,170.47Z"/><path class="cls-6" d="M75.47,30.46V34a6.52,6.52,0,0,1-.32,2c-.66,2.09-2.4,4.09-5.21,5.72A26,26,0,0,1,58.8,44.85c-5.55.39-11.32-.66-15.57-3.11a12,12,0,0,1-4.58-4.3A6.72,6.72,0,0,1,37.7,34V30.71a1.19,1.19,0,0,0,.15.09l1.78,1h0c.61,1.44,2.42,2.2,4.39,2.55,3.79,2.22,7.76,4.62,12.28,7.44,7.33-4.46,13.12-7.89,19-11.29l.13-.07Z"/><path class="cls-7" d="M75.15,36a13.7,13.7,0,0,1,.53,3.84c0,5.34-2.8,11-6.91,15a7.63,7.63,0,0,0,.69-2.94c0-2.14-1.22-4.23-3.63-4.23a7.42,7.42,0,0,0-5.2,2.72,9.44,9.44,0,0,1-1.86-5,2.27,2.27,0,0,1,0-.45h0a26,26,0,0,0,11.14-3.11C72.75,40.11,74.49,38.11,75.15,36Z"/><path class="cls-5" d="M69,72.56l.8.43A111.59,111.59,0,0,0,53.43,86h0l-4.64-8.71c6.94,0,14.23-2.87,18.4-7.1h0c0,.18.12.35.18.53A3.43,3.43,0,0,0,69,72.56Z"/><path class="cls-5" d="M69.46,51.87a7.63,7.63,0,0,1-.69,2.94A19.63,19.63,0,0,1,64.47,58a71.66,71.66,0,0,0,2.72,12.15h0c-4.17,4.23-11.46,7.1-18.4,7.1-.79-1.32-2.1-6.6-2.1-6.6h-.27c-4.45,0-7.06-3.1-8.53-7.23A35.82,35.82,0,0,1,36.26,52a45.47,45.47,0,0,1,2.38-14.59h0a12,12,0,0,0,4.58,4.3c4.25,2.45,10,3.5,15.57,3.11h0a2.27,2.27,0,0,0,0,.45,9.44,9.44,0,0,0,1.86,5,7.42,7.42,0,0,1,5.2-2.72C68.24,47.64,69.46,49.73,69.46,51.87Z"/><path class="cls-5" d="M53.42,85.94h0a67.54,67.54,0,0,0-9.91,12.44,47.72,47.72,0,0,1,.24-18.34l5-2.82Z"/><path class="cls-5" d="M48.78,77.23l-5,2.82a46.68,46.68,0,0,1,2.92-9.42S48,75.91,48.78,77.23Z"/><path class="cls-5" d="M44,34.37c-2-.35-3.78-1.11-4.39-2.55C41.08,32.64,42.53,33.49,44,34.37Z"/><path class="cls-5" d="M24.43,144.59c4.63,3.57,4.22,7.19,2.63,9.95h0a14.15,14.15,0,0,1-2.27,2.84,2.44,2.44,0,0,1-3.71-.34l-1.9-2.67a9.31,9.31,0,0,1-1.33-8.08l1.87-6.18a12.34,12.34,0,0,0-.33-8.05A68.9,68.9,0,0,1,24,125.9C23.94,132.94,24.1,139.51,24.43,144.59Z"/><path class="cls-7" d="M19.39,132.07a12.34,12.34,0,0,1,.33,8.05l-1.87,6.18a10,10,0,0,0-.37,2c-1.8-.07-2.8-.84-3.2-2.09,0-.06,0-.12-.07-.19C13.41,143,15.9,137.43,19.39,132.07Z"/><path class="cls-5" d="M14.21,146l.07.19Z"/><path class="cls-8" d="M37.7,30.7V34a6.74,6.74,0,0,0,.95,3.41,12.13,12.13,0,0,0,4.58,4.3c4.25,2.45,10,3.48,15.57,3.11a26.19,26.19,0,0,0,11.14-3.11c2.81-1.63,4.55-3.63,5.21-5.72a6.52,6.52,0,0,0,.32-2V30.46"/><path class="cls-8" d="M39.63,31.82c1.45.82,2.9,1.67,4.39,2.55C47.8,36.6,51.78,39,56.3,41.81c7.33-4.46,13.12-7.89,19-11.29l.13-.07c4.84-2.76,9.78-5.51,15.73-8.79C77.17,14.05,68.86,9.33,56.3,1.5,44.67,9,35.28,14.17,21.39,21.66,27.49,25,39,31.47,39.63,31.81Z"/><path class="cls-8" d="M69.84,73A112.8,112.8,0,0,0,53.43,86a67.87,67.87,0,0,0-9.91,12.44,47.92,47.92,0,0,1,.24-18.34,46.68,46.68,0,0,1,2.92-9.42h-.27c-4.45,0-7.07-3.09-8.53-7.23A35.54,35.54,0,0,1,36.26,52a45.47,45.47,0,0,1,2.38-14.59"/><path class="cls-8" d="M81.45,157.06a80.47,80.47,0,0,0,.75,13.41c1.2,8.64,3.92,16.8,9.1,13.21.59-.41,49.55-46.09,33.42-66.08C101.72,89.06,83.39,80.14,69.84,73l-.8-.43a3.43,3.43,0,0,1-1.67-1.9l-.18-.53A82.11,82.11,0,0,1,64.47,58a19.63,19.63,0,0,0,4.3-3.17c4.1-3.92,6.91-9.61,6.91-15A13.7,13.7,0,0,0,75.15,36"/><path class="cls-8" d="M39.63,31.81h0c.61,1.44,2.42,2.2,4.39,2.55h0"/><path class="cls-8" d="M58.8,44.86a2.27,2.27,0,0,0,0,.45,9.44,9.44,0,0,0,1.86,5,7.42,7.42,0,0,1,5.2-2.72c2.41,0,3.63,2.09,3.63,4.23a7.63,7.63,0,0,1-.69,2.94"/><path class="cls-8" d="M91.25,144.62c3-4.62,5.77-9.39,9.42-15-4.14-4.43-6.51-7.74-11.27-11.69A195.21,195.21,0,0,0,91.25,144.62Z"/><path class="cls-8" d="M81.32,170.55c-4.77,2.35-11.16,4.24-17,.86a29,29,0,0,1-3.73-2.77,13.48,13.48,0,0,1-1.14-1.12,4.35,4.35,0,0,1-1.13-2.93h0a21.92,21.92,0,0,1,.38-3.78,2.68,2.68,0,0,1,2.59-2.19,2.27,2.27,0,0,1,.78.11c2.54.8,3.67,1.27,6.25,1.27,10.52,0,6.82-7.47,8.86-7.47h0c.83.11,2.67,2.41,4.29,4.54a89.91,89.91,0,0,0,9.8-12.44"/><path class="cls-8" d="M26.08,83.76C24.8,93,24,110.58,24,125.9c0,7,.14,13.61.47,18.69h0"/><path class="cls-8" d="M60.55,168.64c-.74,0-1.5.05-2.28.05-14.12,0-23.83-5.45-31.21-14.14"/><path class="cls-8" d="M37.88,63.4c-3.91.47-9,1.77-15.8,4.94C17.54,70.63,13,73.13,8,76.1A12.92,12.92,0,0,0,1.73,86.48"/><path class="cls-8" d="M19.39,132.07a12.34,12.34,0,0,1,.33,8.05l-1.87,6.18a9.31,9.31,0,0,0,1.33,8.08l1.9,2.67a2.44,2.44,0,0,0,3.71.34,14.15,14.15,0,0,0,2.27-2.84h0c1.59-2.76,2.06-6.45-2.63-9.95-.18-.14-.38-.29-.58-.42"/><path class="cls-8" d="M46.68,70.63s1.31,5.28,2.1,6.6c6.94,0,14.23-2.87,18.4-7.1"/><polyline class="cls-8" points="53.42 85.94 48.78 77.23 43.76 80.05"/><path class="cls-8" d="M24,125.9a67,67,0,0,0-4.57,6.17c-3.5,5.35-6,10.94-5.18,14,0,.07,0,.13.07.19.4,1.25,1.4,2,3.2,2.09"/><path class="cls-8" d="M14.28,146.22c0-.06,0-.12-.07-.19C5.64,119.52.31,93.55,1.73,86.5v0"/></g></g></g></g></svg>