<svg xmlns="http://www.w3.org/2000/svg" xmlns:xlink="http://www.w3.org/1999/xlink" viewBox="0 0 197.48 132.23"><defs><style>.cls-1,.cls-8{fill:none;}.cls-2{fill:#c2c7cc;}.cls-3{fill:url(#New_Pattern_Swatch_2);}.cls-4{fill:#fff;}.cls-5{fill:#dae0e5;}.cls-6{fill:#5f646b;}.cls-7{fill:#969a9e;}.cls-8{stroke:#373a3a;stroke-linecap:round;stroke-linejoin:round;stroke-width:3px;}</style><pattern id="New_Pattern_Swatch_2" data-name="New Pattern Swatch 2" width="16" height="19" patternTransform="translate(-415.38 40.41) scale(0.4)" patternUnits="userSpaceOnUse" viewBox="0 0 16 19"><rect class="cls-1" width="16" height="19"/><polygon class="cls-2" points="16 22.18 10.5 19 16 15.82 21.5 19 16 22.18"/><polygon class="cls-2" points="16 22.18 10.5 19 16 15.82 21.5 19 16 22.18"/><polygon class="cls-2" points="0 22.18 -5.5 19 0 15.82 5.5 19 0 22.18"/><polygon class="cls-2" points="0 22.18 -5.5 19 0 15.82 5.5 19 0 22.18"/><polygon class="cls-2" points="16 22.18 10.5 19 16 15.82 21.5 19 16 22.18"/><polygon class="cls-2" points="16 3.18 10.5 0 16 -3.17 21.5 0 16 3.18"/><polygon class="cls-2" points="16 22.18 10.5 19 16 15.82 21.5 19 16 22.18"/><polygon class="cls-2" points="0 22.18 -5.5 19 0 15.82 5.5 19 0 22.18"/><polygon class="cls-2" points="8 12.68 2.5 9.5 8 6.33 13.5 9.5 8 12.68"/><polygon class="cls-2" points="16 3.18 10.5 0 16 -3.17 21.5 0 16 3.18"/><polygon class="cls-2" points="0 3.18 -5.5 0 0 -3.17 5.5 0 0 3.18"/><polygon class="cls-2" points="0 22.18 -5.5 19 0 15.82 5.5 19 0 22.18"/><polygon class="cls-2" points="0 3.18 -5.5 0 0 -3.17 5.5 0 0 3.18"/><polygon class="cls-2" points="16 3.18 10.5 0 16 -3.17 21.5 0 16 3.18"/><polygon class="cls-2" points="16 3.18 10.5 0 16 -3.17 21.5 0 16 3.18"/><polygon class="cls-2" points="0 3.18 -5.5 0 0 -3.17 5.5 0 0 3.18"/><polygon class="cls-2" points="0 3.18 -5.5 0 0 -3.17 5.5 0 0 3.18"/></pattern></defs><g id="Layer_2" data-name="Layer 2"><g id="icons"><g id="marker"><path class="cls-3" d="M192.37,36c-6.44-6.71-19-9.11-27.74-6.29-7.54,2.45-11.39,12.68-4.9,18.56a18.26,18.26,0,0,0,9,4.46c-.93.88-1.87,1.74-2.84,2.58a105.79,105.79,0,0,1-8.4,6.51,385.46,385.46,0,0,1-42,26c-14.42,7.68-29.73,15-45.32,20-7.37,2.33-14.42,3.31-21.92.89-6.56-2.12-13.53-7.89-20.73-5a4.53,4.53,0,0,0-3.14,4.13c-.56,7.73,7.05,13.06,12.79,16.68a47.23,47.23,0,0,0,22.49,7.59c17.53,1,34.61-8.29,50.17-15.17A314.09,314.09,0,0,0,153.05,93.6c13.12-8.45,27.31-17.31,37.52-29.29C197.71,55.92,200.86,44.82,192.37,36Z"/><g id="marker-2" data-name="marker"><path class="cls-4" d="M183.55,32.12v3.22c0,2.68-.82,4.63-2.15,5.6,0,0-46.42,39.71-77.15,56.39h0c1.86-1.34,3-4,3-7.78V85.07c0-7.37-4.48-15.93-10-19.12L58.64,43.66c-2.29-1.32-4.4-1.51-6.08-.77,28.5-19.45,91.67-41.07,91.67-41.07a4.77,4.77,0,0,1,4.39.54l27.74,16C180.33,20.68,183.55,26.83,183.55,32.12ZM101.47,55.47l57.05-34.31-15.2-8.46L77.17,41.45Z"/><polygon class="cls-5" points="158.52 21.16 101.47 55.47 77.17 41.45 143.32 12.7 158.52 21.16"/><path class="cls-6" d="M107.25,85.07v4.47c0,3.73-1.17,6.41-3,7.78a5.22,5.22,0,0,1-1.09.63L42,122.37c1.82-.75,3-3,3-6.2v-3.31c0-5.46-3.32-11.81-7.41-14.18L8.93,82.17c-2.1-1.2-4-1.14-5.34,0v0L51.44,43.59a5.39,5.39,0,0,1,1.11-.69h0c1.68-.74,3.79-.55,6.08.77L97.24,66C102.77,69.14,107.25,77.7,107.25,85.07Z"/><path class="cls-7" d="M44.94,112.86v3.31c0,3.25-1.17,5.45-3,6.2l0,0a4.94,4.94,0,0,1-4.38-.62l-28.6-16.5C4.82,102.89,1.5,96.55,1.5,91.09V87.78c0-2.67.79-4.64,2.09-5.65s3.24-1.16,5.34,0l28.6,16.51C41.62,101.05,44.94,107.4,44.94,112.86Z"/><path class="cls-8" d="M41.91,122.39a4.94,4.94,0,0,1-4.38-.62l-28.6-16.5C4.82,102.89,1.5,96.55,1.5,91.09V87.78c0-2.67.8-4.63,2.09-5.65s3.24-1.16,5.34,0l28.6,16.51c4.09,2.37,7.41,8.72,7.41,14.18v3.31c0,3.25-1.17,5.45-3,6.2Z"/><polygon class="cls-8" points="158.52 21.16 101.47 55.47 77.17 41.45 143.32 12.7 158.52 21.16"/><path class="cls-8" d="M52.56,42.89c28.5-19.45,91.67-41.07,91.67-41.07a4.77,4.77,0,0,1,4.39.54l27.74,16c4,2.3,7.19,8.45,7.19,13.74v3.22c0,2.68-.82,4.63-2.15,5.6,0,0-46.42,39.71-77.15,56.39"/><path class="cls-8" d="M3.58,82.11,51.44,43.59a5.39,5.39,0,0,1,1.11-.69h0c1.68-.74,3.79-.55,6.08.77L97.24,66c5.53,3.19,10,11.75,10,19.12v4.47c0,3.73-1.17,6.41-3,7.78a5.22,5.22,0,0,1-1.09.63L41.91,122.39"/></g></g></g></g></svg>