<svg xmlns="http://www.w3.org/2000/svg" xmlns:xlink="http://www.w3.org/1999/xlink" viewBox="0 0 127.57 201.37"><defs><style>.cls-1,.cls-8{fill:none;}.cls-2{fill:#c2c7cc;}.cls-3{fill:url(#New_Pattern_Swatch_2);}.cls-4{fill:#969a9e;}.cls-5{fill:#fff;}.cls-6{fill:#373a3a;}.cls-7{fill:#dae0e5;}.cls-8{stroke:#373a3a;stroke-linecap:round;stroke-linejoin:round;stroke-width:3px;}</style><pattern id="New_Pattern_Swatch_2" data-name="New Pattern Swatch 2" width="16" height="19" patternTransform="translate(-415.38 40.41) scale(0.4)" patternUnits="userSpaceOnUse" viewBox="0 0 16 19"><rect class="cls-1" width="16" height="19"/><polygon class="cls-2" points="16 22.18 10.5 19 16 15.82 21.5 19 16 22.18"/><polygon class="cls-2" points="16 22.18 10.5 19 16 15.82 21.5 19 16 22.18"/><polygon class="cls-2" points="0 22.18 -5.5 19 0 15.82 5.5 19 0 22.18"/><polygon class="cls-2" points="0 22.18 -5.5 19 0 15.82 5.5 19 0 22.18"/><polygon class="cls-2" points="16 22.18 10.5 19 16 15.82 21.5 19 16 22.18"/><polygon class="cls-2" points="16 3.18 10.5 0 16 -3.17 21.5 0 16 3.18"/><polygon class="cls-2" points="16 22.18 10.5 19 16 15.82 21.5 19 16 22.18"/><polygon class="cls-2" points="0 22.18 -5.5 19 0 15.82 5.5 19 0 22.18"/><polygon class="cls-2" points="8 12.68 2.5 9.5 8 6.33 13.5 9.5 8 12.68"/><polygon class="cls-2" points="16 3.18 10.5 0 16 -3.17 21.5 0 16 3.18"/><polygon class="cls-2" points="0 3.18 -5.5 0 0 -3.17 5.5 0 0 3.18"/><polygon class="cls-2" points="0 22.18 -5.5 19 0 15.82 5.5 19 0 22.18"/><polygon class="cls-2" points="0 3.18 -5.5 0 0 -3.17 5.5 0 0 3.18"/><polygon class="cls-2" points="16 3.18 10.5 0 16 -3.17 21.5 0 16 3.18"/><polygon class="cls-2" points="16 3.18 10.5 0 16 -3.17 21.5 0 16 3.18"/><polygon class="cls-2" points="0 3.18 -5.5 0 0 -3.17 5.5 0 0 3.18"/><polygon class="cls-2" points="0 3.18 -5.5 0 0 -3.17 5.5 0 0 3.18"/></pattern></defs><g id="Layer_2" data-name="Layer 2"><g id="icons"><g id="marker"><path class="cls-3" d="M126.1,182.72c-4.49-7.63-16.63-9.62-24.34-12.19-4.92-1.64-9.89-3.16-14.79-4.87-3.57-1.25-7.12-3.12-10.85-3.79a19.56,19.56,0,0,0-10.31-3,34.54,34.54,0,0,0-12.29,2.73,86.26,86.26,0,0,0-8.62-2.39c-2.45-.52-5.09-1.07-7.47-.11-2,.8-4.43,3.19-4.15,5.57.64,5.46,4.55,7.29,9.2,9.19,1.17.48,2.36,1,3.57,1.54,8.44,10,42.4,25.94,46.49,25.94a17.4,17.4,0,0,0,4.21-.85c5.62.17,11.86-1.1,15.69-1.59,4.24-.55,9.36-.64,12.5-3.93A10.42,10.42,0,0,0,126.1,182.72Z"/><g id="marker-2" data-name="marker"><path class="cls-4" d="M27.34,147.39h0c.47-20.23-27.3-26.18-25.78-43.9-.18,2.11,1,4.16,3.6,5.66l37.36,21.57c5.36,3.09,14.71,2.72,20.89-.86l3.74-2.16c3.34-1.92,5.08-4.4,5.12-6.75.43,14-25.74,11.28-25.79,26.83v.09a4.59,4.59,0,0,1-2.33,3.53l-.47.29a14.81,14.81,0,0,1-13.56,0l-.46-.28C27.93,150.27,27.17,148.8,27.34,147.39Z"/><path class="cls-5" d="M72.25,120.47c0,.16,0,.32,0,.47C72.27,120.79,72.26,120.63,72.25,120.47Z"/><path class="cls-5" d="M72.25,120.47c0,.16,0,.32,0,.47,0,2.35-1.78,4.83-5.12,6.75l-3.74,2.16c-6.18,3.58-15.53,4-20.89.86L5.16,109.14c-2.61-1.5-3.78-3.55-3.6-5.66l8-93.05c-.13,1.63.78,3.2,2.79,4.36L41.26,31.51c4.14,2.39,11.39,2.09,16.17-.67l2.9-1.68c2.75-1.59,4.1-3.65,4-5.57ZM36.9,112,35.67,41.16,16.42,30.36,11.55,97.41Z"/><path class="cls-5" d="M64.28,23.59c.15,1.92-1.2,4-4,5.57l-2.9,1.68c-4.78,2.76-12,3.06-16.17.67L12.31,14.79c-2-1.16-2.92-2.73-2.79-4.36h0c.15-1.73,1.49-3.54,4-5l2.9-1.68C21.16,1,28.4.72,32.55,3.12l28.94,16.7a5,5,0,0,1,2.79,3.76Z"/><path class="cls-6" d="M44.15,151.4v7.76a7.25,7.25,0,1,1-14.49,0V151.4l.46.28a14.81,14.81,0,0,0,13.56,0l.47-.29Z"/><polygon class="cls-7" points="35.67 41.16 36.9 112.04 11.55 97.41 16.42 30.36 35.67 41.16"/><path class="cls-8" d="M9.52,10.42c.15-1.73,1.49-3.54,4-5l2.9-1.68C21.16,1,28.4.72,32.55,3.12l28.94,16.7a5,5,0,0,1,2.79,3.76"/><path class="cls-8" d="M64.28,23.59c.15,1.92-1.2,4-4,5.57l-2.9,1.68c-4.78,2.76-12,3.06-16.17.67L12.31,14.79c-2-1.16-2.92-2.73-2.79-4.36"/><path class="cls-8" d="M64.28,23.58s8,97.21,8,97.36c0,2.35-1.78,4.83-5.12,6.75l-3.74,2.16c-6.18,3.58-15.53,4-20.89.86L5.16,109.14c-2.61-1.5-3.78-3.55-3.6-5.66"/><line class="cls-8" x1="46.48" y1="147.77" x2="46.48" y2="147.59"/><path class="cls-8" d="M27.34,147.39c-.17,1.41.59,2.88,2.32,4l.46.28a14.81,14.81,0,0,0,13.56,0l.47-.29a4.64,4.64,0,0,0,2.33-3.53"/><path class="cls-8" d="M27.33,147.86c0-.15,0-.31,0-.47h0c.47-20.23-27.3-26.18-25.78-43.9l8-93.06"/><path class="cls-8" d="M72.25,120.47c0,.16,0,.32,0,.47.21,14-25.74,11.28-25.79,26.83v.09"/><path class="cls-8" d="M29.66,151.4v7.76a7.25,7.25,0,1,0,14.49,0V151.4"/><polygon class="cls-8" points="35.67 41.16 36.9 112.04 11.55 97.41 16.42 30.36 35.67 41.16"/></g></g></g></g></svg>