<svg xmlns="http://www.w3.org/2000/svg" xmlns:xlink="http://www.w3.org/1999/xlink" viewBox="0 0 129.02 198.1"><defs><style>.cls-1,.cls-8{fill:none;}.cls-2{fill:#c2c7cc;}.cls-3{fill:url(#New_Pattern_Swatch_2);}.cls-4{fill:#fff;}.cls-5{fill:#dae0e5;}.cls-6{fill:#5f646b;}.cls-7{fill:#373a3a;}.cls-8{stroke:#373a3a;stroke-linecap:round;stroke-linejoin:round;stroke-width:3px;}</style><pattern id="New_Pattern_Swatch_2" data-name="New Pattern Swatch 2" width="16" height="19" patternTransform="translate(-415.38 -55.94) scale(0.4)" patternUnits="userSpaceOnUse" viewBox="0 0 16 19"><rect class="cls-1" width="16" height="19"/><polygon class="cls-2" points="16 22.18 10.5 19 16 15.82 21.5 19 16 22.18"/><polygon class="cls-2" points="16 22.18 10.5 19 16 15.82 21.5 19 16 22.18"/><polygon class="cls-2" points="0 22.18 -5.5 19 0 15.82 5.5 19 0 22.18"/><polygon class="cls-2" points="0 22.18 -5.5 19 0 15.82 5.5 19 0 22.18"/><polygon class="cls-2" points="16 22.18 10.5 19 16 15.82 21.5 19 16 22.18"/><polygon class="cls-2" points="16 3.18 10.5 0 16 -3.17 21.5 0 16 3.18"/><polygon class="cls-2" points="16 22.18 10.5 19 16 15.82 21.5 19 16 22.18"/><polygon class="cls-2" points="0 22.18 -5.5 19 0 15.82 5.5 19 0 22.18"/><polygon class="cls-2" points="8 12.68 2.5 9.5 8 6.33 13.5 9.5 8 12.68"/><polygon class="cls-2" points="16 3.18 10.5 0 16 -3.17 21.5 0 16 3.18"/><polygon class="cls-2" points="0 3.18 -5.5 0 0 -3.17 5.5 0 0 3.18"/><polygon class="cls-2" points="0 22.18 -5.5 19 0 15.82 5.5 19 0 22.18"/><polygon class="cls-2" points="0 3.18 -5.5 0 0 -3.17 5.5 0 0 3.18"/><polygon class="cls-2" points="16 3.18 10.5 0 16 -3.17 21.5 0 16 3.18"/><polygon class="cls-2" points="16 3.18 10.5 0 16 -3.17 21.5 0 16 3.18"/><polygon class="cls-2" points="0 3.18 -5.5 0 0 -3.17 5.5 0 0 3.18"/><polygon class="cls-2" points="0 3.18 -5.5 0 0 -3.17 5.5 0 0 3.18"/></pattern></defs><g id="Layer_2" data-name="Layer 2"><g id="icons"><g id="microphone"><ellipse class="cls-3" cx="84.4" cy="172.34" rx="44.62" ry="25.76"/><g id="microphone-2" data-name="microphone"><path class="cls-4" d="M93.07,82.52a21.07,21.07,0,0,1-4.22,11.76,18.3,18.3,0,0,1-5.56,5.19A8.68,8.68,0,0,1,79,100.8h-.36c-3-.21-5.11-2.69-5.11-7,0-5.41,3.28-11.87,7.7-15.5a17.33,17.33,0,0,1,2.08-1.45C88.68,73.72,93.07,76.29,93.07,82.52Z"/><path class="cls-2" d="M88.85,94.28v19.58c0,8.54-1.88,19.8-10.83,25a20,20,0,0,1-10.22,2.59c-5.86,0-11.91-2-17.34-4.74q-2-1-3.94-2.1c-2.06-1.2-4.09-2.49-6-3.87a79.42,79.42,0,0,1-9.58-8,46.47,46.47,0,0,0,14.57,2.22c1.53,0,3-.06,4.5-.19.56.34,1.11.67,1.67,1C60.72,131,68.49,132.52,72.9,130c4.73-2.74,5.72-10.27,5.72-16.12V100.79H79a8.68,8.68,0,0,0,4.31-1.33A18.3,18.3,0,0,0,88.85,94.28Z"/><path class="cls-5" d="M81.21,61V78.33c-4.41,3.65-7.7,10.09-7.7,15.5,0,4.27,2.07,6.81,5.11,7v5.48C73.83,117.58,62.91,123.61,50,124.72c-1.46.13-3,.19-4.5.19a46.47,46.47,0,0,1-14.57-2.22c-12.39-4.11-21.16-14-21.16-30.17V64.45l.44-.18c1.16,4.2,4.52,8.24,10.14,11.47,7,4,16,6,25.15,6.11s18.2-2.1,25.15-6.11S81.21,66.34,81.21,61Z"/><path class="cls-6" d="M81.21,48.22V61c0,5.35-3.51,10.68-10.59,14.75s-16,6-25.15,6.11-18.19-2.1-25.15-6.11c-5.62-3.23-9-7.27-10.14-11.47A12.23,12.23,0,0,1,9.74,61V48.22c0,5.34,3.52,10.68,10.58,14.74s16,6.05,25.15,6.1S63.67,67,70.62,63,81.21,53.56,81.21,48.22Z"/><path class="cls-4" d="M81.21,41.83v6.39c0,5.34-3.51,10.68-10.59,14.74s-16,6.05-25.15,6.1S27.28,67,20.32,63,9.74,53.56,9.74,48.22V41.83C9.74,24.12,21.2,1.72,45.47,1.5,69.75,1.72,81.21,24.12,81.21,41.83Z"/><path class="cls-4" d="M78.62,106.27v7.59c0,5.85-1,13.38-5.72,16.12-4.41,2.54-12.18,1-21.26-4.27-.56-.32-1.11-.65-1.67-1C62.91,123.61,73.83,117.58,78.62,106.27Z"/><path class="cls-4" d="M50.68,144c26.48,2.36,37.4,21.22,18.27,32.26-12.87,7.44-33.75,7.44-46.63,0-18.88-10.9-8.53-29.72,17.93-32.23h.23v18.41c0,3.86,10,3.72,10,0V144Z"/><path class="cls-2" d="M50.46,144v18.44c0,3.72-10,3.86-10,0V130.7c2,1.38,4,2.67,6,3.87q1.9,1.1,3.94,2.1Z"/><path class="cls-4" d="M10.18,64.27l-.44.18V61A12.23,12.23,0,0,0,10.18,64.27Z"/><path class="cls-7" d="M9.74,61v3.46c-4.68,1.85-8.24-.77-8.24-6.4S5.08,45.7,9.74,42.15Z"/><line class="cls-8" x1="50.46" y1="162.47" x2="50.46" y2="136.68"/><path class="cls-8" d="M40.48,162.47c0,3.86,10,3.72,10,0"/><line class="cls-8" x1="40.48" y1="130.7" x2="40.48" y2="162.47"/><path class="cls-8" d="M9.74,61a12.23,12.23,0,0,0,.44,3.28c1.15,4.21,4.52,8.24,10.14,11.47,7,4,16,6,25.15,6.11s18.2-2.1,25.15-6.11S81.21,66.34,81.21,61"/><path class="cls-8" d="M9.74,48.22c0,5.34,3.52,10.68,10.58,14.74s16,6.05,25.15,6.1S63.67,67,70.62,63s10.59-9.4,10.59-14.74"/><path class="cls-8" d="M78.62,106.27C73.83,117.58,62.91,123.61,50,124.72c-1.46.13-3,.19-4.5.19a46.47,46.47,0,0,1-14.57-2.22c-12.39-4.1-21.16-14-21.16-30.17V41.83C9.74,24.12,21.2,1.72,45.47,1.5c24.28.22,35.74,22.62,35.74,40.33v36.5"/><path class="cls-8" d="M81.21,78.33c-4.42,3.63-7.7,10.09-7.7,15.5,0,4.27,2.07,6.75,5.11,7H79a8.68,8.68,0,0,0,4.31-1.33,18.3,18.3,0,0,0,5.56-5.19,21.07,21.07,0,0,0,4.22-11.76c0-6.23-4.39-8.8-9.78-5.64A17.33,17.33,0,0,0,81.21,78.33Z"/><path class="cls-8" d="M9.74,42.15C5.08,45.7,1.5,52.42,1.5,58.05s3.59,8.32,8.24,6.4l.44-.18"/><path class="cls-8" d="M78.62,100.8v13.06c0,5.85-1,13.38-5.72,16.12-4.41,2.54-12.18,1-21.26-4.27-.56-.32-1.11-.65-1.67-1"/><path class="cls-8" d="M30.9,122.69a79.42,79.42,0,0,0,9.58,8c2,1.38,4,2.67,6,3.87q1.9,1.1,3.94,2.1c5.44,2.67,11.48,4.74,17.34,4.74A20,20,0,0,0,78,138.82c9-5.16,10.83-16.42,10.83-25V94.28"/><path class="cls-8" d="M40.25,144.06c-26.46,2.51-36.81,21.33-17.93,32.23,12.88,7.44,33.76,7.44,46.63,0,19.13-11,8.21-29.9-18.27-32.26"/></g></g></g></g></svg>