<svg xmlns="http://www.w3.org/2000/svg" xmlns:xlink="http://www.w3.org/1999/xlink" viewBox="0 0 173.96 128.6"><defs><style>.cls-1,.cls-8{fill:none;}.cls-2{fill:#c2c7cc;}.cls-3{fill:url(#New_Pattern_Swatch_2);}.cls-4{fill:#969a9e;}.cls-5{fill:#fff;}.cls-6{fill:#373a3a;}.cls-7{fill:#5f646b;}.cls-8{stroke:#373a3a;stroke-linecap:round;stroke-linejoin:round;stroke-width:3px;}</style><pattern id="New_Pattern_Swatch_2" data-name="New Pattern Swatch 2" width="16" height="19" patternTransform="translate(-415.38 40.41) scale(0.4)" patternUnits="userSpaceOnUse" viewBox="0 0 16 19"><rect class="cls-1" width="16" height="19"/><polygon class="cls-2" points="16 22.18 10.5 19 16 15.82 21.5 19 16 22.18"/><polygon class="cls-2" points="16 22.18 10.5 19 16 15.82 21.5 19 16 22.18"/><polygon class="cls-2" points="0 22.18 -5.5 19 0 15.82 5.5 19 0 22.18"/><polygon class="cls-2" points="0 22.18 -5.5 19 0 15.82 5.5 19 0 22.18"/><polygon class="cls-2" points="16 22.18 10.5 19 16 15.82 21.5 19 16 22.18"/><polygon class="cls-2" points="16 3.18 10.5 0 16 -3.17 21.5 0 16 3.18"/><polygon class="cls-2" points="16 22.18 10.5 19 16 15.82 21.5 19 16 22.18"/><polygon class="cls-2" points="0 22.18 -5.5 19 0 15.82 5.5 19 0 22.18"/><polygon class="cls-2" points="8 12.68 2.5 9.5 8 6.33 13.5 9.5 8 12.68"/><polygon class="cls-2" points="16 3.18 10.5 0 16 -3.17 21.5 0 16 3.18"/><polygon class="cls-2" points="0 3.18 -5.5 0 0 -3.17 5.5 0 0 3.18"/><polygon class="cls-2" points="0 22.18 -5.5 19 0 15.82 5.5 19 0 22.18"/><polygon class="cls-2" points="0 3.18 -5.5 0 0 -3.17 5.5 0 0 3.18"/><polygon class="cls-2" points="16 3.18 10.5 0 16 -3.17 21.5 0 16 3.18"/><polygon class="cls-2" points="16 3.18 10.5 0 16 -3.17 21.5 0 16 3.18"/><polygon class="cls-2" points="0 3.18 -5.5 0 0 -3.17 5.5 0 0 3.18"/><polygon class="cls-2" points="0 3.18 -5.5 0 0 -3.17 5.5 0 0 3.18"/></pattern></defs><g id="Layer_2" data-name="Layer 2"><g id="icons"><g id="mouse"><path class="cls-3" d="M173.07,60.83c-2.37-10.32-10.25-17.78-20-21.2-9-3.14-22.24-3.77-31.39-1.53-14.81,3.62-13.72,24.76,0,28.93,5,1.51,10.3,1.26,15.45,1.44,1.7.06,3.4.11,5.09.21-.1,0,1.42.25,2.28.42,0,.12.05.23.07.33q0,.64,0,1.29c0,.28,0,.47,0,.58-.12.56-.25,1.1-.41,1.65a7.61,7.61,0,0,0-.14.91,4,4,0,0,0-.54.71c-.46.82-1,1.62-1.49,2.4.82-.93.67-.74-.43.55-1,1.09-2,2.13-3,3.12-.59.54-1.2,1.06-1.81,1.57l-1,.73a78.2,78.2,0,0,1-16,8.09c-15,5.55-31.28,11.11-47.32,12.33-14.93,1.13-27.61-3.13-41.68-7.4-6.46-2-13,5.94-9.07,11.8,9.28,13.79,26,18.65,41.67,20.34,17.17,1.85,34.54-1.62,51-6.4,14.92-4.33,29.92-9.25,42.2-19.08S176.73,76.74,173.07,60.83Z"/><g id="mouse-2" data-name="mouse"><path class="cls-4" d="M144.45,29.26C157.1,48,154,72.37,131.93,85.13l-30.15,17.41C77.33,116.65,40.37,118.18,19.2,106l-3.42-2c-15-8.65-14-19.4-14.28-20.28,0-6.4,3.64-18.4,11-31.19a39,39,0,0,0-2.07,10.65c.26.78-.63,10.39,12.78,18.15l3.06,1.76c19,10.94,52,9.56,73.91-3.06l27-15.6C141.38,56.19,146.8,42.53,144.45,29.26Z"/><path class="cls-5" d="M144.45,29.26c2.35,13.27-3.07,26.93-17.32,35.16l-27,15.6c-21.87,12.62-55,14-73.91,3.06l-3.06-1.76C9.75,73.56,10.64,64,10.38,63.17a39,39,0,0,1,2.07-10.65s0,0,0,0C25.05,30.51,48.61,6.21,84,4c-.12.07-.22.14-.34.2-7.14,4-13.29,12-16.79,20.42l16.38,8c10-6.35,21.92-11.18,34.42-10.42-.52-4.59-2.4-7.91-5.2-9.72l-.27-.17L100.32,4.54C121.15,7.13,136.17,17,144.45,29.26Z"/><path class="cls-6" d="M117.67,22.19c-12.5-.76-24.42,4.07-34.42,10.42l-1.13-.56c3.6-7.71,9.39-14.69,15.92-18.46,5.55-3.21,10.59-3.49,14.16-1.29l.27.17C115.27,14.28,117.15,17.6,117.67,22.19Z"/><path class="cls-7" d="M100.32,4.54,112.2,12.3c-3.59-2.17-8.61-1.92-14.16,1.29-6.53,3.77-12.32,10.75-15.92,18.46L66.87,24.64c3.5-8.46,9.65-16.41,16.79-20.42.12-.06.22-.13.34-.2C89.55.91,94.56.77,98.11,3.09l2.2,1.45Z"/><path class="cls-8" d="M12.46,52.49C25.05,30.51,48.61,6.21,84,4"/><path class="cls-8" d="M100.32,4.54C121.15,7.13,136.17,17,144.45,29.26,157.1,48,154,72.37,131.93,85.13l-30.15,17.41C77.33,116.65,40.37,118.18,19.2,106l-3.42-2c-15-8.65-14-19.4-14.28-20.28,0-6.4,3.64-18.4,11-31.19"/><path class="cls-8" d="M144.45,29.24v0c2.35,13.27-3.07,26.93-17.32,35.16l-27,15.6c-21.87,12.62-55,14-73.91,3.06l-3.06-1.76C9.75,73.56,10.64,64,10.38,63.17a39,39,0,0,1,2.07-10.65s0,0,0,0"/><path class="cls-8" d="M112.2,12.3c-3.59-2.17-8.61-1.92-14.16,1.29-6.53,3.77-12.32,10.75-15.92,18.46"/><path class="cls-8" d="M112.47,12.47l-.27-.17L100.32,4.54h0l-2.2-1.45C94.56.77,89.55.91,84,4c-.12.07-.22.14-.34.2-7.14,4-13.29,12-16.79,20.42l16.38,8c10-6.35,21.92-11.18,34.42-10.42C117.15,17.6,115.27,14.28,112.47,12.47Z"/></g></g></g></g></svg>