<svg xmlns="http://www.w3.org/2000/svg" xmlns:xlink="http://www.w3.org/1999/xlink" viewBox="0 0 197.47 130.21"><defs><style>.cls-1,.cls-8{fill:none;}.cls-2{fill:#c2c7cc;}.cls-3{fill:url(#New_Pattern_Swatch_2);}.cls-4{fill:#5f646b;}.cls-5{fill:#fff;}.cls-6{fill:#dae0e5;}.cls-7{fill:#969a9e;}.cls-8{stroke:#373a3a;stroke-linecap:round;stroke-linejoin:round;stroke-width:3px;}</style><pattern id="New_Pattern_Swatch_2" data-name="New Pattern Swatch 2" width="16" height="19" patternTransform="translate(-415.38 40.41) scale(0.4)" patternUnits="userSpaceOnUse" viewBox="0 0 16 19"><rect class="cls-1" width="16" height="19"/><polygon class="cls-2" points="16 22.18 10.5 19 16 15.82 21.5 19 16 22.18"/><polygon class="cls-2" points="16 22.18 10.5 19 16 15.82 21.5 19 16 22.18"/><polygon class="cls-2" points="0 22.18 -5.5 19 0 15.82 5.5 19 0 22.18"/><polygon class="cls-2" points="0 22.18 -5.5 19 0 15.82 5.5 19 0 22.18"/><polygon class="cls-2" points="16 22.18 10.5 19 16 15.82 21.5 19 16 22.18"/><polygon class="cls-2" points="16 3.18 10.5 0 16 -3.17 21.5 0 16 3.18"/><polygon class="cls-2" points="16 22.18 10.5 19 16 15.82 21.5 19 16 22.18"/><polygon class="cls-2" points="0 22.18 -5.5 19 0 15.82 5.5 19 0 22.18"/><polygon class="cls-2" points="8 12.68 2.5 9.5 8 6.33 13.5 9.5 8 12.68"/><polygon class="cls-2" points="16 3.18 10.5 0 16 -3.17 21.5 0 16 3.18"/><polygon class="cls-2" points="0 3.18 -5.5 0 0 -3.17 5.5 0 0 3.18"/><polygon class="cls-2" points="0 22.18 -5.5 19 0 15.82 5.5 19 0 22.18"/><polygon class="cls-2" points="0 3.18 -5.5 0 0 -3.17 5.5 0 0 3.18"/><polygon class="cls-2" points="16 3.18 10.5 0 16 -3.17 21.5 0 16 3.18"/><polygon class="cls-2" points="16 3.18 10.5 0 16 -3.17 21.5 0 16 3.18"/><polygon class="cls-2" points="0 3.18 -5.5 0 0 -3.17 5.5 0 0 3.18"/><polygon class="cls-2" points="0 3.18 -5.5 0 0 -3.17 5.5 0 0 3.18"/></pattern></defs><g id="Layer_2" data-name="Layer 2"><g id="icons"><g id="notepad"><path class="cls-3" d="M197,56.72c0-.07-.06-.13-.08-.2a10.43,10.43,0,0,0-.3-1.16c-2.08-6.48-8.67-8.48-14.8-8.24l-.2,0c-6.5-1.39-10.06,5.89-7.29,10.16-1,6.7-7.08,9-12.78,12.95-7.55,5.26-13.41,13-19.09,20.1-5.15,6.45-9.53,14.51-17.7,17.4-1.64.58-3.35,1.1-5.07,1.57-1.38-.46-2.74-1-4-1.29-4.71-1.26-9.42-2.49-13.86.33a12.77,12.77,0,0,0-3.68,3.64c-.52,0-1,0-1.56-.06a6.67,6.67,0,0,0-5.51,2.78,5.73,5.73,0,0,0-1.92,1.6,52.1,52.1,0,0,0-15.26,4.89C69,123.61,72.38,131.64,77.6,130a57.81,57.81,0,0,1,14.86-2.86l.31.1c12.25,3,24.47,1,36-3.37a15.19,15.19,0,0,0,7.24-2.87c.18-.14.36-.28.55-.41a58,58,0,0,0,12.75-7.8c4.88-4.08,8.64-9.2,12.57-14.16,7.87-9.92,18.25-16.12,27.27-24.77C193.72,69.51,199.18,63.53,197,56.72Z"/><g id="notepad-2" data-name="notepad"><path class="cls-4" d="M180.34,35.72c4.63.15,8.31,7.35.57,18.3-1.92,2.7-4.74,6.46-8.11,10.82V49C172.8,39.54,176.84,35.59,180.34,35.72Z"/><path class="cls-5" d="M180.34,35.71h0c-3.5-.13-7.54,3.82-7.54,13.28L101.42,7.78c-4.13-2.12-.67-7.49,2.42-6C117.34,8.14,180.34,35.71,180.34,35.71Z"/><polygon class="cls-6" points="172.8 64.84 172.8 68.88 167.07 72.18 167.06 72.19 104.69 108.2 104.68 108.2 72.88 126.56 72.88 106.68 172.8 49 172.8 64.84"/><polygon class="cls-5" points="172.8 49 72.88 106.68 1.5 65.47 101.42 7.78 172.8 49"/><path class="cls-7" d="M104.69,108.2l62.37-36c-15.69,20-36.95,46-36.95,46Z"/><polygon class="cls-5" points="72.88 106.68 72.88 126.56 1.5 85.35 1.5 65.47 72.88 106.68"/><polygon class="cls-8" points="1.5 65.47 101.42 7.78 172.8 49 72.88 106.68 1.5 65.47"/><line class="cls-8" x1="85.42" y1="79.77" x2="48.12" y2="58.24"/><line class="cls-8" x1="96.53" y1="73.35" x2="59.23" y2="51.82"/><line class="cls-8" x1="107.64" y1="66.93" x2="70.35" y2="45.4"/><line class="cls-8" x1="118.77" y1="60.51" x2="81.47" y2="38.98"/><line class="cls-8" x1="129.88" y1="54.09" x2="92.58" y2="32.56"/><line class="cls-8" x1="72.88" y1="106.68" x2="72.88" y2="126.56"/><path class="cls-8" d="M167.08,72.18l5.72-3.3V49c0-9.46,4-13.4,7.54-13.28,4.63.16,8.31,7.35.57,18.3-1.92,2.7-4.74,6.46-8.11,10.82"/><line class="cls-8" x1="104.69" y1="108.2" x2="167.06" y2="72.19"/><polyline class="cls-8" points="1.5 65.47 1.5 85.35 72.88 126.56 104.68 108.2"/><path class="cls-8" d="M167.08,72.18h0c-15.69,20-36.95,46-36.95,46l-25.42-10h0"/><path class="cls-8" d="M180.34,35.71s-63-27.57-76.5-34c-3.09-1.46-6.55,3.91-2.42,6"/></g></g></g></g></svg>