<svg xmlns="http://www.w3.org/2000/svg" xmlns:xlink="http://www.w3.org/1999/xlink" viewBox="0 0 195.04 129.21"><defs><style>.cls-1,.cls-7{fill:none;}.cls-2{fill:#c2c7cc;}.cls-3{fill:url(#New_Pattern_Swatch_2);}.cls-4{fill:#dae0e5;}.cls-5{fill:#fff;}.cls-6{fill:#5f646b;}.cls-7{stroke:#373a3a;stroke-linecap:round;stroke-linejoin:round;stroke-width:3px;}</style><pattern id="New_Pattern_Swatch_2" data-name="New Pattern Swatch 2" width="16" height="19" patternTransform="translate(-415.38 40.41) scale(0.4)" patternUnits="userSpaceOnUse" viewBox="0 0 16 19"><rect class="cls-1" width="16" height="19"/><polygon class="cls-2" points="16 22.18 10.5 19 16 15.82 21.5 19 16 22.18"/><polygon class="cls-2" points="16 22.18 10.5 19 16 15.82 21.5 19 16 22.18"/><polygon class="cls-2" points="0 22.18 -5.5 19 0 15.82 5.5 19 0 22.18"/><polygon class="cls-2" points="0 22.18 -5.5 19 0 15.82 5.5 19 0 22.18"/><polygon class="cls-2" points="16 22.18 10.5 19 16 15.82 21.5 19 16 22.18"/><polygon class="cls-2" points="16 3.18 10.5 0 16 -3.17 21.5 0 16 3.18"/><polygon class="cls-2" points="16 22.18 10.5 19 16 15.82 21.5 19 16 22.18"/><polygon class="cls-2" points="0 22.18 -5.5 19 0 15.82 5.5 19 0 22.18"/><polygon class="cls-2" points="8 12.68 2.5 9.5 8 6.33 13.5 9.5 8 12.68"/><polygon class="cls-2" points="16 3.18 10.5 0 16 -3.17 21.5 0 16 3.18"/><polygon class="cls-2" points="0 3.18 -5.5 0 0 -3.17 5.5 0 0 3.18"/><polygon class="cls-2" points="0 22.18 -5.5 19 0 15.82 5.5 19 0 22.18"/><polygon class="cls-2" points="0 3.18 -5.5 0 0 -3.17 5.5 0 0 3.18"/><polygon class="cls-2" points="16 3.18 10.5 0 16 -3.17 21.5 0 16 3.18"/><polygon class="cls-2" points="16 3.18 10.5 0 16 -3.17 21.5 0 16 3.18"/><polygon class="cls-2" points="0 3.18 -5.5 0 0 -3.17 5.5 0 0 3.18"/><polygon class="cls-2" points="0 3.18 -5.5 0 0 -3.17 5.5 0 0 3.18"/></pattern></defs><g id="Layer_2" data-name="Layer 2"><g id="icons"><g id="notepad"><path class="cls-3" d="M176.35,50.68c-3.77-2.42-10.16.68-9.6,5.51a30.35,30.35,0,0,1,.48,6.25c-3.15-.12-6.08,2.41-8.63,4q-5.76,3.62-11.54,7.21c-7.44,4.61-14.91,9.15-22.48,13.53-14.38,8.32-29.82,15.21-43,25.39a7.69,7.69,0,0,0-2.85,6.58c-1.16.1-2.33.19-3.5.32a4.32,4.32,0,0,0,0,8.64c6.77.72,14,1.45,20.8.88,6.16-.52,12.35-6,17.49-9.21,12.51-7.7,25.18-15.12,37.94-22.38S177.36,83.53,190,76.09C204.56,67.51,183.71,55.39,176.35,50.68Zm2.54,17.84c.09-.31.18-.62.26-.94l.7.47c-.34.16-.67.31-.94.46Z"/><g id="notepad-2" data-name="notepad"><polygon class="cls-4" points="171.26 56.84 171.26 67.16 72.25 124.32 72.25 104.62 171.26 47.45 171.26 56.84"/><path class="cls-5" d="M140.94,30l30.32,17.5-99,57.17L23.83,76.67A46.48,46.48,0,0,1,7.1,60.54a31.37,31.37,0,0,1-3.56-8s14,2,25.4-4.57l71.6-41.33Z"/><polygon class="cls-5" points="72.25 104.62 72.25 124.32 1.5 83.48 1.5 63.78 72.25 104.62"/><path class="cls-6" d="M23.83,76.67,1.5,63.78l5.6-3.24A46.48,46.48,0,0,0,23.83,76.67Z"/><line class="cls-7" x1="84.67" y1="77.95" x2="47.71" y2="56.61"/><line class="cls-7" x1="95.68" y1="71.59" x2="58.73" y2="50.25"/><line class="cls-7" x1="106.69" y1="65.22" x2="69.74" y2="43.89"/><line class="cls-7" x1="117.72" y1="58.87" x2="80.76" y2="37.52"/><line class="cls-7" x1="128.73" y1="52.51" x2="91.77" y2="31.17"/><line class="cls-7" x1="72.25" y1="104.62" x2="72.25" y2="124.32"/><polyline class="cls-7" points="1.5 63.78 1.5 83.48 72.25 124.32 171.26 67.16 171.26 47.45"/><path class="cls-7" d="M157.39,48.77a25.08,25.08,0,0,1,4.13-6.94A19,19,0,0,1,165.86,38a9.15,9.15,0,0,1,5.52-1.61c4.89.44,6.57,6.7,3.74,14a24.71,24.71,0,0,1-3.73,6.48"/><path class="cls-7" d="M146.76,42.63a24.66,24.66,0,0,1,4.13-7,18.6,18.6,0,0,1,5-4.24,8.58,8.58,0,0,1,4.83-1.21c3.4.31,5.25,3.43,5.11,7.75a18.54,18.54,0,0,1-1.16,5.69s0,.07,0,.11"/><path class="cls-7" d="M136.82,36.9A24.36,24.36,0,0,1,140.94,30a18.1,18.1,0,0,1,5-4.24,8.69,8.69,0,0,1,4.83-1.22c3.19.28,5,3.05,5.12,7a18,18,0,0,1-1.16,6.48,1,1,0,0,1,0,.12"/><path class="cls-7" d="M126.87,31.15A24.31,24.31,0,0,1,131,24.2,18.24,18.24,0,0,1,136,20a8.58,8.58,0,0,1,4.83-1.21c3.18.28,5,3,5.11,7a17.91,17.91,0,0,1-1.16,6.46l0,.13"/><path class="cls-7" d="M116.93,25.41a24.66,24.66,0,0,1,4.13-6.95,18.24,18.24,0,0,1,5-4.24A8.59,8.59,0,0,1,130.91,13c3.19.28,5,3,5.12,7a18,18,0,0,1-1.16,6.47,1.12,1.12,0,0,0-.05.13"/><path class="cls-7" d="M107,19.67a25.1,25.1,0,0,1,4.13-7,18.52,18.52,0,0,1,5-4.23A8.61,8.61,0,0,1,121,7.27c3.19.28,5,3.05,5.12,7a18,18,0,0,1-1.16,6.47l0,.12"/><path class="cls-7" d="M97,13.93A24.64,24.64,0,0,1,101.17,7c3-3.54,6.71-5.73,9.86-5.46s5,3.05,5.1,7A17.94,17.94,0,0,1,115,15s0,.08,0,.13"/><path class="cls-7" d="M7.1,60.54,1.5,63.78l70.75,40.84,99-57.17L100.54,6.61,28.94,47.94c-11.45,6.61-25.4,4.57-25.4,4.57a30.77,30.77,0,0,0,3.56,8A46.32,46.32,0,0,0,23.83,76.67"/></g></g></g></g></svg>