<svg xmlns="http://www.w3.org/2000/svg" xmlns:xlink="http://www.w3.org/1999/xlink" viewBox="0 0 212.54 132.94"><defs><style>.cls-1,.cls-5{fill:none;}.cls-2{fill:#c2c7cc;}.cls-3{fill:url(#New_Pattern_Swatch_2);}.cls-4{fill:#fff;}.cls-5{stroke:#373a3a;stroke-linecap:round;stroke-linejoin:round;stroke-width:3px;}</style><pattern id="New_Pattern_Swatch_2" data-name="New Pattern Swatch 2" width="16" height="19" patternTransform="translate(-415.38 40.41) scale(0.4)" patternUnits="userSpaceOnUse" viewBox="0 0 16 19"><rect class="cls-1" width="16" height="19"/><polygon class="cls-2" points="16 22.18 10.5 19 16 15.82 21.5 19 16 22.18"/><polygon class="cls-2" points="16 22.18 10.5 19 16 15.82 21.5 19 16 22.18"/><polygon class="cls-2" points="0 22.18 -5.5 19 0 15.82 5.5 19 0 22.18"/><polygon class="cls-2" points="0 22.18 -5.5 19 0 15.82 5.5 19 0 22.18"/><polygon class="cls-2" points="16 22.18 10.5 19 16 15.82 21.5 19 16 22.18"/><polygon class="cls-2" points="16 3.18 10.5 0 16 -3.17 21.5 0 16 3.18"/><polygon class="cls-2" points="16 22.18 10.5 19 16 15.82 21.5 19 16 22.18"/><polygon class="cls-2" points="0 22.18 -5.5 19 0 15.82 5.5 19 0 22.18"/><polygon class="cls-2" points="8 12.68 2.5 9.5 8 6.33 13.5 9.5 8 12.68"/><polygon class="cls-2" points="16 3.18 10.5 0 16 -3.17 21.5 0 16 3.18"/><polygon class="cls-2" points="0 3.18 -5.5 0 0 -3.17 5.5 0 0 3.18"/><polygon class="cls-2" points="0 22.18 -5.5 19 0 15.82 5.5 19 0 22.18"/><polygon class="cls-2" points="0 3.18 -5.5 0 0 -3.17 5.5 0 0 3.18"/><polygon class="cls-2" points="16 3.18 10.5 0 16 -3.17 21.5 0 16 3.18"/><polygon class="cls-2" points="16 3.18 10.5 0 16 -3.17 21.5 0 16 3.18"/><polygon class="cls-2" points="0 3.18 -5.5 0 0 -3.17 5.5 0 0 3.18"/><polygon class="cls-2" points="0 3.18 -5.5 0 0 -3.17 5.5 0 0 3.18"/></pattern></defs><g id="Layer_2" data-name="Layer 2"><g id="icons"><g id="note"><path class="cls-3" d="M212.54,69.48,102.63,132.94,8.42,78.55,118.33,15.09l12.34,7.12-6.91,4a15.72,15.72,0,0,0-9.89,1.48c-4,2.28-4,6,0,8.25a15.7,15.7,0,0,0,14.28,0c2.68-1.55,3.78-3.86,2.58-5.71l6.9-4,13.9,8-6.92,4a15.21,15.21,0,0,0-9.89,1.48c-3.94,2.28-3.94,6,0,8.25A15.76,15.76,0,0,0,149,48c2.69-1.55,3.67-3.78,2.59-5.72l6.9-4,13.89,8-6.9,4a15.68,15.68,0,0,0-9.9,1.48c-3.94,2.28-3.94,6,0,8.25a15.76,15.76,0,0,0,14.28,0c2.68-1.55,3.74-3.78,2.58-5.72l6.91-4,13.89,8-6.9,4a15.68,15.68,0,0,0-9.9,1.48c-3.95,2.28-3.95,6,0,8.25a15.78,15.78,0,0,0,14.29,0c2.67-1.55,3.53-3.75,2.57-5.71l6.9-4Z"/><g id="note-2" data-name="note"><path class="cls-4" d="M205.63,55.88,95.71,119.35,1.5,65,111.41,1.5l12.34,7.12-6.9,4a15.68,15.68,0,0,0-9.9,1.48c-4,2.28-4,6,0,8.25a15.78,15.78,0,0,0,14.29,0c2.67-1.55,3.78-3.86,2.57-5.72l6.9-4,13.9,8-6.91,4a15.23,15.23,0,0,0-9.9,1.48c-3.94,2.28-3.94,6,0,8.25a15.78,15.78,0,0,0,14.29,0c2.68-1.55,3.67-3.78,2.58-5.71l6.91-4,13.88,8-6.9,4a15.58,15.58,0,0,0-9.89,1.48c-3.95,2.28-3.95,6,0,8.25a15.76,15.76,0,0,0,14.28,0c2.68-1.55,3.74-3.78,2.57-5.72l6.92-4,13.88,8-6.9,4a15.65,15.65,0,0,0-9.89,1.48c-4,2.28-4,6,0,8.25a15.76,15.76,0,0,0,14.28,0c2.68-1.55,3.54-3.75,2.58-5.72l6.9-4Z"/><path class="cls-5" d="M193.29,48.77l-6.9,4c1,2,.1,4.17-2.58,5.72a15.76,15.76,0,0,1-14.28,0c-4-2.28-4-6,0-8.25a15.65,15.65,0,0,1,9.89-1.48l6.9-4-13.88-8-6.92,4c1.17,1.94.11,4.17-2.57,5.72a15.76,15.76,0,0,1-14.28,0c-3.95-2.28-3.95-6,0-8.25a15.58,15.58,0,0,1,9.89-1.48l6.9-4-13.88-8-6.91,4c1.09,1.93.1,4.16-2.58,5.71a15.78,15.78,0,0,1-14.29,0c-3.94-2.28-3.94-6,0-8.25a15.23,15.23,0,0,1,9.9-1.48l6.91-4-13.9-8-6.9,4c1.21,1.86.1,4.17-2.57,5.72a15.78,15.78,0,0,1-14.29,0c-4-2.28-4-6,0-8.25a15.68,15.68,0,0,1,9.9-1.48l6.9-4L111.41,1.5,1.5,65l94.21,54.39L205.63,55.88Z"/><line class="cls-5" x1="93.32" y1="41.36" x2="136.57" y2="66.34"/><line class="cls-5" x1="80.01" y1="49.04" x2="123.27" y2="74.02"/><line class="cls-5" x1="66.7" y1="56.73" x2="109.96" y2="81.7"/><line class="cls-5" x1="53.4" y1="64.41" x2="96.65" y2="89.39"/></g></g></g></g></svg>