<svg xmlns="http://www.w3.org/2000/svg" xmlns:xlink="http://www.w3.org/1999/xlink" viewBox="0 0 201.14 131.75"><defs><style>.cls-1,.cls-7{fill:none;}.cls-2{fill:#c2c7cc;}.cls-3{fill:url(#New_Pattern_Swatch_2);}.cls-4{fill:#373a3a;}.cls-5{fill:#fff;}.cls-6{fill:#969a9e;}.cls-7{stroke:#373a3a;stroke-linecap:round;stroke-linejoin:round;stroke-width:3px;}</style><pattern id="New_Pattern_Swatch_2" data-name="New Pattern Swatch 2" width="16" height="19" patternTransform="translate(-415.38 40.41) scale(0.4)" patternUnits="userSpaceOnUse" viewBox="0 0 16 19"><rect class="cls-1" width="16" height="19"/><polygon class="cls-2" points="16 22.18 10.5 19 16 15.82 21.5 19 16 22.18"/><polygon class="cls-2" points="16 22.18 10.5 19 16 15.82 21.5 19 16 22.18"/><polygon class="cls-2" points="0 22.18 -5.5 19 0 15.82 5.5 19 0 22.18"/><polygon class="cls-2" points="0 22.18 -5.5 19 0 15.82 5.5 19 0 22.18"/><polygon class="cls-2" points="16 22.18 10.5 19 16 15.82 21.5 19 16 22.18"/><polygon class="cls-2" points="16 3.18 10.5 0 16 -3.17 21.5 0 16 3.18"/><polygon class="cls-2" points="16 22.18 10.5 19 16 15.82 21.5 19 16 22.18"/><polygon class="cls-2" points="0 22.18 -5.5 19 0 15.82 5.5 19 0 22.18"/><polygon class="cls-2" points="8 12.68 2.5 9.5 8 6.33 13.5 9.5 8 12.68"/><polygon class="cls-2" points="16 3.18 10.5 0 16 -3.17 21.5 0 16 3.18"/><polygon class="cls-2" points="0 3.18 -5.5 0 0 -3.17 5.5 0 0 3.18"/><polygon class="cls-2" points="0 22.18 -5.5 19 0 15.82 5.5 19 0 22.18"/><polygon class="cls-2" points="0 3.18 -5.5 0 0 -3.17 5.5 0 0 3.18"/><polygon class="cls-2" points="16 3.18 10.5 0 16 -3.17 21.5 0 16 3.18"/><polygon class="cls-2" points="16 3.18 10.5 0 16 -3.17 21.5 0 16 3.18"/><polygon class="cls-2" points="0 3.18 -5.5 0 0 -3.17 5.5 0 0 3.18"/><polygon class="cls-2" points="0 3.18 -5.5 0 0 -3.17 5.5 0 0 3.18"/></pattern></defs><g id="Layer_2" data-name="Layer 2"><g id="icons"><g id="pen"><path class="cls-3" d="M182,24.56c-6.53,1.49-12.28,7.13-18,10.41-6.41,3.68-13,7.09-19.49,10.61L106.28,66.36C85,77.93,63.62,91.25,40.55,99.34,39,97.42,36.3,96.46,34,98.2c-1.61,1.2-3.16,2.45-4.7,3.71A9.24,9.24,0,0,0,24.09,103c-1.6.83-3.15,1.64-4.68,2.59a9.56,9.56,0,0,0-4.77,9.61L13,116.73c-4.2,4-2.39,12.27,3.56,13.46C43.86,135.65,70.62,126,94.33,113c12.24-6.74,23.79-14.66,35.65-22,11.67-7.23,23.7-13.84,35.93-20.08,6.43-3.28,12.94-6.41,19.42-9.61,5.37-2.64,10.83-6,13.74-11.46C205.38,37.9,196.61,21.25,182,24.56Zm-1.17,16.1c-.16-1,2.21-1.06,0,0Z"/><g id="pen-2" data-name="pen"><path class="cls-4" d="M185.85,19.1c0,3.06-1.1,5.2-2.86,6.16l-5.81,4.21c-.9-9.11-7-19.38-14.59-24.27l7.08-3c1.72-1,4.11-.92,6.76.61C181.63,5.78,185.85,13.09,185.85,19.1Z"/><path class="cls-5" d="M177.18,29.47a21.86,21.86,0,0,1,.12,2.27c0,5-1.75,8.48-4.58,10.12l-1.9,1.1V37.22a21.73,21.73,0,0,0,0-3.61v-1.2a3.47,3.47,0,0,1-.06.64,28.8,28.8,0,0,0-.57-3.56,34.09,34.09,0,0,0-9.74-17.2c-6.31-6-12.33-7.33-16.26-5.06l6.4-3.69c2.83-1.64,6.75-1.42,11.06,1.09.32.18.63.37.94.57C170.17,10.09,176.28,20.36,177.18,29.47Z"/><path class="cls-5" d="M170.82,33.61a21.73,21.73,0,0,1,0,3.61Z"/><path class="cls-5" d="M170.82,43v4.62c0,8.9-24.9,16.56-45.26,25V67.89h0c0-1.82-2.94-2.94-5.92-2.82v7.6c-6,1.86-12.9-.38-12.9-3.75,0-1.32,1-2.8,3.62-4.29,19.57-11.29,59-20.51,60.41-31.58,0,.18,0,.38.06.56Z"/><path class="cls-5" d="M170.82,32.41v1.2c0-.18,0-.38-.06-.56A3.47,3.47,0,0,0,170.82,32.41Z"/><path class="cls-6" d="M170.19,29.49a28.8,28.8,0,0,1,.57,3.56c-1.46,11.07-40.84,20.29-60.41,31.58-2.57,1.49-3.62,3-3.62,4.29h0V81.79c-29.32,16.06-59,30.66-63.08,29.61h-.08c3.37-.72,5.59-3.91,5.59-9,0-8.16-5.73-18.08-12.8-22.16-4.52-2.62-8.51-2.2-10.78.59,7.37-10.39,95.9-64.39,118.62-73.63,3.93-2.27,9.95-.93,16.26,5.06A34.09,34.09,0,0,1,170.19,29.49Z"/><path class="cls-5" d="M125.56,72.58V83.06c0,1-.92,2.26-3.29,3.62-6.38,3.68-15.55,1.3-15.55-2.59V68.92h0c0,3.37,6.91,5.62,12.9,3.75a13.16,13.16,0,0,0,2.64-1.16c2.36-1.36,3.28-2.6,3.28-3.62h0Z"/><path class="cls-5" d="M125.55,67.89c0,1-.92,2.26-3.28,3.62a13.16,13.16,0,0,1-2.64,1.16v-7.6C122.61,65,125.55,66.07,125.55,67.89Z"/><path class="cls-5" d="M49.15,102.43c0,5.07-2.22,8.26-5.59,9l-.5.08-.29,0L16.34,115.7v0c1.74-.13,2.93-1.62,2.93-4.1a12.77,12.77,0,0,0-5.79-10c-2-1.19-3.84-1-4.86.28l17-21c2.31-2.76,6.26-3.21,10.78-.59C43.42,84.35,49.15,94.27,49.15,102.43Z"/><path class="cls-2" d="M19.27,111.58c0,2.48-1.19,4-2.93,4.1v0l-9.21,1.45a4.86,4.86,0,0,1-4.54-7.85l6-7.45c1-1.27,2.82-1.47,4.86-.28A12.77,12.77,0,0,1,19.27,111.58Z"/><path class="cls-7" d="M25.57,80.86c2.27-2.79,6.26-3.21,10.78-.59,7.07,4.08,12.8,14,12.8,22.16,0,5.07-2.22,8.28-5.59,9a4.33,4.33,0,0,1-.5.08"/><path class="cls-7" d="M8.62,101.85c1-1.27,2.82-1.47,4.86-.28a12.77,12.77,0,0,1,5.79,10c0,2.48-1.19,4-2.93,4.1"/><path class="cls-7" d="M144.19,7.23l6.4-3.69c2.83-1.64,6.75-1.42,11.06,1.09.32.18.63.37.94.57,7.58,4.89,13.69,15.16,14.59,24.27a21.86,21.86,0,0,1,.12,2.27c0,5-1.75,8.48-4.58,10.12"/><path class="cls-7" d="M106.72,81.79c-29.32,16.06-59,30.66-63.08,29.61l-.58.09-.29,0L7.13,117.15a4.86,4.86,0,0,1-4.54-7.85l23-28.44c7.37-10.39,95.9-64.39,118.62-73.63,3.93-2.27,9.95-.93,16.26,5.06a34.09,34.09,0,0,1,9.74,17.2,28.8,28.8,0,0,1,.57,3.56c0,.18,0,.38.06.56a24.13,24.13,0,0,1,0,3.61"/><line class="cls-7" x1="170.82" y1="42.96" x2="172.72" y2="41.86"/><path class="cls-7" d="M162.59,5.2l7.08-3c1.72-1,4.11-.92,6.76.61,5.2,3,9.42,10.3,9.42,16.31,0,3.06-1.1,5.2-2.86,6.16l-5.81,4.21"/><path class="cls-7" d="M125.56,67.89V83.06c0,1-.92,2.26-3.29,3.62-6.38,3.68-15.55,1.3-15.55-2.59V68.92"/><path class="cls-7" d="M119.63,72.67v-7.6c3-.12,5.92,1,5.92,2.82,0,1-.92,2.26-3.28,3.62a13.16,13.16,0,0,1-2.64,1.16c-6,1.87-12.9-.38-12.9-3.75,0-1.32,1-2.8,3.62-4.29,19.57-11.29,59-20.51,60.41-31.58a3.47,3.47,0,0,0,.06-.64V47.58c0,8.9-24.9,16.56-45.26,25"/></g></g></g></g></svg>