<svg xmlns="http://www.w3.org/2000/svg" xmlns:xlink="http://www.w3.org/1999/xlink" viewBox="0 0 196.55 132.17"><defs><style>.cls-1,.cls-8{fill:none;}.cls-2{fill:#c2c7cc;}.cls-3{fill:url(#New_Pattern_Swatch_2);}.cls-4{fill:#fff;}.cls-5{fill:#5f646b;}.cls-6{fill:#969a9e;}.cls-7{fill:#373a3a;}.cls-8{stroke:#373a3a;stroke-linecap:round;stroke-linejoin:round;stroke-width:3px;}</style><pattern id="New_Pattern_Swatch_2" data-name="New Pattern Swatch 2" width="16" height="19" patternTransform="translate(-415.38 40.41) scale(0.4)" patternUnits="userSpaceOnUse" viewBox="0 0 16 19"><rect class="cls-1" width="16" height="19"/><polygon class="cls-2" points="16 22.18 10.5 19 16 15.82 21.5 19 16 22.18"/><polygon class="cls-2" points="16 22.18 10.5 19 16 15.82 21.5 19 16 22.18"/><polygon class="cls-2" points="0 22.18 -5.5 19 0 15.82 5.5 19 0 22.18"/><polygon class="cls-2" points="0 22.18 -5.5 19 0 15.82 5.5 19 0 22.18"/><polygon class="cls-2" points="16 22.18 10.5 19 16 15.82 21.5 19 16 22.18"/><polygon class="cls-2" points="16 3.18 10.5 0 16 -3.17 21.5 0 16 3.18"/><polygon class="cls-2" points="16 22.18 10.5 19 16 15.82 21.5 19 16 22.18"/><polygon class="cls-2" points="0 22.18 -5.5 19 0 15.82 5.5 19 0 22.18"/><polygon class="cls-2" points="8 12.68 2.5 9.5 8 6.33 13.5 9.5 8 12.68"/><polygon class="cls-2" points="16 3.18 10.5 0 16 -3.17 21.5 0 16 3.18"/><polygon class="cls-2" points="0 3.18 -5.5 0 0 -3.17 5.5 0 0 3.18"/><polygon class="cls-2" points="0 22.18 -5.5 19 0 15.82 5.5 19 0 22.18"/><polygon class="cls-2" points="0 3.18 -5.5 0 0 -3.17 5.5 0 0 3.18"/><polygon class="cls-2" points="16 3.18 10.5 0 16 -3.17 21.5 0 16 3.18"/><polygon class="cls-2" points="16 3.18 10.5 0 16 -3.17 21.5 0 16 3.18"/><polygon class="cls-2" points="0 3.18 -5.5 0 0 -3.17 5.5 0 0 3.18"/><polygon class="cls-2" points="0 3.18 -5.5 0 0 -3.17 5.5 0 0 3.18"/></pattern></defs><g id="Layer_2" data-name="Layer 2"><g id="icons"><g id="pencil"><path class="cls-3" d="M178.48,29.8c-5.87.74-11.19,4.22-16.35,6.91C156.16,39.83,53.23,94,45.3,97.92c.36-1.34.68-2.7.94-4.09.51-2.76-2.68-5-4.87-2.84-4.86,4.78-9.52,9.78-14.29,14.66-.68.5-1.35,1-2,1.65a9,9,0,0,0-1.8,2.2c-2.49,2.45-5,4.85-7.67,7.14-4.75,4.11-2.3,13,3.77,14.28C45,136.36,68.28,123,90.1,111.37c23.24-12.35,80.48-43.74,86-46.77,5.21-2.85,11.61-5.34,15.9-9.55C202.93,44.35,192.46,28,178.48,29.8Z"/><g id="pencil-2" data-name="pencil"><path class="cls-4" d="M148.67,17.94c-4.29-4.38-9.27-7-13.57-6.61a8.15,8.15,0,0,0-2.92.8l16.58-9.58a8,8,0,0,1,3.29-1c7.55-.68,17.23,7.89,21.59,19.14,3.64,9.42,2.43,17.72-2.51,20.57L154.18,51c3.79-2.18,5.39-7.6,4.27-14.27a33.12,33.12,0,0,0-1.77-6.31A37.35,37.35,0,0,0,148.67,17.94Z"/><path class="cls-5" d="M158.45,36.77c1.12,6.67-.48,12.09-4.27,14.27l-95.29,55a8.63,8.63,0,0,0,3.48-4.41,13.63,13.63,0,0,1,3.51-5.15c2-1.82,4.27-4.79,4.07-8.62Z"/><path class="cls-6" d="M158.45,36.77,70,87.87c-.34-6.28-7.52-1.82-10.67-6.5a.3.3,0,0,1-.06-.11c-.15-.27-.29-.54-.45-.81,0,0,0,0,0,0C56,74.33,65.92,74.06,60.19,69l88.48-51.1a37.35,37.35,0,0,1,8,12.52A33.12,33.12,0,0,1,158.45,36.77Z"/><path class="cls-6" d="M148.67,17.94,60.19,69C55,64.51,49.39,68,44.66,67.2a12.89,12.89,0,0,0-1.51-.45h0a10.47,10.47,0,0,0-3.49-.3,7.79,7.79,0,0,0-3.2,1l95.74-55.28a8.15,8.15,0,0,1,2.92-.8C139.4,11,144.38,13.56,148.67,17.94Z"/><path class="cls-4" d="M70,87.87c.2,3.83-2.09,6.8-4.07,8.62a13.63,13.63,0,0,0-3.51,5.15,8.58,8.58,0,0,1-3.48,4.41l-.16.1a7.88,7.88,0,0,1-3.06,1l-31.26,3.6c2-1.18,2.48-4.58,1-8.43-1.79-4.61-5.76-8.13-8.85-7.84a3.08,3.08,0,0,0-1.3.38L34,69.58a7.68,7.68,0,0,1,2.36-2.12.25.25,0,0,1,.08,0,8.2,8.2,0,0,1,3.2-1,10.47,10.47,0,0,1,3.49.3h0a6.88,6.88,0,0,0,1.51.45C49.39,68,55,64.51,60.19,69c5.73,5-4.21,5.29-1.43,11.38,0,0,0,0,0,0a5.18,5.18,0,0,0,.45.81.3.3,0,0,0,.06.11C62.43,86.05,69.61,81.59,70,87.87Z"/><path class="cls-4" d="M58.77,80.45c.16.27.3.54.45.81A5.18,5.18,0,0,1,58.77,80.45Z"/><path class="cls-4" d="M43.15,66.75a12.89,12.89,0,0,1,1.51.45A6.88,6.88,0,0,1,43.15,66.75Z"/><path class="cls-7" d="M25.4,102.31c1.49,3.85,1,7.25-1,8.43L1.5,113.38,15.25,94.85a3.08,3.08,0,0,1,1.3-.38C19.64,94.18,23.61,97.7,25.4,102.31Z"/><path class="cls-8" d="M15.25,94.85a3.08,3.08,0,0,1,1.3-.38c3.09-.29,7.06,3.23,8.85,7.84,1.49,3.85,1,7.25-1,8.43"/><path class="cls-8" d="M132.18,12.13a8.15,8.15,0,0,1,2.92-.8c4.3-.38,9.28,2.23,13.57,6.61a37.35,37.35,0,0,1,8,12.52,33.12,33.12,0,0,1,1.77,6.31c1.12,6.67-.48,12.09-4.27,14.27"/><path class="cls-8" d="M36.44,67.41,148.76,2.55a8,8,0,0,1,3.29-1c7.55-.68,17.23,7.89,21.59,19.14,3.64,9.42,2.43,17.72-2.51,20.57L58.89,106.05"/><path class="cls-8" d="M59.22,81.26c-.15-.27-.29-.54-.45-.81"/><path class="cls-8" d="M43.15,66.75a12.89,12.89,0,0,1,1.51.45"/><path class="cls-8" d="M43.13,66.74h0a6.88,6.88,0,0,0,1.51.45C49.39,68,55,64.51,60.19,69c5.73,5-4.21,5.29-1.43,11.38,0,0,0,0,0,0a5.18,5.18,0,0,0,.45.81.3.3,0,0,0,.06.11c3.15,4.68,10.33.22,10.67,6.5.2,3.83-2.09,6.8-4.07,8.62a13.63,13.63,0,0,0-3.51,5.15,8.58,8.58,0,0,1-3.48,4.41l-.16.1a7.88,7.88,0,0,1-3.06,1L1.5,113.38,34,69.58a7.68,7.68,0,0,1,2.36-2.12.25.25,0,0,1,.08,0,8.2,8.2,0,0,1,3.2-1A10.47,10.47,0,0,1,43.13,66.74Z"/><polyline class="cls-8" points="60.19 69.04 148.67 17.94 148.69 17.94"/><line class="cls-8" x1="69.95" y1="87.87" x2="158.45" y2="36.77"/></g></g></g></g></svg>