<svg xmlns="http://www.w3.org/2000/svg" xmlns:xlink="http://www.w3.org/1999/xlink" viewBox="0 0 161.78 176.81"><defs><style>.cls-1,.cls-7{fill:none;}.cls-2{fill:#c2c7cc;}.cls-3{fill:url(#New_Pattern_Swatch_2);}.cls-4{fill:#969a9e;}.cls-5{fill:#fff;}.cls-6{fill:#373a3a;}.cls-7{stroke:#373a3a;stroke-linecap:round;stroke-linejoin:round;stroke-width:3px;}</style><pattern id="New_Pattern_Swatch_2" data-name="New Pattern Swatch 2" width="16" height="19" patternTransform="translate(-415.38 40.41) scale(0.4)" patternUnits="userSpaceOnUse" viewBox="0 0 16 19"><rect class="cls-1" width="16" height="19"/><polygon class="cls-2" points="16 22.18 10.5 19 16 15.82 21.5 19 16 22.18"/><polygon class="cls-2" points="16 22.18 10.5 19 16 15.82 21.5 19 16 22.18"/><polygon class="cls-2" points="0 22.18 -5.5 19 0 15.82 5.5 19 0 22.18"/><polygon class="cls-2" points="0 22.18 -5.5 19 0 15.82 5.5 19 0 22.18"/><polygon class="cls-2" points="16 22.18 10.5 19 16 15.82 21.5 19 16 22.18"/><polygon class="cls-2" points="16 3.18 10.5 0 16 -3.17 21.5 0 16 3.18"/><polygon class="cls-2" points="16 22.18 10.5 19 16 15.82 21.5 19 16 22.18"/><polygon class="cls-2" points="0 22.18 -5.5 19 0 15.82 5.5 19 0 22.18"/><polygon class="cls-2" points="8 12.68 2.5 9.5 8 6.33 13.5 9.5 8 12.68"/><polygon class="cls-2" points="16 3.18 10.5 0 16 -3.17 21.5 0 16 3.18"/><polygon class="cls-2" points="0 3.18 -5.5 0 0 -3.17 5.5 0 0 3.18"/><polygon class="cls-2" points="0 22.18 -5.5 19 0 15.82 5.5 19 0 22.18"/><polygon class="cls-2" points="0 3.18 -5.5 0 0 -3.17 5.5 0 0 3.18"/><polygon class="cls-2" points="16 3.18 10.5 0 16 -3.17 21.5 0 16 3.18"/><polygon class="cls-2" points="16 3.18 10.5 0 16 -3.17 21.5 0 16 3.18"/><polygon class="cls-2" points="0 3.18 -5.5 0 0 -3.17 5.5 0 0 3.18"/><polygon class="cls-2" points="0 3.18 -5.5 0 0 -3.17 5.5 0 0 3.18"/></pattern></defs><g id="Layer_2" data-name="Layer 2"><g id="icons"><g id="puzzle"><path class="cls-3" d="M157.43,176.45a33.62,33.62,0,0,1-12.24-.5A41.36,41.36,0,0,1,133,171.63a13.18,13.18,0,0,1-4.05-3.31,4.89,4.89,0,0,1-.55-1c-.79-2-2.85-4.08-6.35-6.1l-5.12-3L80.68,163.9,48.17,145.14l2.24-.35a46.58,46.58,0,0,1,13.13.35,31.61,31.61,0,0,0,9.15.19c4.25-.66,5.83-2.5,4.68-4.72-.71-1.35-2.39-2.83-5.11-4.3-6.33-3.41-16.25-5.44-22.6-4.63-3,.39-4.79,1.32-5.33,2.56-.73,1.62-3.18,2.74-6.69,3.28l-2.09.33-31.17-18L84.7,107.43l31.19,18,4.49-.7c3.51-.54,6-1.66,6.69-3.28a2.92,2.92,0,0,1,1-1.13,9.61,9.61,0,0,1,4.38-1.43,36.68,36.68,0,0,1,11.44.76A43,43,0,0,1,155,123.51c7.16,3.87,7.26,8,.42,9a31.54,31.54,0,0,1-9.14-.19,46.58,46.58,0,0,0-13.13-.35l-4.64.72L161,151.47l-31.17,4.82,5,2.88a52.3,52.3,0,0,0,12.73,5,38,38,0,0,1,9.92,4C163.24,171.69,163.22,175.32,157.43,176.45Z"/><g id="puzzle-2" data-name="puzzle"><path class="cls-4" d="M127.39,124.47c.19,4.16-1.16,7.07-3.43,8.39l-16.07,9.26c2.17-1.34,3.45-4.21,3.27-8.28-.33-7.11-5.28-15.59-11.29-19.32-2.83-1.77-5.44-2.25-7.52-1.63-2.75.81-6.15,0-9.59-2l-5-2.88V72.76L94,63.39V98.68l5,2.87c3.42,2,6.83,2.78,9.56,2,2.08-.62,4.71-.14,7.53,1.62C122.1,108.86,127.06,117.37,127.39,124.47Z"/><path class="cls-5" d="M111.16,133.84c.18,4.07-1.1,6.94-3.27,8.28s-5.15,1.2-8.47-.73A21,21,0,0,1,94,136.77c-.51-.59-1-1.2-1.45-1.84a32.56,32.56,0,0,0-9.67-9.35l-5.11-3V163.7L45.29,145V142.4c0-4,1.22-7.18,3.26-9.29,1.38-1.42,2.18-3.67,2.18-6.62,0-4.81-2.17-10.32-5.45-14.62a21.58,21.58,0,0,0-7-6.11c-6-3.08-10.87-.18-11.11,6.62a22.4,22.4,0,0,0,2.37,10.07,30.6,30.6,0,0,1,3.08,12.83v2.37l-31.17-18V28.72l31.17,18V41.62a30.65,30.65,0,0,0-3.08-12.84,26.07,26.07,0,0,1-1.33-3.36,20.07,20.07,0,0,1-1-6.71c.12-3.43,1.43-5.87,3.46-7s4.69-1.08,7.65.44c6.79,3.5,12.4,13,12.4,20.73,0,2.94-.8,5.19-2.18,6.62-2,2.1-3.26,5.26-3.26,9.29V54L77.8,72.76V108l5,2.88c3.44,2,6.84,2.78,9.59,2,2.08-.62,4.69-.14,7.52,1.63C105.88,118.25,110.83,126.73,111.16,133.84Z"/><path class="cls-4" d="M94,136.77v17.56L77.8,163.7V122.63l5.11,3a32.56,32.56,0,0,1,9.67,9.35C93,135.57,93.52,136.18,94,136.77Z"/><polygon class="cls-4" points="94.03 63.39 77.8 72.76 45.29 54 61.52 44.62 94.03 63.39"/><path class="cls-4" d="M67,23.46c0,2.94-.82,5.2-2.2,6.62-2,2.1-3.26,5.26-3.26,9.29v5.25L45.29,54V48.74c0-4,1.22-7.19,3.26-9.29,1.38-1.43,2.18-3.68,2.18-6.62,0-7.75-5.61-17.23-12.4-20.73-3-1.52-5.65-1.57-7.65-.44L46.91,2.29c2-1.15,4.69-1.08,7.65.44C61.35,6.23,67,15.7,67,23.46Z"/><path class="cls-6" d="M48.9,125.91v2.36l-16.23,9.38v-2.37a30.6,30.6,0,0,0-3.08-12.83,22.4,22.4,0,0,1-2.37-10.07c.24-6.8,5.12-9.7,11.11-6.62a21.58,21.58,0,0,1,7,6.11c.17.4.35.81.54,1.2A30.23,30.23,0,0,1,48.9,125.91Z"/><path class="cls-2" d="M32.67,41.62V46.7L1.5,28.72l16.23-9.38,10.53,6.08a26.07,26.07,0,0,0,1.33,3.36A30.65,30.65,0,0,1,32.67,41.62Z"/><path class="cls-7" d="M107.89,142.12c2.16-1.35,3.45-4.21,3.27-8.28-.33-7.11-5.28-15.59-11.29-19.32-2.83-1.77-5.44-2.25-7.52-1.63-2.75.81-6.15,0-9.59-2l-5-2.88V72.76L45.29,54V48.74c0-4,1.22-7.19,3.26-9.29,1.38-1.43,2.18-3.68,2.18-6.62,0-7.75-5.61-17.23-12.4-20.73-3-1.52-5.65-1.58-7.65-.44s-3.34,3.62-3.46,7.05a20.33,20.33,0,0,0,1,6.71,26.07,26.07,0,0,0,1.33,3.36,30.65,30.65,0,0,1,3.08,12.84V46.7L1.5,28.72v90.93l31.17,18v-2.37a30.6,30.6,0,0,0-3.08-12.83,22.4,22.4,0,0,1-2.37-10.07c.24-6.8,5.12-9.7,11.11-6.62a21.46,21.46,0,0,1,7,6.11c3.28,4.3,5.45,9.81,5.45,14.62,0,3-.8,5.2-2.18,6.62-2,2.11-3.26,5.26-3.26,9.29V145L77.8,163.7V122.63l5.11,3a32.56,32.56,0,0,1,9.67,9.35c.46.64.94,1.25,1.45,1.84a21,21,0,0,0,5.39,4.62C102.74,143.32,105.74,143.45,107.89,142.12Z"/><path class="cls-7" d="M30.68,11.66,46.91,2.29c2-1.15,4.69-1.08,7.65.44C61.35,6.23,67,15.7,67,23.46c0,2.94-.82,5.2-2.2,6.62-2,2.1-3.26,5.26-3.26,9.29v5.25L94,63.39V98.68l5,2.87c3.42,2,6.83,2.78,9.56,2,2.08-.62,4.71-.14,7.53,1.62,6,3.72,11,12.23,11.29,19.33.19,4.16-1.16,7.07-3.43,8.39l-16.23,9.36"/><line class="cls-7" x1="77.8" y1="72.76" x2="94.03" y2="63.39"/><polyline class="cls-7" points="1.5 28.72 17.73 19.34 28.26 25.42"/><path class="cls-7" d="M32.67,137.65l16.23-9.38v-2.36a30.23,30.23,0,0,0-3.08-12.84c-.19-.39-.37-.8-.54-1.2"/><polyline class="cls-7" points="77.8 163.7 94.03 154.33 94.03 136.77"/><line class="cls-7" x1="45.29" y1="54" x2="61.52" y2="44.62"/></g></g></g></g></svg>