<svg xmlns="http://www.w3.org/2000/svg" xmlns:xlink="http://www.w3.org/1999/xlink" viewBox="0 0 149.83 162.12"><defs><style>.cls-1,.cls-7{fill:none;}.cls-2{fill:#c2c7cc;}.cls-3{fill:url(#New_Pattern_Swatch_2);}.cls-4{fill:#fff;}.cls-5{fill:#5f646b;}.cls-6{fill:#969a9e;}.cls-7{stroke:#373a3a;stroke-linecap:round;stroke-linejoin:round;stroke-width:3px;}</style><pattern id="New_Pattern_Swatch_2" data-name="New Pattern Swatch 2" width="16" height="19" patternTransform="translate(-415.38 40.41) scale(0.4)" patternUnits="userSpaceOnUse" viewBox="0 0 16 19"><rect class="cls-1" width="16" height="19"/><polygon class="cls-2" points="16 22.18 10.5 19 16 15.82 21.5 19 16 22.18"/><polygon class="cls-2" points="16 22.18 10.5 19 16 15.82 21.5 19 16 22.18"/><polygon class="cls-2" points="0 22.18 -5.5 19 0 15.82 5.5 19 0 22.18"/><polygon class="cls-2" points="0 22.18 -5.5 19 0 15.82 5.5 19 0 22.18"/><polygon class="cls-2" points="16 22.18 10.5 19 16 15.82 21.5 19 16 22.18"/><polygon class="cls-2" points="16 3.18 10.5 0 16 -3.17 21.5 0 16 3.18"/><polygon class="cls-2" points="16 22.18 10.5 19 16 15.82 21.5 19 16 22.18"/><polygon class="cls-2" points="0 22.18 -5.5 19 0 15.82 5.5 19 0 22.18"/><polygon class="cls-2" points="8 12.68 2.5 9.5 8 6.33 13.5 9.5 8 12.68"/><polygon class="cls-2" points="16 3.18 10.5 0 16 -3.17 21.5 0 16 3.18"/><polygon class="cls-2" points="0 3.18 -5.5 0 0 -3.17 5.5 0 0 3.18"/><polygon class="cls-2" points="0 22.18 -5.5 19 0 15.82 5.5 19 0 22.18"/><polygon class="cls-2" points="0 3.18 -5.5 0 0 -3.17 5.5 0 0 3.18"/><polygon class="cls-2" points="16 3.18 10.5 0 16 -3.17 21.5 0 16 3.18"/><polygon class="cls-2" points="16 3.18 10.5 0 16 -3.17 21.5 0 16 3.18"/><polygon class="cls-2" points="0 3.18 -5.5 0 0 -3.17 5.5 0 0 3.18"/><polygon class="cls-2" points="0 3.18 -5.5 0 0 -3.17 5.5 0 0 3.18"/></pattern></defs><g id="Layer_2" data-name="Layer 2"><g id="icons"><g id="ruler_angle" data-name="ruler angle"><path class="cls-3" d="M10.4,158.3,140.33,80.77l9.5,81.35C112.51,160.63,58.49,159.62,10.4,158.3Zm113.86-16.55V109.22L73,140.14Z"/><g id="ruler_angle-2" data-name="ruler angle"><path class="cls-4" d="M10.4,90.24V6.64L141.74,82.48,10.4,158.3Zm21.21,31.33,58.92-34-58.92-34Z"/><polygon class="cls-5" points="90.53 87.55 31.61 121.57 31.61 111.29 81.63 82.41 90.53 87.55"/><polygon class="cls-4" points="31.61 53.53 81.63 82.41 31.61 111.29 31.61 53.53"/><polygon class="cls-6" points="10.4 149.13 10.4 158.3 1.5 153.18 1.5 1.5 10.4 6.64 10.4 149.13"/><polyline class="cls-7" points="10.4 6.64 1.5 1.5 1.5 153.18 10.4 158.3"/><polygon class="cls-7" points="10.4 158.3 141.74 82.48 10.4 6.64 10.4 158.3"/><line class="cls-7" x1="81.62" y1="82.41" x2="31.61" y2="111.29"/><polygon class="cls-7" points="81.63 82.41 90.53 87.55 31.61 121.57 31.61 53.53 81.63 82.41"/><line class="cls-7" x1="15.81" y1="137.02" x2="10.4" y2="140.14"/><line class="cls-7" x1="15.81" y1="124.54" x2="10.4" y2="127.67"/><line class="cls-7" x1="15.81" y1="112.06" x2="10.4" y2="115.2"/><line class="cls-7" x1="15.81" y1="99.59" x2="10.4" y2="102.71"/><line class="cls-7" x1="15.81" y1="87.11" x2="10.4" y2="90.24"/><line class="cls-7" x1="15.81" y1="74.63" x2="10.4" y2="77.76"/><line class="cls-7" x1="15.81" y1="62.16" x2="10.4" y2="65.29"/><line class="cls-7" x1="15.81" y1="49.69" x2="10.4" y2="52.81"/><line class="cls-7" x1="15.81" y1="37.2" x2="10.4" y2="40.33"/><line class="cls-7" x1="15.81" y1="24.72" x2="10.4" y2="27.86"/></g></g></g></g></svg>