<svg xmlns="http://www.w3.org/2000/svg" xmlns:xlink="http://www.w3.org/1999/xlink" viewBox="0 0 204.12 127.03"><defs><style>.cls-1,.cls-6{fill:none;}.cls-2{fill:#c2c7cc;}.cls-3{fill:url(#New_Pattern_Swatch_2);}.cls-4{fill:#969a9e;}.cls-5{fill:#fff;}.cls-6{stroke:#373a3a;stroke-linecap:round;stroke-linejoin:round;stroke-width:3px;}</style><pattern id="New_Pattern_Swatch_2" data-name="New Pattern Swatch 2" width="16" height="19" patternTransform="translate(-415.38 40.41) scale(0.4)" patternUnits="userSpaceOnUse" viewBox="0 0 16 19"><rect class="cls-1" width="16" height="19"/><polygon class="cls-2" points="16 22.18 10.5 19 16 15.82 21.5 19 16 22.18"/><polygon class="cls-2" points="16 22.18 10.5 19 16 15.82 21.5 19 16 22.18"/><polygon class="cls-2" points="0 22.18 -5.5 19 0 15.82 5.5 19 0 22.18"/><polygon class="cls-2" points="0 22.18 -5.5 19 0 15.82 5.5 19 0 22.18"/><polygon class="cls-2" points="16 22.18 10.5 19 16 15.82 21.5 19 16 22.18"/><polygon class="cls-2" points="16 3.18 10.5 0 16 -3.17 21.5 0 16 3.18"/><polygon class="cls-2" points="16 22.18 10.5 19 16 15.82 21.5 19 16 22.18"/><polygon class="cls-2" points="0 22.18 -5.5 19 0 15.82 5.5 19 0 22.18"/><polygon class="cls-2" points="8 12.68 2.5 9.5 8 6.33 13.5 9.5 8 12.68"/><polygon class="cls-2" points="16 3.18 10.5 0 16 -3.17 21.5 0 16 3.18"/><polygon class="cls-2" points="0 3.18 -5.5 0 0 -3.17 5.5 0 0 3.18"/><polygon class="cls-2" points="0 22.18 -5.5 19 0 15.82 5.5 19 0 22.18"/><polygon class="cls-2" points="0 3.18 -5.5 0 0 -3.17 5.5 0 0 3.18"/><polygon class="cls-2" points="16 3.18 10.5 0 16 -3.17 21.5 0 16 3.18"/><polygon class="cls-2" points="16 3.18 10.5 0 16 -3.17 21.5 0 16 3.18"/><polygon class="cls-2" points="0 3.18 -5.5 0 0 -3.17 5.5 0 0 3.18"/><polygon class="cls-2" points="0 3.18 -5.5 0 0 -3.17 5.5 0 0 3.18"/></pattern></defs><g id="Layer_2" data-name="Layer 2"><g id="icons"><g id="ruler"><path class="cls-3" d="M201.24,30.39c-6.46-7.06-17-3.22-17.78,6a5.83,5.83,0,0,0,.32,2.46c-.46.29-.9.57-1.34.81-3.19,1.76-90.79,50.48-103.07,57.65-6.28,3.67-12.49,7.49-18.67,11.33-2.83,1.77-5.48,3.75-7.1,6.38-2.15.11-4.3.27-6.45.59-5,.75-4.34,8.28,0,9.49a89.26,89.26,0,0,0,9.36,1.77c3.06.51,6.87-.77,7.55-4.29,0,0,2.7-1.46,3.65-1.95,1.77-.91,13-6.63,16.81-8.61,7.92-4.11,15.73-8.49,23.58-12.75,15.12-8.2,60.17-33.39,67.7-37.55,7-3.9,14.74-7.34,21.37-11.91C203.33,45.6,207,36.69,201.24,30.39Z"/><g id="ruler-2" data-name="ruler"><polygon class="cls-4" points="193.45 25.56 193.45 35.88 43.18 122.64 43.18 112.32 193.45 25.56"/><path class="cls-5" d="M27.53,73.23l10.91-6.3,10.91-6.29L93,35.43,151.77,1.5l41.68,24.06L43.18,112.32,1.5,88.26ZM157.3,27.65c2.29-1.33,2.29-3.47,0-4.79a9.13,9.13,0,0,0-8.3,0c-2.29,1.32-2.29,3.46,0,4.79A9.19,9.19,0,0,0,157.3,27.65Z"/><path class="cls-4" d="M157.3,22.86c2.29,1.32,2.29,3.46,0,4.79a9.19,9.19,0,0,1-8.3,0c-2.29-1.33-2.29-3.47,0-4.79A9.13,9.13,0,0,1,157.3,22.86Z"/><polygon class="cls-4" points="43.18 112.32 43.18 122.64 1.5 98.57 1.5 88.26 43.18 112.32"/><path class="cls-6" d="M114.84,22.83,151.77,1.5l41.68,24.06L43.18,112.32,1.5,88.26l26-15,10.91-6.3,10.91-6.29L93,35.43Z"/><path class="cls-6" d="M157.3,22.86a9.13,9.13,0,0,0-8.3,0c-2.29,1.32-2.29,3.46,0,4.79a9.19,9.19,0,0,0,8.3,0C159.59,26.32,159.59,24.18,157.3,22.86Z"/><line class="cls-6" x1="37.88" y1="79.21" x2="27.53" y2="73.23"/><line class="cls-6" x1="59.71" y1="66.62" x2="49.35" y2="60.64"/><line class="cls-6" x1="81.53" y1="54.01" x2="71.18" y2="48.03"/><line class="cls-6" x1="103.36" y1="41.4" x2="93" y2="35.43"/><line class="cls-6" x1="125.19" y1="28.81" x2="114.84" y2="22.83"/><polyline class="cls-6" points="1.5 88.26 1.5 98.57 43.18 122.64 193.45 35.88 193.45 25.56"/><line class="cls-6" x1="43.18" y1="112.32" x2="43.18" y2="122.64"/></g></g></g></g></svg>