<svg xmlns="http://www.w3.org/2000/svg" xmlns:xlink="http://www.w3.org/1999/xlink" viewBox="0 0 221.22 168.11"><defs><style>.cls-1,.cls-8{fill:none;}.cls-2{fill:#c2c7cc;}.cls-3{fill:url(#New_Pattern_Swatch_2);}.cls-4{fill:#5f646b;}.cls-5{fill:#fff;}.cls-6{fill:#dae0e5;}.cls-7{fill:#969a9e;}.cls-8{stroke:#373a3a;stroke-linecap:round;stroke-linejoin:round;stroke-width:3px;}</style><pattern id="New_Pattern_Swatch_2" data-name="New Pattern Swatch 2" width="16" height="19" patternTransform="translate(-415.38 40.41) scale(0.4)" patternUnits="userSpaceOnUse" viewBox="0 0 16 19"><rect class="cls-1" width="16" height="19"/><polygon class="cls-2" points="16 22.18 10.5 19 16 15.82 21.5 19 16 22.18"/><polygon class="cls-2" points="16 22.18 10.5 19 16 15.82 21.5 19 16 22.18"/><polygon class="cls-2" points="0 22.18 -5.5 19 0 15.82 5.5 19 0 22.18"/><polygon class="cls-2" points="0 22.18 -5.5 19 0 15.82 5.5 19 0 22.18"/><polygon class="cls-2" points="16 22.18 10.5 19 16 15.82 21.5 19 16 22.18"/><polygon class="cls-2" points="16 3.18 10.5 0 16 -3.17 21.5 0 16 3.18"/><polygon class="cls-2" points="16 22.18 10.5 19 16 15.82 21.5 19 16 22.18"/><polygon class="cls-2" points="0 22.18 -5.5 19 0 15.82 5.5 19 0 22.18"/><polygon class="cls-2" points="8 12.68 2.5 9.5 8 6.33 13.5 9.5 8 12.68"/><polygon class="cls-2" points="16 3.18 10.5 0 16 -3.17 21.5 0 16 3.18"/><polygon class="cls-2" points="0 3.18 -5.5 0 0 -3.17 5.5 0 0 3.18"/><polygon class="cls-2" points="0 22.18 -5.5 19 0 15.82 5.5 19 0 22.18"/><polygon class="cls-2" points="0 3.18 -5.5 0 0 -3.17 5.5 0 0 3.18"/><polygon class="cls-2" points="16 3.18 10.5 0 16 -3.17 21.5 0 16 3.18"/><polygon class="cls-2" points="16 3.18 10.5 0 16 -3.17 21.5 0 16 3.18"/><polygon class="cls-2" points="0 3.18 -5.5 0 0 -3.17 5.5 0 0 3.18"/><polygon class="cls-2" points="0 3.18 -5.5 0 0 -3.17 5.5 0 0 3.18"/></pattern></defs><g id="Layer_2" data-name="Layer 2"><g id="icons"><g id="stairs_to_success" data-name="stairs to success"><polygon class="cls-3" points="146.69 98.27 221.22 119.83 165.76 152.49 154.06 151.41 138.14 160.6 126.08 158.92 110.18 168.11 91.06 165.15 122.9 146.78 146.69 98.27"/><g id="stairs_to_success-2" data-name="stairs to success"><polygon class="cls-4" points="162.13 68.32 162.13 123.45 91.06 164.48 91.06 146.11 106.96 136.92 106.96 118.55 122.88 109.36 122.88 90.99 162.13 68.32"/><polygon class="cls-5" points="162.13 68.32 122.88 90.99 70.64 60.84 109.89 38.17 162.13 68.32"/><polygon class="cls-6" points="122.88 90.99 122.88 109.36 70.64 79.21 70.64 60.84 122.88 90.99"/><polygon class="cls-5" points="122.88 109.36 106.96 118.55 54.72 88.38 70.64 79.21 122.88 109.36"/><polygon class="cls-6" points="106.96 118.55 106.96 136.92 54.72 106.77 54.72 88.38 106.96 118.55"/><polygon class="cls-5" points="106.96 136.92 91.06 146.11 38.82 115.95 54.72 106.77 106.96 136.92"/><polygon class="cls-7" points="102.74 1.5 102.74 42.29 70.64 60.84 70.64 79.21 54.72 88.38 54.72 106.77 38.82 115.95 38.82 126.73 1.5 148.28 63.16 41.48 48.32 32.92 102.74 1.5"/><polygon class="cls-6" points="91.06 146.11 91.06 164.48 38.82 134.33 38.82 115.95 91.06 146.11"/><polygon class="cls-8" points="106.96 136.92 106.96 118.55 122.88 109.36 122.88 90.99 162.13 68.32 162.13 123.45 91.06 164.48 91.06 146.11 106.96 136.92"/><polyline class="cls-8" points="162.13 68.32 109.89 38.17 70.64 60.84 70.64 79.21 54.72 88.38 54.72 106.77 38.82 115.95 38.82 134.33 91.06 164.48"/><line class="cls-8" x1="122.88" y1="90.99" x2="70.64" y2="60.84"/><line class="cls-8" x1="106.96" y1="118.55" x2="54.72" y2="88.38"/><line class="cls-8" x1="91.06" y1="146.11" x2="38.82" y2="115.95"/><line class="cls-8" x1="106.96" y1="136.92" x2="54.72" y2="106.77"/><line class="cls-8" x1="122.88" y1="109.36" x2="70.64" y2="79.21"/><polyline class="cls-8" points="38.82 126.73 1.5 148.28 63.16 41.48 48.32 32.92 102.74 1.5 102.74 42.29"/></g></g></g></g></svg>