<svg xmlns="http://www.w3.org/2000/svg" xmlns:xlink="http://www.w3.org/1999/xlink" viewBox="0 0 225.35 133.39"><defs><style>.cls-1,.cls-9{fill:none;}.cls-2{fill:#c2c7cc;}.cls-3{fill:url(#New_Pattern_Swatch_2);}.cls-4{fill:#5f646b;}.cls-5{fill:#969a9e;}.cls-6{fill:#fff;}.cls-7{fill:#373a3a;}.cls-8{fill:#dae0e5;}.cls-9{stroke:#373a3a;stroke-linecap:round;stroke-linejoin:round;stroke-width:3px;}</style><pattern id="New_Pattern_Swatch_2" data-name="New Pattern Swatch 2" width="16" height="19" patternTransform="translate(-415.38 40.41) scale(0.4)" patternUnits="userSpaceOnUse" viewBox="0 0 16 19"><rect class="cls-1" width="16" height="19"/><polygon class="cls-2" points="16 22.18 10.5 19 16 15.82 21.5 19 16 22.18"/><polygon class="cls-2" points="16 22.18 10.5 19 16 15.82 21.5 19 16 22.18"/><polygon class="cls-2" points="0 22.18 -5.5 19 0 15.82 5.5 19 0 22.18"/><polygon class="cls-2" points="0 22.18 -5.5 19 0 15.82 5.5 19 0 22.18"/><polygon class="cls-2" points="16 22.18 10.5 19 16 15.82 21.5 19 16 22.18"/><polygon class="cls-2" points="16 3.18 10.5 0 16 -3.17 21.5 0 16 3.18"/><polygon class="cls-2" points="16 22.18 10.5 19 16 15.82 21.5 19 16 22.18"/><polygon class="cls-2" points="0 22.18 -5.5 19 0 15.82 5.5 19 0 22.18"/><polygon class="cls-2" points="8 12.68 2.5 9.5 8 6.33 13.5 9.5 8 12.68"/><polygon class="cls-2" points="16 3.18 10.5 0 16 -3.17 21.5 0 16 3.18"/><polygon class="cls-2" points="0 3.18 -5.5 0 0 -3.17 5.5 0 0 3.18"/><polygon class="cls-2" points="0 22.18 -5.5 19 0 15.82 5.5 19 0 22.18"/><polygon class="cls-2" points="0 3.18 -5.5 0 0 -3.17 5.5 0 0 3.18"/><polygon class="cls-2" points="16 3.18 10.5 0 16 -3.17 21.5 0 16 3.18"/><polygon class="cls-2" points="16 3.18 10.5 0 16 -3.17 21.5 0 16 3.18"/><polygon class="cls-2" points="0 3.18 -5.5 0 0 -3.17 5.5 0 0 3.18"/><polygon class="cls-2" points="0 3.18 -5.5 0 0 -3.17 5.5 0 0 3.18"/></pattern></defs><g id="Layer_2" data-name="Layer 2"><g id="icons"><g id="testbook"><path class="cls-3" d="M221.09,59.73A51.91,51.91,0,0,0,198.46,52c-8.66-1-12.2,12.92-4.48,16.53a17.26,17.26,0,0,1,1.88,1q-6.92,4.14-13.81,8.31c-4.91,3-10,5.74-14.76,9a21.25,21.25,0,0,0-6.19,6.23c-.66,1-.95,2.13-2,2.8-.64.39-3.11.55-2.54.65-3.7-.66-5.08-1.44-8.82.5-5.3,2.74-10.4,6-15.57,8.92s-10.27,6.17-15.28,9.44c-2.5,1.63-5.13,3.15-7.52,4.92s-3.7,3.84-5.31,6.37a3.73,3.73,0,0,0,3.19,5.57c8.88-.11,16.74-5.14,24.63-9,7.24-3.55,14.32-7.44,21.4-11.3a18.45,18.45,0,0,0,13.31-1.11,18.68,18.68,0,0,0,7.07-6,15.57,15.57,0,0,1,6.15-5.68q20.69-12.08,41.3-24.29C227,71.42,226.58,63.27,221.09,59.73Z"/><g id="testbook-2" data-name="testbook"><path class="cls-4" d="M214.39,63.9,166.18,91.73c-2,5.59-6,10.93-10.67,13.6s-8.66,2-10.68-1.27L96.61,131.89,1.5,77l12.34-7.13-1.22,5.66,86.54,50S128.07,96,148.45,94.24c2.93-.27,6.27-2.2,9.21-5.32C178,67.18,206.94,63.24,206.94,63.24l-1.26-4.38Z"/><path class="cls-5" d="M205.68,58.86l1.26,4.38S178,67.18,157.66,88.92c-2.94,3.12-6.28,5-9.21,5.32C128.07,96,99.16,125.47,99.16,125.47l3.41-15.72c8.24-7.74,29.74-26.51,45.88-27.93a11.09,11.09,0,0,0,4.6-1.58,20.42,20.42,0,0,0,4.61-3.73c16.13-17.22,37.64-23.28,45.88-25.05Z"/><path class="cls-6" d="M139,34.47a24.72,24.72,0,0,0-5.9,2.39c-7.69,4.43-8.11,11.37-1,15.5s19.18,3.88,26.85-.55,8.12-11.4,1-15.51a18.23,18.23,0,0,0-2.35-1.13h0C152.18,33,145.09,32.8,139,34.47Zm-22-33,86.55,50c-8.24,1.77-29.75,7.83-45.88,25.05a20.42,20.42,0,0,1-4.61,3.73l-86.54-50a20.64,20.64,0,0,0,4.61-3.73C87.26,9.32,108.75,3.27,117,1.5Z"/><path class="cls-6" d="M159.9,36.3c7.16,4.11,6.72,11.07-1,15.51s-19.7,4.68-26.85.55-6.72-11.07,1-15.5a24.72,24.72,0,0,1,5.9-2.39l3.5,4.91h0a11.55,11.55,0,0,0-3,1.2c-3.85,2.22-4.06,5.7-.48,7.77s9.61,1.94,13.46-.29,4.08-5.7.48-7.77a8.55,8.55,0,0,0-1.18-.56h0l5.75-4.56h0A18.23,18.23,0,0,1,159.9,36.3Z"/><path class="cls-7" d="M157.54,35.17l-5.75,4.56h0a15.39,15.39,0,0,0-9.33-.35h0L139,34.47C145.09,32.8,152.18,33,157.54,35.17Z"/><path class="cls-6" d="M153,40.3c3.6,2.07,3.37,5.56-.48,7.77s-9.88,2.36-13.46.29-3.37-5.55.48-7.77a11.55,11.55,0,0,1,3-1.2,15.54,15.54,0,0,1,9.33.35A8.55,8.55,0,0,1,153,40.3Z"/><path class="cls-6" d="M66.51,30.28l86.54,50a11.09,11.09,0,0,1-4.6,1.58c-16.14,1.42-37.64,20.19-45.88,27.93L16,59.79C24.27,52,45.77,33.28,61.91,31.86A11.14,11.14,0,0,0,66.51,30.28Z"/><polygon class="cls-8" points="102.57 109.75 99.16 125.47 12.62 75.51 13.84 69.85 13.85 69.85 16.03 59.79 102.57 109.75"/><path class="cls-9" d="M205.68,58.86l8.71,5L166.18,91.73c-2,5.59-6,10.93-10.67,13.6s-8.66,2-10.68-1.27L96.61,131.89,1.5,77l12.34-7.13"/><line class="cls-9" x1="102.57" y1="109.75" x2="16.03" y2="59.79"/><path class="cls-9" d="M203.54,51.46c-8.24,1.77-29.75,7.83-45.88,25.05a20.7,20.7,0,0,1-4.61,3.73,11.09,11.09,0,0,1-4.6,1.58c-16.14,1.42-37.64,20.19-45.88,27.93l-3.41,15.72S128.07,96,148.45,94.24c2.93-.27,6.27-2.2,9.21-5.32C178,67.18,206.94,63.24,206.94,63.24l-3.4-11.78L117,1.5c-8.24,1.77-29.73,7.82-45.87,25.05a20.64,20.64,0,0,1-4.61,3.73,11.14,11.14,0,0,1-4.6,1.58C45.77,33.28,24.27,52,16,59.79L13.85,69.85h0l-1.22,5.66,86.54,50"/><path class="cls-9" d="M124.65,19.33a63.39,63.39,0,0,0-22.08,12"/><path class="cls-9" d="M133.2,24.27a63.71,63.71,0,0,0-22.09,12"/><line class="cls-9" x1="66.51" y1="30.28" x2="153.05" y2="80.24"/><path class="cls-9" d="M105.14,64.52A88.14,88.14,0,0,0,76.57,81l-.2.17L49.8,65.78"/><path class="cls-9" d="M76.63,81.13a1.15,1.15,0,0,1-.06-.17c-5.75-19,7.74-26.84,7.74-26.84"/><polyline class="cls-9" points="76.86 55.16 84.31 54.12 86.11 58.43"/><path class="cls-9" d="M157.55,35.17a18.23,18.23,0,0,1,2.35,1.13c7.16,4.11,6.72,11.07-1,15.51s-19.7,4.68-26.85.55-6.72-11.07,1-15.5a24.72,24.72,0,0,1,5.9-2.39c6.13-1.66,13.22-1.45,18.58.7Z"/><path class="cls-9" d="M151.79,39.74a8.55,8.55,0,0,1,1.18.56c3.6,2.07,3.37,5.56-.48,7.77s-9.88,2.36-13.46.29-3.37-5.55.48-7.77a12.09,12.09,0,0,1,3-1.2A15.78,15.78,0,0,1,151.79,39.74Z"/><polyline class="cls-9" points="142.46 39.38 138.96 34.47 138.95 34.46"/><polyline class="cls-9" points="151.79 39.73 157.54 35.17 157.55 35.17"/></g></g></g></g></svg>