<svg xmlns="http://www.w3.org/2000/svg" xmlns:xlink="http://www.w3.org/1999/xlink" viewBox="0 0 210.61 195.08"><defs><style>.cls-1,.cls-9{fill:none;}.cls-2{fill:#c2c7cc;}.cls-3{fill:url(#New_Pattern_Swatch_2);}.cls-4{fill:#969a9e;}.cls-5{fill:#fff;}.cls-6{fill:#dae0e5;}.cls-7{fill:#5f646b;}.cls-8{fill:#373a3a;}.cls-9{stroke:#373a3a;stroke-linecap:round;stroke-linejoin:round;stroke-width:3px;}</style><pattern id="New_Pattern_Swatch_2" data-name="New Pattern Swatch 2" width="16" height="19" patternTransform="translate(-415.38 40.41) scale(0.4)" patternUnits="userSpaceOnUse" viewBox="0 0 16 19"><rect class="cls-1" width="16" height="19"/><polygon class="cls-2" points="16 22.18 10.5 19 16 15.82 21.5 19 16 22.18"/><polygon class="cls-2" points="16 22.18 10.5 19 16 15.82 21.5 19 16 22.18"/><polygon class="cls-2" points="0 22.18 -5.5 19 0 15.82 5.5 19 0 22.18"/><polygon class="cls-2" points="0 22.18 -5.5 19 0 15.82 5.5 19 0 22.18"/><polygon class="cls-2" points="16 22.18 10.5 19 16 15.82 21.5 19 16 22.18"/><polygon class="cls-2" points="16 3.18 10.5 0 16 -3.17 21.5 0 16 3.18"/><polygon class="cls-2" points="16 22.18 10.5 19 16 15.82 21.5 19 16 22.18"/><polygon class="cls-2" points="0 22.18 -5.5 19 0 15.82 5.5 19 0 22.18"/><polygon class="cls-2" points="8 12.68 2.5 9.5 8 6.33 13.5 9.5 8 12.68"/><polygon class="cls-2" points="16 3.18 10.5 0 16 -3.17 21.5 0 16 3.18"/><polygon class="cls-2" points="0 3.18 -5.5 0 0 -3.17 5.5 0 0 3.18"/><polygon class="cls-2" points="0 22.18 -5.5 19 0 15.82 5.5 19 0 22.18"/><polygon class="cls-2" points="0 3.18 -5.5 0 0 -3.17 5.5 0 0 3.18"/><polygon class="cls-2" points="16 3.18 10.5 0 16 -3.17 21.5 0 16 3.18"/><polygon class="cls-2" points="16 3.18 10.5 0 16 -3.17 21.5 0 16 3.18"/><polygon class="cls-2" points="0 3.18 -5.5 0 0 -3.17 5.5 0 0 3.18"/><polygon class="cls-2" points="0 3.18 -5.5 0 0 -3.17 5.5 0 0 3.18"/></pattern></defs><g id="Layer_2" data-name="Layer 2"><g id="icons"><g id="university"><path class="cls-3" d="M210.44,146.09a6.73,6.73,0,0,0-2-5.3c-5.87-5-11.69-10-17.64-14.9-1.9-1.57-5.79-4.85-9.23-5.56C166,112,149.47,105.08,133.48,97.74a10.8,10.8,0,0,0-9.38-.1,8.89,8.89,0,0,0-2.69,1.41c-5.13,4-4.88,12.3,1,15.58,8.84,5,17.5,10.22,26.1,15.58,4.3,2.67,15,9.46,16.2,10.15-.9.51-10.33,5.76-14.19,7.83q-11.13,6-22.43,11.68c-7.51,3.79-15.11,7.43-22.68,11.12-7.36,3.58-16.83,6.33-22.81,12-4,3.75-.93,10.81,4.44,10.74a23.8,23.8,0,0,0,3-.25,4.91,4.91,0,0,0,2,1c7.25,1.79,16.56-.66,24-2.68,3.65.23,7.31.39,11,.45,10,.18,20.17,1.92,28.74-4.3s16.88-12.26,25.69-17.89q6.63-4.23,13.46-8.16c4.56-2.63,10.8-4.7,14-8.9A8.67,8.67,0,0,0,210.44,146.09Z"/><g id="university-2" data-name="university"><path class="cls-4" d="M165.3,64.6V78.71c-6.59,3.76-77.08,43.76-77.27,43.88a1.91,1.91,0,0,0-.28.15l-.62.35c-.14.08-.27.15-.4.24-1.07.59-2.16,1.21-3.27,1.84v-14.1l5.18-2.95.35-.19C90.93,106.85,151.46,72.47,165.3,64.6Z"/><path class="cls-5" d="M124.38,1.5,165.3,64.6C151.46,72.47,90.93,106.85,89,107.93l-.35.19-.5.28c-1.22.68-4.35,2.48-4.68,2.67L42.54,48C42.75,47.83,123.66,1.91,124.38,1.5Z"/><path class="cls-4" d="M165.19,140.94v2.44L83.34,190.63,1.5,143.38V133.17c.56.31,2,1.14,2.19,1.26l.1.06.49.28h0l.5.29h0l.31.17.31.18a2.19,2.19,0,0,0,.29.17h0l.28.16.58.34.28.16s0,0,0,0a2.09,2.09,0,0,1,.28.17c.26.13.51.28.79.44l.33.2.36.2.57.33.2.11c.21.14,1,.56,1.12.66l.25.13.52.31.86.5.9.51,1.12.65c.24.14,68.11,39.31,69.18,39.94l81.85-47.25Z"/><path class="cls-6" d="M147.67,123.05l17.52,10.12L83.34,180.42c-1.07-.63-72.4-41.81-72.58-41.91l-.25-.13-2.58-1.5-1.07-.61s0,0,0,0l-.28-.16L6,135.76l-.28-.16h0a2.19,2.19,0,0,1-.29-.17l-.31-.18-.31-.17h0l-.5-.29h0l-.49-.28-.1-.06c-.22-.12-1.63-1-2.19-1.26l18.27-10.55v9.82c0,1.29.84,2.56,2.54,3.55a13.36,13.36,0,0,0,9.3,1.11c.36-.08.71-.18,1-.28a11.84,11.84,0,0,0,1.45-.58c.21-.11.41-.21.61-.33a7.07,7.07,0,0,0,1.05-.76h0l.22-.21a3.5,3.5,0,0,0,1.13-2.49V112.6L46.78,107v40.44c0,1.29.85,2.56,2.54,3.54a13.56,13.56,0,0,0,12.28,0c1.69-1,2.54-2.25,2.54-3.54V114l.87.51c.15.07.28.16.41.23l.16.09.27.16c1.2.72,8.55,4.94,9.12,5.26v42.91c0,1.28.84,2.57,2.54,3.54,5.48,3.16,14.82.89,14.82-3.54v-43l11.25-6.39v33.72a3.55,3.55,0,0,0,1.14,2.5,6.5,6.5,0,0,0,1,.79,9.61,9.61,0,0,0,.9.51,12.18,12.18,0,0,0,1.73.66c.25.08.5.14.76.2A13.24,13.24,0,0,0,118.4,151c1.69-1,2.54-2.25,2.54-3.54V107.62l9.37,5.41v19.41c0,1.29.85,2.56,2.54,3.55a13.43,13.43,0,0,0,9.3,1.11c.37-.08.71-.18,1-.28a11.23,11.23,0,0,0,1.45-.58l.61-.33a6.16,6.16,0,0,0,1.05-.76h0a1.39,1.39,0,0,0,.21-.21,3.43,3.43,0,0,0,1.14-2.49Z"/><path class="cls-5" d="M147.67,123.05v9.39a3.43,3.43,0,0,1-1.14,2.49,1.39,1.39,0,0,1-.21.21h0a6.16,6.16,0,0,1-1.05.76l-.61.33a11.23,11.23,0,0,1-1.45.58c-.34.1-.68.2-1,.28a13.43,13.43,0,0,1-9.3-1.11c-1.69-1-2.54-2.26-2.54-3.55V98.58l17.36-9.85Z"/><path class="cls-5" d="M124.38,1.5c-.72.41-81.63,46.33-81.84,46.46L1.8,63.74l-.11,0h0L83.48,17.34Z"/><path class="cls-5" d="M120.94,107.62v39.85c0,1.29-.85,2.56-2.54,3.54a13.24,13.24,0,0,1-9.31,1.12c-.26-.06-.51-.12-.76-.2a12.18,12.18,0,0,1-1.73-.66,9.61,9.61,0,0,1-.9-.51,6.5,6.5,0,0,1-1-.79,3.55,3.55,0,0,1-1.14-2.5V113.75l17.36-9.85Z"/><path class="cls-5" d="M92.33,120.14v43c0,4.43-9.34,6.7-14.82,3.54-1.7-1-2.54-2.26-2.54-3.54V120.27l0,0,.22.13.63.37.12.06L78,122l.08,0,0,0,.26.15c1.79,1.08,3.26,1.87,4.21,2.44l.14.08c.31.16.56.31.75.42l4.29-2.43a1.91,1.91,0,0,1,.28-.15c.19-.12.38-.22.57-.33Z"/><path class="cls-5" d="M83.46,111.07v14.1c-.19-.11-.44-.26-.75-.42l-.14-.08c-.95-.57-4.38-2.53-4.47-2.59l0,0L78,122l-.42-.23a3.37,3.37,0,0,0-.32-.19L76,120.86l-.12-.06-.85-.5,0,0-9.39-5.42-.16-.09c-.13-.07-.26-.16-.41-.23l-.87-.51c-1-.53-42.95-24.79-43.17-24.92l-.08,0-1.12-.64c-6.78-3.9-13-7.53-18.15-10.49V63.81h.07l.11,0L42.54,48ZM9,71.16,72.6,107.89,40.79,58.83S14.85,68.87,9,71.16Z"/><path class="cls-7" d="M72.6,107.89,9,71.16c5.87-2.29,31.76-12.32,31.81-12.33ZM44.46,77.68a8.14,8.14,0,0,0-3.67-6.37c-2-1.17-3.68-.22-3.68,2.12a8.11,8.11,0,0,0,3.68,6.37C42.81,81,44.46,80,44.46,77.68Z"/><path class="cls-5" d="M64.14,114v33.45c0,1.29-.85,2.56-2.54,3.54a13.56,13.56,0,0,1-12.28,0c-1.69-1-2.54-2.25-2.54-3.54V104Z"/><path class="cls-8" d="M40.79,71.31a8.14,8.14,0,0,1,3.67,6.37c0,2.34-1.65,3.29-3.67,2.12a8.11,8.11,0,0,1-3.68-6.37C37.11,71.09,38.75,70.14,40.79,71.31Z"/><path class="cls-5" d="M37.13,112.6v19.84A3.5,3.5,0,0,1,36,134.93l-.22.21h0a7.07,7.07,0,0,1-1.05.76c-.2.12-.4.22-.61.33a11.84,11.84,0,0,1-1.45.58c-.34.1-.69.2-1,.28a13.36,13.36,0,0,1-9.3-1.11c-1.7-1-2.54-2.26-2.54-3.55v-44l1.12.64.08,0,.69.39c1.11.66,14.29,8.26,15.47,8.94Z"/><line class="cls-9" x1="1.5" y1="133.17" x2="19.77" y2="122.62"/><line class="cls-9" x1="147.67" y1="123.05" x2="165.19" y2="133.17"/><line class="cls-9" x1="120.94" y1="107.62" x2="130.31" y2="113.03"/><line class="cls-9" x1="37.13" y1="112.6" x2="46.78" y2="107.03"/><path class="cls-9" d="M165.19,133.17v10.21L83.34,190.63,1.5,143.38V133.17c.56.31,2,1.14,2.19,1.26l.1.06.49.28h0l.5.29h0l.31.17.31.18a2.19,2.19,0,0,0,.29.17h0l.28.16.58.34.28.16s0,0,0,0a2.09,2.09,0,0,1,.28.17c.26.13.51.28.79.44l.33.2.36.2.57.33.2.11c.21.14,1,.56,1.12.66l.25.13.52.31.86.5.9.51,1.12.65c.24.14,68.11,39.31,69.18,39.94Z"/><path class="cls-9" d="M92.33,120.14v43c0,4.43-9.34,6.7-14.82,3.54-1.7-1-2.54-2.26-2.54-3.54V120.27"/><path class="cls-9" d="M64.14,114v33.45c0,1.29-.85,2.56-2.54,3.54a13.56,13.56,0,0,1-12.28,0c-1.69-1-2.54-2.25-2.54-3.54V104"/><path class="cls-9" d="M37.13,98.43v34A3.5,3.5,0,0,1,36,134.93l-.22.21h0a7.07,7.07,0,0,1-1.05.76c-.2.12-.4.22-.61.33a11.84,11.84,0,0,1-1.45.58c-.34.1-.69.2-1,.28a13.36,13.36,0,0,1-9.3-1.11c-1.7-1-2.54-2.26-2.54-3.55v-44"/><path class="cls-9" d="M120.94,103.9v43.57c0,1.29-.85,2.56-2.54,3.54a13.24,13.24,0,0,1-9.31,1.12c-.26-.06-.51-.12-.76-.2a12.18,12.18,0,0,1-1.73-.66,9.61,9.61,0,0,1-.9-.51,6.5,6.5,0,0,1-1-.79,3.55,3.55,0,0,1-1.14-2.5V113.75"/><path class="cls-9" d="M147.67,88.73v43.71a3.43,3.43,0,0,1-1.14,2.49,1.39,1.39,0,0,1-.21.21h0a6.16,6.16,0,0,1-1.05.76l-.61.33a11.23,11.23,0,0,1-1.45.58c-.34.1-.68.2-1,.28a13.43,13.43,0,0,1-9.3-1.11c-1.69-1-2.54-2.26-2.54-3.55V98.58"/><path class="cls-9" d="M83.46,125.17c-.19-.11-.44-.26-.75-.42l-.14-.08c-.95-.57-4.38-2.53-4.47-2.59l0,0L78,122l-.42-.23a3.37,3.37,0,0,0-.32-.19L76,120.86l-.12-.06-.85-.5,0,0-9.39-5.42-.16-.09c-.13-.07-.26-.16-.41-.23l-.87-.51c-1-.53-42.95-24.79-43.17-24.92l-.08,0-1.12-.64"/><path class="cls-9" d="M19.77,88.41,1.62,77.92V63.81h0L83.48,17.34,124.38,1.5"/><polyline class="cls-9" points="42.54 47.96 1.79 63.74 1.69 63.79 1.65 63.8"/><path class="cls-9" d="M83.46,111.07,42.54,48c.21-.13,81.12-46.05,81.84-46.46L165.3,64.6"/><path class="cls-9" d="M165.3,64.6V78.71c-6.59,3.76-77.08,43.76-77.27,43.88a1.91,1.91,0,0,0-.28.15l-.62.35c-.14.08-.27.15-.4.24-1.07.59-2.16,1.21-3.27,1.84v-14.1l5.18-2.95.35-.19C90.93,106.85,151.46,72.47,165.3,64.6Z"/><path class="cls-9" d="M72.6,107.89,40.79,58.83S14.85,68.87,9,71.16Z"/><path class="cls-9" d="M44.46,77.68a8.14,8.14,0,0,0-3.67-6.37c-2-1.17-3.68-.22-3.68,2.12a8.11,8.11,0,0,0,3.68,6.37C42.81,81,44.46,80,44.46,77.68Z"/></g></g></g></g></svg>