<svg xmlns="http://www.w3.org/2000/svg" xmlns:xlink="http://www.w3.org/1999/xlink" viewBox="0 0 184.75 179.46"><defs><style>.cls-1,.cls-7{fill:none;}.cls-2{fill:#c2c7cc;}.cls-3{fill:url(#New_Pattern_Swatch_2);}.cls-4{fill:#969a9e;}.cls-5{fill:#fff;}.cls-6{fill:#373a3a;}.cls-7{stroke:#373a3a;stroke-linecap:round;stroke-linejoin:round;stroke-width:3px;}</style><pattern id="New_Pattern_Swatch_2" data-name="New Pattern Swatch 2" width="16" height="19" patternTransform="translate(-415.38 40.41) scale(0.4)" patternUnits="userSpaceOnUse" viewBox="0 0 16 19"><rect class="cls-1" width="16" height="19"/><polygon class="cls-2" points="16 22.18 10.5 19 16 15.82 21.5 19 16 22.18"/><polygon class="cls-2" points="16 22.18 10.5 19 16 15.82 21.5 19 16 22.18"/><polygon class="cls-2" points="0 22.18 -5.5 19 0 15.82 5.5 19 0 22.18"/><polygon class="cls-2" points="0 22.18 -5.5 19 0 15.82 5.5 19 0 22.18"/><polygon class="cls-2" points="16 22.18 10.5 19 16 15.82 21.5 19 16 22.18"/><polygon class="cls-2" points="16 3.18 10.5 0 16 -3.17 21.5 0 16 3.18"/><polygon class="cls-2" points="16 22.18 10.5 19 16 15.82 21.5 19 16 22.18"/><polygon class="cls-2" points="0 22.18 -5.5 19 0 15.82 5.5 19 0 22.18"/><polygon class="cls-2" points="8 12.68 2.5 9.5 8 6.33 13.5 9.5 8 12.68"/><polygon class="cls-2" points="16 3.18 10.5 0 16 -3.17 21.5 0 16 3.18"/><polygon class="cls-2" points="0 3.18 -5.5 0 0 -3.17 5.5 0 0 3.18"/><polygon class="cls-2" points="0 22.18 -5.5 19 0 15.82 5.5 19 0 22.18"/><polygon class="cls-2" points="0 3.18 -5.5 0 0 -3.17 5.5 0 0 3.18"/><polygon class="cls-2" points="16 3.18 10.5 0 16 -3.17 21.5 0 16 3.18"/><polygon class="cls-2" points="16 3.18 10.5 0 16 -3.17 21.5 0 16 3.18"/><polygon class="cls-2" points="0 3.18 -5.5 0 0 -3.17 5.5 0 0 3.18"/><polygon class="cls-2" points="0 3.18 -5.5 0 0 -3.17 5.5 0 0 3.18"/></pattern></defs><g id="Layer_2" data-name="Layer 2"><g id="icons"><g id="video"><path class="cls-3" d="M63,141.23a9.16,9.16,0,0,0-.27,2.19c0,6.72,47.26,36,51.2,36,.12,0,70.84-14.89,70.84-22.72,0-10.8-60.76-35.55-88-35.55-5,0-10.15,1.32-15.1,2.3l-.71.56C74.84,128.79,66.33,133.85,63,141.23Z"/><g id="video-2" data-name="video"><path class="cls-2" d="M123.62,71.33V165.2c0,2.29-.81,3.89-2.11,4.64l-10,5.75c1.24-.77,2-2.35,2-4.59V77.13A15.89,15.89,0,0,0,106.4,64.7L8.67,8.28C6.69,7.13,4.9,7,3.6,7.79h0L13.63,2c1.3-.76,3.1-.66,5.08.49L116.44,58.9A15.85,15.85,0,0,1,123.62,71.33Z"/><path class="cls-4" d="M113.57,163.18V171c0,2.24-.77,3.82-2,4.59l-.09,0c-1.29.75-3.09.64-5.07-.5L8.67,118.72A15.88,15.88,0,0,1,1.5,106.29V98.48l26,15a10.57,10.57,0,0,0,4.76,8.26C34.89,123.26,37,122,37,119Z"/><path class="cls-5" d="M113.57,77.13v86.05L37,119a10.51,10.51,0,0,0-4.77-8.26c-2.63-1.52-4.76-.29-4.76,2.76l-26-15V12.43c0-2.29.8-3.89,2.1-4.64s3.09-.66,5.07.49L106.4,64.7A15.89,15.89,0,0,1,113.57,77.13Zm-28.46,24.1c0-17.57-12.34-39-27.57-47.74S30,51.82,30,69.39s12.35,39,27.58,47.77S85.11,118.82,85.11,101.23Z"/><path class="cls-5" d="M57.54,53.49c15.23,8.78,27.57,30.17,27.57,47.74S72.77,126,57.54,117.16,30,87,30,69.39,42.31,44.69,57.54,53.49Zm10.13,39.1c.89-.15.89-1.66,0-2.84L53.43,70.64c-1-1.32-2.3-1.27-2.3.1V92.52c0,1.36,1.32,2.94,2.3,2.75Z"/><path class="cls-6" d="M67.67,89.75c.89,1.18.89,2.69,0,2.84L53.43,95.27c-1,.19-2.3-1.39-2.3-2.75V70.74c0-1.37,1.32-1.42,2.3-.1Z"/><path class="cls-6" d="M32.25,110.73A10.51,10.51,0,0,1,37,119c0,3-2.13,4.27-4.77,2.76a10.57,10.57,0,0,1-4.76-8.26C27.49,110.44,29.62,109.21,32.25,110.73Z"/><path class="cls-7" d="M111.47,175.64c-1.29.75-3.09.64-5.07-.5L8.67,118.72A15.88,15.88,0,0,1,1.5,106.29V12.43c0-2.29.8-3.89,2.1-4.64s3.09-.66,5.07.49L106.4,64.7a15.89,15.89,0,0,1,7.17,12.43V171c0,2.24-.77,3.82-2,4.59Z"/><path class="cls-7" d="M85.11,101.23c0-17.57-12.34-39-27.57-47.74S30,51.82,30,69.39s12.35,39,27.58,47.77S85.11,118.82,85.11,101.23Z"/><path class="cls-7" d="M51.13,70.74V92.52c0,1.36,1.32,2.94,2.3,2.75l14.24-2.68c.89-.15.89-1.66,0-2.84L53.43,70.64C52.45,69.32,51.13,69.37,51.13,70.74Z"/><line class="cls-7" x1="1.5" y1="98.48" x2="27.49" y2="113.49"/><line class="cls-7" x1="37.02" y1="118.99" x2="113.57" y2="163.18"/><path class="cls-7" d="M37,119a10.51,10.51,0,0,0-4.77-8.26c-2.63-1.52-4.76-.29-4.76,2.76a10.57,10.57,0,0,0,4.76,8.26C34.89,123.26,37,122,37,119Z"/><line class="cls-7" x1="121.51" y1="169.84" x2="111.47" y2="175.64"/><path class="cls-7" d="M3.6,7.78,13.63,2c1.3-.76,3.1-.66,5.08.49L116.44,58.9a15.85,15.85,0,0,1,7.18,12.43V165.2c0,2.29-.81,3.89-2.11,4.64l0,0"/></g></g></g></g></svg>