<svg xmlns="http://www.w3.org/2000/svg" xmlns:xlink="http://www.w3.org/1999/xlink" viewBox="0 0 160.87 126.71"><defs><style>.cls-1,.cls-9{fill:none;}.cls-2{fill:#c2c7cc;}.cls-3{fill:url(#New_Pattern_Swatch_2);}.cls-4{fill:#fff;}.cls-5{fill:#dae0e5;}.cls-6{fill:#969a9e;}.cls-7{fill:#373a3a;}.cls-8{fill:#5f646b;}.cls-9{stroke:#373a3a;stroke-linecap:round;stroke-linejoin:round;stroke-width:3px;}</style><pattern id="New_Pattern_Swatch_2" data-name="New Pattern Swatch 2" width="16" height="19" patternTransform="translate(-415.38 40.41) scale(0.4)" patternUnits="userSpaceOnUse" viewBox="0 0 16 19"><rect class="cls-1" width="16" height="19"/><polygon class="cls-2" points="16 22.18 10.5 19 16 15.82 21.5 19 16 22.18"/><polygon class="cls-2" points="16 22.18 10.5 19 16 15.82 21.5 19 16 22.18"/><polygon class="cls-2" points="0 22.18 -5.5 19 0 15.82 5.5 19 0 22.18"/><polygon class="cls-2" points="0 22.18 -5.5 19 0 15.82 5.5 19 0 22.18"/><polygon class="cls-2" points="16 22.18 10.5 19 16 15.82 21.5 19 16 22.18"/><polygon class="cls-2" points="16 3.18 10.5 0 16 -3.17 21.5 0 16 3.18"/><polygon class="cls-2" points="16 22.18 10.5 19 16 15.82 21.5 19 16 22.18"/><polygon class="cls-2" points="0 22.18 -5.5 19 0 15.82 5.5 19 0 22.18"/><polygon class="cls-2" points="8 12.68 2.5 9.5 8 6.33 13.5 9.5 8 12.68"/><polygon class="cls-2" points="16 3.18 10.5 0 16 -3.17 21.5 0 16 3.18"/><polygon class="cls-2" points="0 3.18 -5.5 0 0 -3.17 5.5 0 0 3.18"/><polygon class="cls-2" points="0 22.18 -5.5 19 0 15.82 5.5 19 0 22.18"/><polygon class="cls-2" points="0 3.18 -5.5 0 0 -3.17 5.5 0 0 3.18"/><polygon class="cls-2" points="16 3.18 10.5 0 16 -3.17 21.5 0 16 3.18"/><polygon class="cls-2" points="16 3.18 10.5 0 16 -3.17 21.5 0 16 3.18"/><polygon class="cls-2" points="0 3.18 -5.5 0 0 -3.17 5.5 0 0 3.18"/><polygon class="cls-2" points="0 3.18 -5.5 0 0 -3.17 5.5 0 0 3.18"/></pattern></defs><g id="Layer_2" data-name="Layer 2"><g id="icons"><g id="vr_glasses" data-name="vr glasses"><path class="cls-3" d="M159.69,54.43A4.1,4.1,0,0,0,158.54,53a5.73,5.73,0,0,0-2-1.64c-2.86-1.38-6.56-.86-8.23,2.16l-.19.34a6.13,6.13,0,0,0-.64,4.14c-1.51,2.34-2.94,4.79-5.14,6.65-4.47,3.79-9.91,6.22-14.58,9.72a19.18,19.18,0,0,0-5.23,5.39c-1.57,2.66-1.4,5.91-2.83,8.49-1.13,2.06-3.89,3.77-5.7,5.15-2.84,2.17-5.72,4.27-8.63,6.34-10.31,7.32-20.92,13.47-34,12.8a40,40,0,0,1-17-4.8c-2.31-1.26-4.42-2.8-6.65-4.17s-5.05-1.72-7-3.07c-1.13-.78-2.11.69-1.68,1.69,1,2.27.77,4.31,2.3,6.68a26.73,26.73,0,0,0,6.75,6.45,47.1,47.1,0,0,0,16,7.58,2.42,2.42,0,0,0,.62.32c4.6,1.58,8.63,3,13.54,3.41a55.28,55.28,0,0,0,12.45-.78,87.86,87.86,0,0,0,25.19-8.41A118.72,118.72,0,0,0,137.67,104a21,21,0,0,0,6.53-8.11,15.45,15.45,0,0,0,1.37-6,8.81,8.81,0,0,0-.3-2c2.34-1.6,5-2.88,7.17-4.68a23.34,23.34,0,0,0,6.87-9.36,27.38,27.38,0,0,0,1.34-12.15A11.53,11.53,0,0,0,159.69,54.43Zm-27.56,38.2a28.07,28.07,0,0,0,1-3.29A5.92,5.92,0,0,1,132.13,92.63ZM145,30.76c-12.86-4.44-25.39-4.58-38.19-2.2a4.57,4.57,0,0,1-2.6,3c-6.1,3-12.45,5.22-18.43,8.48-5.1,2.77-11.58,6.2-14.87,11.23a4.14,4.14,0,0,1-7.05,0c-1.77-2.75-1.25-5.66.34-8.41a68.76,68.76,0,0,1-10.65,5c-3.8,1.27-6.15-3.13-4.75-6.19,3.4-7.43,12.9-11.44,20-14.35a237.12,237.12,0,0,1,26.47-9c17.67-4.88,37.39-6.83,54.53,1C156.3,22.28,151.61,33,145,30.76Z"/><g id="vr_glasses-2" data-name="vr glasses"><path class="cls-4" d="M156.63,41.59a17.63,17.63,0,0,0,2.56-9V50.55c0,7.16-4.74,14.33-14.19,19.78L135.23,76V58L145,52.4C150.45,49.25,154.33,45.53,156.63,41.59Z"/><path class="cls-5" d="M159.19,32.63a17.63,17.63,0,0,1-2.56,9c-2.31-4-6.18-7.66-11.63-10.8l-5.49-3.18C120.6,16.7,89.94,16.7,71,27.61l-9.77,5.65V15.33L71,9.69c18.92-10.92,49.58-10.92,68.49,0L145,12.87C154.45,18.33,159.19,25.48,159.19,32.63Z"/><path class="cls-6" d="M135.23,58V76a84.75,84.75,0,0,0-17.44,14.26,9.76,9.76,0,0,0,.71-4V67.07a12.42,12.42,0,0,0-.57-3.77c-.08-.23-.17-.45-.27-.67C123,62.1,129.24,61.5,135.23,58Z"/><path class="cls-4" d="M118.5,86.19a9.76,9.76,0,0,1-.71,4h0c-2.41,5.82-11.22,10.32-30.93,21.5a5.44,5.44,0,0,0,.44-2.25V85.64c0-20.22-16.48-15.24-44.17-30.83-10.33-5.8-28-18.74-28-18.74a6.79,6.79,0,0,0-2.59-.91L35.79,21.73a14.39,14.39,0,0,1,8.42-1.87,1.7,1.7,0,0,0,0,.22v.15a13.46,13.46,0,0,1-.84,4.95c-1.06,2.85-.14,5.93,1.5,8.47a14.7,14.7,0,0,0,5.33,5.07c.68.33,1.36.64,2,1,11.47,5.22,23.54,7.84,34.19,10,7,1.4,13.47,2.59,18.69,4.21,5.45,1.7,9.6,3.86,11.75,7.22a9,9,0,0,1,.81,1.57c.1.22.19.44.27.67a12.42,12.42,0,0,1,.57,3.77Zm-11.21,1.2a5.89,5.89,0,0,0,2.48-4.73c0-1.83-1.1-2.67-2.48-1.87l-9.81,5.67A5.92,5.92,0,0,0,95,91.19c0,1.83,1.11,2.67,2.48,1.88Z"/><path class="cls-7" d="M109.77,82.66a5.89,5.89,0,0,1-2.48,4.73l-9.81,5.68c-1.37.79-2.48,0-2.48-1.88a5.92,5.92,0,0,1,2.48-4.73l9.81-5.67C108.67,80,109.77,80.83,109.77,82.66Z"/><path class="cls-8" d="M87.29,85.64v23.84a5.44,5.44,0,0,1-.44,2.25c-2.73,1.55-5.65,3.21-8.79,5h0a4.48,4.48,0,0,0,2.19-4.14V89.17c0-19.9-16.21-15-43.44-30.34C26.63,53.13,9.24,40.4,9.24,40.4c-1.89-1.1-3.62-1.19-5-.47h0l8.26-4.76a6.79,6.79,0,0,1,2.59.91S32.79,49,43.12,54.81C70.81,70.4,87.29,65.42,87.29,85.64Z"/><path class="cls-2" d="M80.24,89.17v23.44a4.48,4.48,0,0,1-2.19,4.14c-3.45,2-10.64.92-19.29-2.15-1.74-.61-3.53-1.31-5.38-2.08-1.36-.56-2.74-1.17-4.13-1.81l0,0c-22-10.11-47.7-28.81-47.7-41V46.24c0-3.17,1.08-5.4,2.77-6.31,1.35-.72,3.08-.63,5,.47,0,0,17.39,12.73,27.56,18.43C64,74.17,80.24,69.27,80.24,89.17Z"/><path class="cls-6" d="M61.25,15.33V33.26a67.79,67.79,0,0,0-9,6.41c-.68-.31-1.35-.62-2-1a14.7,14.7,0,0,1-5.33-5.07c-1.64-2.54-2.56-5.62-1.5-8.47a13.46,13.46,0,0,0,.84-4.95v-.15a1.7,1.7,0,0,1,0-.22C49.45,19.36,55.47,18.67,61.25,15.33Z"/><path class="cls-9" d="M86.85,111.73a5.44,5.44,0,0,0,.44-2.25V85.64c0-20.22-16.48-15.24-44.17-30.83-10.33-5.8-28-18.74-28-18.74a6.79,6.79,0,0,0-2.59-.91"/><path class="cls-9" d="M78.05,116.75a4.47,4.47,0,0,0,2.19-4.14V89.17c0-19.9-16.21-15-43.44-30.34C26.63,53.13,9.24,40.4,9.24,40.4c-1.89-1.1-3.61-1.19-5-.47-1.69.91-2.77,3.14-2.77,6.31V69.69c0,12.19,25.68,30.89,47.7,41l0,0c1.39.64,2.77,1.25,4.13,1.81,1.85.77,3.64,1.47,5.38,2.08C67.41,117.67,74.61,118.78,78.05,116.75Z"/><path class="cls-9" d="M117.78,90.23c-2.41,5.82-11.23,10.3-30.93,21.5-2.73,1.54-5.65,3.21-8.79,5"/><path class="cls-9" d="M4.17,40,35.79,21.73a14.39,14.39,0,0,1,8.42-1.87,1.7,1.7,0,0,0,0,.22v.15a13.46,13.46,0,0,1-.84,4.95c-1.06,2.85-.14,5.93,1.5,8.47a14.7,14.7,0,0,0,5.33,5.07c.68.33,1.36.64,2,1,11.47,5.22,23.54,7.84,34.19,10,7,1.4,13.47,2.59,18.69,4.21,5.45,1.7,9.6,3.86,11.75,7.22a9,9,0,0,1,.81,1.57c.1.22.19.44.27.67a12.42,12.42,0,0,1,.57,3.77V86.19a9.76,9.76,0,0,1-.71,4"/><path class="cls-9" d="M97.48,93.07l9.81-5.68a5.89,5.89,0,0,0,2.48-4.73c0-1.83-1.1-2.67-2.48-1.87l-9.81,5.67A5.92,5.92,0,0,0,95,91.19C95,93,96.11,93.86,97.48,93.07Z"/><path class="cls-9" d="M117.66,62.63C123,62.1,129.24,61.5,135.23,58V76a84.75,84.75,0,0,0-17.44,14.26h0"/><path class="cls-9" d="M44.21,19.86c5.24-.5,11.26-1.19,17-4.53V33.26a67.79,67.79,0,0,0-9,6.41"/><path class="cls-9" d="M135.23,76,145,70.33c9.45-5.45,14.18-12.62,14.19-19.78"/><path class="cls-9" d="M156.64,41.6h0c-2.31-4-6.18-7.66-11.63-10.8l-5.49-3.18C120.6,16.7,89.94,16.7,71,27.61l-9.77,5.65"/><path class="cls-9" d="M135.23,58,145,52.4c5.45-3.15,9.33-6.87,11.63-10.81a17.63,17.63,0,0,0,2.56-9c0-7.15-4.74-14.3-14.19-19.76l-5.49-3.18C120.6-1.23,89.94-1.23,71,9.69l-9.77,5.64"/><line class="cls-9" x1="159.19" y1="32.63" x2="159.19" y2="50.55"/></g></g></g></g></svg>