<svg xmlns="http://www.w3.org/2000/svg" xmlns:xlink="http://www.w3.org/1999/xlink" viewBox="0 0 155.23 180.94"><defs><style>.cls-1,.cls-8{fill:none;}.cls-2{fill:#c2c7cc;}.cls-3{fill:url(#New_Pattern_Swatch_2);}.cls-4{fill:#969a9e;}.cls-5{fill:#373a3a;}.cls-6{fill:#fff;}.cls-7{fill:#5f646b;}.cls-8{stroke:#373a3a;stroke-linecap:round;stroke-linejoin:round;stroke-width:3px;}</style><pattern id="New_Pattern_Swatch_2" data-name="New Pattern Swatch 2" width="16" height="19" patternTransform="translate(-415.38 40.41) scale(0.4)" patternUnits="userSpaceOnUse" viewBox="0 0 16 19"><rect class="cls-1" width="16" height="19"/><polygon class="cls-2" points="16 22.18 10.5 19 16 15.82 21.5 19 16 22.18"/><polygon class="cls-2" points="16 22.18 10.5 19 16 15.82 21.5 19 16 22.18"/><polygon class="cls-2" points="0 22.18 -5.5 19 0 15.82 5.5 19 0 22.18"/><polygon class="cls-2" points="0 22.18 -5.5 19 0 15.82 5.5 19 0 22.18"/><polygon class="cls-2" points="16 22.18 10.5 19 16 15.82 21.5 19 16 22.18"/><polygon class="cls-2" points="16 3.18 10.5 0 16 -3.17 21.5 0 16 3.18"/><polygon class="cls-2" points="16 22.18 10.5 19 16 15.82 21.5 19 16 22.18"/><polygon class="cls-2" points="0 22.18 -5.5 19 0 15.82 5.5 19 0 22.18"/><polygon class="cls-2" points="8 12.68 2.5 9.5 8 6.33 13.5 9.5 8 12.68"/><polygon class="cls-2" points="16 3.18 10.5 0 16 -3.17 21.5 0 16 3.18"/><polygon class="cls-2" points="0 3.18 -5.5 0 0 -3.17 5.5 0 0 3.18"/><polygon class="cls-2" points="0 22.18 -5.5 19 0 15.82 5.5 19 0 22.18"/><polygon class="cls-2" points="0 3.18 -5.5 0 0 -3.17 5.5 0 0 3.18"/><polygon class="cls-2" points="16 3.18 10.5 0 16 -3.17 21.5 0 16 3.18"/><polygon class="cls-2" points="16 3.18 10.5 0 16 -3.17 21.5 0 16 3.18"/><polygon class="cls-2" points="0 3.18 -5.5 0 0 -3.17 5.5 0 0 3.18"/><polygon class="cls-2" points="0 3.18 -5.5 0 0 -3.17 5.5 0 0 3.18"/></pattern></defs><g id="Layer_2" data-name="Layer 2"><g id="icons"><g id="woman_student" data-name="woman student"><path class="cls-3" d="M74.91,120a5.53,5.53,0,0,0-.69,0c-5.57,0-6.23,8.2-6.52,12.61.07.63.17,1.25.29,1.87a165.1,165.1,0,0,0-3.26,20.78,9.14,9.14,0,0,0,0,2c-6.46-.69-13.3-1.08-19.34,1.17a1.9,1.9,0,0,0-.82,3.14,34.05,34.05,0,0,0,11.11,6.33c1.81.68,3.62,1.21,5.47,1.76l3.66,1.09a10.85,10.85,0,0,0,1.55.55c2.3,2.54,4,4.42,7.72,5.82a30.16,30.16,0,0,0,9.08,1.86,9.41,9.41,0,0,0,7.77,1.87A116.66,116.66,0,0,0,103.67,178c15.12-.89,17.28-9,28-13.37,5.9-2.41,23.53-1,23.53-11.27,0-15.84-35.89-15.79-44.19-18.85C95,128.61,106.17,128.11,74.91,120Z"/><g id="woman_student-2" data-name="woman student"><path class="cls-4" d="M122.24,117.92c18.44,18.18-26.87,58.34-31,60.75-5.12,3-7.37-3.16-8.5-12.09-.5-3.93-.79-8.42-1-12.89h0c5.16-6.27,10.45-12.27,15-17.29-3.86-8.73-9.44-16.94-14.7-24.92-5.64,7.83-12.56,13.85-12.56,24.38,0,8.67,2.09,13.47,4.7,17.9l-1.87-.82a2.24,2.24,0,0,0-1.55-.1l-.42.11a.53.53,0,0,0-.31.28.48.48,0,0,0,0,.42l1,2.46A2.09,2.09,0,0,1,69.32,159l-10.9.89a1.34,1.34,0,0,0-1,.52,1.32,1.32,0,0,0-.24,1l1,5.51A50.39,50.39,0,0,1,40.13,163c-3.54-58.63-1.25-60.91,6-79.59,7.63-7.78,17-12.69,24.06-15.6A186.89,186.89,0,0,1,86.37,81.56C100.41,94.71,114.46,110.25,122.24,117.92Z"/><path class="cls-5" d="M89.2,71.54a21,21,0,0,1-2.83,10A186.89,186.89,0,0,0,70.23,67.79c-2.15-1.61-4.25-3-6.24-4.24,1-5.15,1-4.24,1-6.34,0-8.5-6.47-6-12.2-13.61.34,0,.69,0,1,0A28,28,0,0,0,67.65,40.4c3.73-2.17,5.6-5,5.6-7.82V30.84c.35-.19.69-.39,1-.59,2.93,5.33,8.5,5.77,8.5,12.25,0,3.92-2.65,5.86-2.65,9.94C80.13,57.35,89.2,61.24,89.2,71.54Z"/><path class="cls-6" d="M82.78,166.58,79,170.29a9,9,0,0,1-8.33,2.31l-9.3-2.17a4,4,0,0,1-3-3.16l-1.1-5.86a1.32,1.32,0,0,1,.24-1,1.34,1.34,0,0,1,1-.52l10.9-.89a2.09,2.09,0,0,0,1.77-2.86l-1-2.46a.48.48,0,0,1,0-.42.53.53,0,0,1,.31-.28l.42-.11a2.24,2.24,0,0,1,1.55.1l5,2.21a3.43,3.43,0,0,0,4-1c.14-.16.27-.33.4-.49C82,158.16,82.28,162.65,82.78,166.58Z"/><path class="cls-4" d="M89.19,21.92C83.58,25,73.6,30.65,73.25,30.84h0l-.12.07c-6,3.43-11.88,6.9-19.31,11.42-7.09-4.42-12.89-7.77-18.69-11.15-.05,0-10.48-5.86-16.67-9.27C32.53,14.34,42.05,9,53.82,1.5,66.55,9.43,75,14.21,89.19,21.92Z"/><path class="cls-7" d="M73.25,30.85v1.73c0,2.84-1.87,5.65-5.6,7.82a27.77,27.77,0,0,1-13.83,3.23V42.34C61.25,37.82,73.21,30.87,73.25,30.85Z"/><path class="cls-6" d="M65,57.21c0,2.1,0,1.19-1,6.34,2,1.21,4.09,2.63,6.24,4.24-7.08,2.91-16.43,7.82-24.06,15.6,0,0-1.55-13,2.31-22.29-3.73.49-6.47-.06-8.4-1.43-2.75-1.94-3.86-5.55-3.86-10.22,0-1.82.12-3.59.12-5.12,0-1.93,0-7,0-7.67a12.81,12.81,0,0,0,4.26,3.74,26.81,26.81,0,0,0,12.19,3.2C58.51,51.25,65,48.71,65,57.21Z"/><path class="cls-7" d="M53.82,42.34v1.29c-.35,0-.7,0-1,0a27.46,27.46,0,0,1-12.19-3.2,12.81,12.81,0,0,1-4.26-3.74A7.06,7.06,0,0,1,35,32.58V31.09l.15.1C40.93,34.57,46.73,37.92,53.82,42.34Z"/><path class="cls-4" d="M24.29,115.36c-2.1,1.32-4.23,4-6.1,7.29-3.62,6.29-6.26,14.67-5.77,19.23C8.63,130.51-5.81,83.14,6.15,75.43c8.18-5.27,16.41-9,33.93-15.76C42,61,44.75,61.59,48.48,61.1c-3.86,9.31-2.31,22.29-2.31,22.29-7.29,18.68-9.58,21-6,79.59a67.63,67.63,0,0,1-16.27-9.48h0a1.54,1.54,0,0,0,.64,0,1.7,1.7,0,0,0,1.19-1.19L26.94,148a3.81,3.81,0,0,0-.6-3.36l-2.5-3.38c.36-1.46.79-3,1.31-4.84a15.82,15.82,0,0,0,.43-6.67A98.64,98.64,0,0,1,24.29,115.36Zm-.75-12.58a12.13,12.13,0,0,0-.82-1.85,15,15,0,0,1-1.8-7.27,17.62,17.62,0,0,1,.88-5.42c-1.16.56-2.14,1-2.87,1.4a1.6,1.6,0,0,0-.71,2.12Z"/><path class="cls-6" d="M23.84,141.28l2.5,3.38a3.81,3.81,0,0,1,.6,3.36l-1.25,4.24a1.7,1.7,0,0,1-1.19,1.19,1.54,1.54,0,0,1-.64,0,1.63,1.63,0,0,1-1-.42l-1.44-1.29A4.57,4.57,0,0,1,20,147.6l1.2-7a25,25,0,0,0-.8-11.74c-.67-2.1-1.4-4.14-2.19-6.16,1.87-3.27,4-6,6.1-7.29a98.64,98.64,0,0,0,1.29,14.41,15.82,15.82,0,0,1-.43,6.67C24.63,138.24,24.2,139.82,23.84,141.28Z"/><path class="cls-6" d="M23.54,102.78l-5.32-11a1.6,1.6,0,0,1,.71-2.12c.73-.37,1.71-.84,2.87-1.4a17.62,17.62,0,0,0-.88,5.42,15,15,0,0,0,1.8,7.27A12.13,12.13,0,0,1,23.54,102.78Z"/><path class="cls-5" d="M20.38,128.81a25,25,0,0,1,.8,11.74l-.47,2.77A26.35,26.35,0,0,1,16,145c-2.23.54-3.33-.79-3.57-3.14h0c-.49-4.56,2.15-12.94,5.77-19.23C19,124.67,19.71,126.71,20.38,128.81Z"/><path class="cls-8" d="M35,31.09v1.49a7.08,7.08,0,0,0,1.35,4.08,12.91,12.91,0,0,0,4.26,3.74,27.46,27.46,0,0,0,12.19,3.2c.34,0,.69,0,1,0A28,28,0,0,0,67.65,40.4c3.73-2.17,5.6-5,5.6-7.82V30.85"/><path class="cls-8" d="M35,31.09l.15.1c5.8,3.38,11.6,6.73,18.69,11.15,7.43-4.52,19.39-11.47,19.43-11.49h0c.35-.19.69-.39,1-.59,4.57-2.61,9.3-5.23,14.91-8.33C75,14.21,66.55,9.43,53.82,1.5,42.05,9,32.53,14.34,18.46,21.92,24.65,25.33,29.87,28.11,35,31.09Z"/><path class="cls-8" d="M81.77,153.68c5.16-6.27,10.45-12.27,15-17.29-3.86-8.73-9.44-16.94-14.7-24.92-5.64,7.83-12.56,13.85-12.56,24.38,0,8.67,2.09,13.47,4.7,17.9"/><path class="cls-8" d="M82.78,166.58,79,170.29a9,9,0,0,1-8.33,2.31l-9.3-2.17a4,4,0,0,1-3-3.16l-1.1-5.86a1.32,1.32,0,0,1,.24-1,1.34,1.34,0,0,1,1-.52l10.9-.89a2.09,2.09,0,0,0,1.77-2.86l-1-2.46a.48.48,0,0,1,0-.42.53.53,0,0,1,.31-.28l.42-.11a2.24,2.24,0,0,1,1.55.1l5,2.21a3.43,3.43,0,0,0,4-1c.14-.16.27-.33.4-.49"/><path class="cls-8" d="M58.26,166.92A50.6,50.6,0,0,1,40.13,163a68,68,0,0,1-16.27-9.48"/><path class="cls-8" d="M23.54,102.78a12.13,12.13,0,0,0-.82-1.85,15,15,0,0,1-1.8-7.27,17.93,17.93,0,0,1,.88-5.42,23.78,23.78,0,0,1,2.87-5.86,20.86,20.86,0,0,0,2.73-5.83c.4-1.37.84-2.67,1.32-3.92"/><path class="cls-8" d="M23.84,141.28c.36-1.46.79-3,1.31-4.84a15.82,15.82,0,0,0,.43-6.67,97.11,97.11,0,0,1-1.29-14.41c0-1.79-.06-7.67-.06-8.4a12.46,12.46,0,0,0-.67-4.13"/><path class="cls-8" d="M86.37,81.56a21,21,0,0,0,2.83-10c0-10.3-9.07-14.19-9.07-19.1,0-4.08,2.65-6,2.65-9.94,0-6.48-5.57-6.92-8.5-12.25"/><path class="cls-8" d="M18.19,122.65c.79,2,1.52,4.06,2.19,6.16a25,25,0,0,1,.8,11.74l-1.2,7a4.57,4.57,0,0,0,1.45,4.18l1.44,1.29a1.63,1.63,0,0,0,1,.42,1.54,1.54,0,0,0,.64,0,1.7,1.7,0,0,0,1.19-1.19L26.94,148a3.81,3.81,0,0,0-.6-3.36l-3-4.1"/><path class="cls-8" d="M21.8,88.24c-1.16.56-2.14,1-2.87,1.4a1.6,1.6,0,0,0-.71,2.12l5.34,11.07"/><path class="cls-8" d="M81.77,153.68h0c.22,4.47.51,9,1,12.89,1.14,8.93,3.38,15.09,8.5,12.09,4.09-2.41,49.4-42.57,31-60.75-7.78-7.67-21.84-23.2-35.87-36.36A192.08,192.08,0,0,0,70.23,67.79c-2.15-1.6-4.25-3-6.24-4.24,1-5.15,1-4.24,1-6.34,0-8.5-6.47-6-12.2-13.61"/><path class="cls-8" d="M70.23,67.79c-7.08,2.91-16.43,7.82-24.06,15.6,0,0-1.55-13,2.31-22.29-3.73.49-6.47-.07-8.4-1.43-2.75-2-3.86-5.55-3.86-10.22,0-1.82.12-3.59.12-5.12,0-1.93,0-7,0-7.67"/><path class="cls-8" d="M12.42,141.89c.24,2.35,1.34,3.68,3.57,3.14a26.35,26.35,0,0,0,4.72-1.71"/><path class="cls-8" d="M24.29,115.36c-2.1,1.32-4.23,4-6.1,7.29-3.62,6.29-6.26,14.67-5.77,19.23"/><path class="cls-8" d="M12.42,141.89h0C8.63,130.51-5.81,83.14,6.15,75.43c8.18-5.27,16.41-9,33.93-15.76"/><path class="cls-8" d="M46.17,83.39c-7.29,18.68-9.58,21-6,79.59h0"/></g></g></g></g></svg>